%TF.GenerationSoftware,KiCad,Pcbnew,9.0.4*%
%TF.CreationDate,2026-03-03T09:08:47-07:00*%
%TF.ProjectId,Patel_EGR314,50617465-6c5f-4454-9752-3331342e6b69,rev?*%
%TF.SameCoordinates,Original*%
%TF.FileFunction,Legend,Top*%
%TF.FilePolarity,Positive*%
%FSLAX46Y46*%
G04 Gerber Fmt 4.6, Leading zero omitted, Abs format (unit mm)*
G04 Created by KiCad (PCBNEW 9.0.4) date 2026-03-03 09:08:47*
%MOMM*%
%LPD*%
G01*
G04 APERTURE LIST*
%ADD10C,0.150000*%
%ADD11C,0.160000*%
%ADD12C,0.200000*%
%ADD13C,0.152400*%
%ADD14C,0.120000*%
%ADD15C,0.127000*%
G04 APERTURE END LIST*
D10*
X154110695Y-123417219D02*
X154110695Y-124226742D01*
X154110695Y-124226742D02*
X154158314Y-124321980D01*
X154158314Y-124321980D02*
X154205933Y-124369600D01*
X154205933Y-124369600D02*
X154301171Y-124417219D01*
X154301171Y-124417219D02*
X154491647Y-124417219D01*
X154491647Y-124417219D02*
X154586885Y-124369600D01*
X154586885Y-124369600D02*
X154634504Y-124321980D01*
X154634504Y-124321980D02*
X154682123Y-124226742D01*
X154682123Y-124226742D02*
X154682123Y-123417219D01*
X155110695Y-123512457D02*
X155158314Y-123464838D01*
X155158314Y-123464838D02*
X155253552Y-123417219D01*
X155253552Y-123417219D02*
X155491647Y-123417219D01*
X155491647Y-123417219D02*
X155586885Y-123464838D01*
X155586885Y-123464838D02*
X155634504Y-123512457D01*
X155634504Y-123512457D02*
X155682123Y-123607695D01*
X155682123Y-123607695D02*
X155682123Y-123702933D01*
X155682123Y-123702933D02*
X155634504Y-123845790D01*
X155634504Y-123845790D02*
X155063076Y-124417219D01*
X155063076Y-124417219D02*
X155682123Y-124417219D01*
X179520914Y-87839895D02*
X179254247Y-87458942D01*
X179063771Y-87839895D02*
X179063771Y-87039895D01*
X179063771Y-87039895D02*
X179368533Y-87039895D01*
X179368533Y-87039895D02*
X179444723Y-87077990D01*
X179444723Y-87077990D02*
X179482818Y-87116085D01*
X179482818Y-87116085D02*
X179520914Y-87192276D01*
X179520914Y-87192276D02*
X179520914Y-87306561D01*
X179520914Y-87306561D02*
X179482818Y-87382752D01*
X179482818Y-87382752D02*
X179444723Y-87420847D01*
X179444723Y-87420847D02*
X179368533Y-87458942D01*
X179368533Y-87458942D02*
X179063771Y-87458942D01*
X180282818Y-87839895D02*
X179825675Y-87839895D01*
X180054247Y-87839895D02*
X180054247Y-87039895D01*
X180054247Y-87039895D02*
X179978056Y-87154180D01*
X179978056Y-87154180D02*
X179901866Y-87230371D01*
X179901866Y-87230371D02*
X179825675Y-87268466D01*
X181044723Y-87839895D02*
X180587580Y-87839895D01*
X180816152Y-87839895D02*
X180816152Y-87039895D01*
X180816152Y-87039895D02*
X180739961Y-87154180D01*
X180739961Y-87154180D02*
X180663771Y-87230371D01*
X180663771Y-87230371D02*
X180587580Y-87268466D01*
X169386314Y-87890695D02*
X169119647Y-87509742D01*
X168929171Y-87890695D02*
X168929171Y-87090695D01*
X168929171Y-87090695D02*
X169233933Y-87090695D01*
X169233933Y-87090695D02*
X169310123Y-87128790D01*
X169310123Y-87128790D02*
X169348218Y-87166885D01*
X169348218Y-87166885D02*
X169386314Y-87243076D01*
X169386314Y-87243076D02*
X169386314Y-87357361D01*
X169386314Y-87357361D02*
X169348218Y-87433552D01*
X169348218Y-87433552D02*
X169310123Y-87471647D01*
X169310123Y-87471647D02*
X169233933Y-87509742D01*
X169233933Y-87509742D02*
X168929171Y-87509742D01*
X170148218Y-87890695D02*
X169691075Y-87890695D01*
X169919647Y-87890695D02*
X169919647Y-87090695D01*
X169919647Y-87090695D02*
X169843456Y-87204980D01*
X169843456Y-87204980D02*
X169767266Y-87281171D01*
X169767266Y-87281171D02*
X169691075Y-87319266D01*
X170452980Y-87166885D02*
X170491076Y-87128790D01*
X170491076Y-87128790D02*
X170567266Y-87090695D01*
X170567266Y-87090695D02*
X170757742Y-87090695D01*
X170757742Y-87090695D02*
X170833933Y-87128790D01*
X170833933Y-87128790D02*
X170872028Y-87166885D01*
X170872028Y-87166885D02*
X170910123Y-87243076D01*
X170910123Y-87243076D02*
X170910123Y-87319266D01*
X170910123Y-87319266D02*
X170872028Y-87433552D01*
X170872028Y-87433552D02*
X170414885Y-87890695D01*
X170414885Y-87890695D02*
X170910123Y-87890695D01*
X137649295Y-55192599D02*
X137268342Y-55392599D01*
X137649295Y-55535456D02*
X136849295Y-55535456D01*
X136849295Y-55535456D02*
X136849295Y-55306885D01*
X136849295Y-55306885D02*
X136887390Y-55249742D01*
X136887390Y-55249742D02*
X136925485Y-55221171D01*
X136925485Y-55221171D02*
X137001676Y-55192599D01*
X137001676Y-55192599D02*
X137115961Y-55192599D01*
X137115961Y-55192599D02*
X137192152Y-55221171D01*
X137192152Y-55221171D02*
X137230247Y-55249742D01*
X137230247Y-55249742D02*
X137268342Y-55306885D01*
X137268342Y-55306885D02*
X137268342Y-55535456D01*
X136849295Y-54992599D02*
X136849295Y-54592599D01*
X136849295Y-54592599D02*
X137649295Y-54849742D01*
X119503133Y-48455104D02*
X119472657Y-48493200D01*
X119472657Y-48493200D02*
X119381228Y-48531295D01*
X119381228Y-48531295D02*
X119320276Y-48531295D01*
X119320276Y-48531295D02*
X119228847Y-48493200D01*
X119228847Y-48493200D02*
X119167895Y-48417009D01*
X119167895Y-48417009D02*
X119137418Y-48340819D01*
X119137418Y-48340819D02*
X119106942Y-48188438D01*
X119106942Y-48188438D02*
X119106942Y-48074152D01*
X119106942Y-48074152D02*
X119137418Y-47921771D01*
X119137418Y-47921771D02*
X119167895Y-47845580D01*
X119167895Y-47845580D02*
X119228847Y-47769390D01*
X119228847Y-47769390D02*
X119320276Y-47731295D01*
X119320276Y-47731295D02*
X119381228Y-47731295D01*
X119381228Y-47731295D02*
X119472657Y-47769390D01*
X119472657Y-47769390D02*
X119503133Y-47807485D01*
X120051704Y-47997961D02*
X120051704Y-48531295D01*
X119899323Y-47693200D02*
X119746942Y-48264628D01*
X119746942Y-48264628D02*
X120143133Y-48264628D01*
X137604704Y-71435666D02*
X137642800Y-71466142D01*
X137642800Y-71466142D02*
X137680895Y-71557571D01*
X137680895Y-71557571D02*
X137680895Y-71618523D01*
X137680895Y-71618523D02*
X137642800Y-71709952D01*
X137642800Y-71709952D02*
X137566609Y-71770904D01*
X137566609Y-71770904D02*
X137490419Y-71801381D01*
X137490419Y-71801381D02*
X137338038Y-71831857D01*
X137338038Y-71831857D02*
X137223752Y-71831857D01*
X137223752Y-71831857D02*
X137071371Y-71801381D01*
X137071371Y-71801381D02*
X136995180Y-71770904D01*
X136995180Y-71770904D02*
X136918990Y-71709952D01*
X136918990Y-71709952D02*
X136880895Y-71618523D01*
X136880895Y-71618523D02*
X136880895Y-71557571D01*
X136880895Y-71557571D02*
X136918990Y-71466142D01*
X136918990Y-71466142D02*
X136957085Y-71435666D01*
X136880895Y-71222333D02*
X136880895Y-70826142D01*
X136880895Y-70826142D02*
X137185657Y-71039476D01*
X137185657Y-71039476D02*
X137185657Y-70948047D01*
X137185657Y-70948047D02*
X137223752Y-70887095D01*
X137223752Y-70887095D02*
X137261847Y-70856619D01*
X137261847Y-70856619D02*
X137338038Y-70826142D01*
X137338038Y-70826142D02*
X137528514Y-70826142D01*
X137528514Y-70826142D02*
X137604704Y-70856619D01*
X137604704Y-70856619D02*
X137642800Y-70887095D01*
X137642800Y-70887095D02*
X137680895Y-70948047D01*
X137680895Y-70948047D02*
X137680895Y-71130904D01*
X137680895Y-71130904D02*
X137642800Y-71191857D01*
X137642800Y-71191857D02*
X137604704Y-71222333D01*
X138069333Y-75647895D02*
X137855999Y-75266942D01*
X137703618Y-75647895D02*
X137703618Y-74847895D01*
X137703618Y-74847895D02*
X137947428Y-74847895D01*
X137947428Y-74847895D02*
X138008380Y-74885990D01*
X138008380Y-74885990D02*
X138038857Y-74924085D01*
X138038857Y-74924085D02*
X138069333Y-75000276D01*
X138069333Y-75000276D02*
X138069333Y-75114561D01*
X138069333Y-75114561D02*
X138038857Y-75190752D01*
X138038857Y-75190752D02*
X138008380Y-75228847D01*
X138008380Y-75228847D02*
X137947428Y-75266942D01*
X137947428Y-75266942D02*
X137703618Y-75266942D01*
X138648380Y-74847895D02*
X138343618Y-74847895D01*
X138343618Y-74847895D02*
X138313142Y-75228847D01*
X138313142Y-75228847D02*
X138343618Y-75190752D01*
X138343618Y-75190752D02*
X138404571Y-75152657D01*
X138404571Y-75152657D02*
X138556952Y-75152657D01*
X138556952Y-75152657D02*
X138617904Y-75190752D01*
X138617904Y-75190752D02*
X138648380Y-75228847D01*
X138648380Y-75228847D02*
X138678857Y-75305038D01*
X138678857Y-75305038D02*
X138678857Y-75495514D01*
X138678857Y-75495514D02*
X138648380Y-75571704D01*
X138648380Y-75571704D02*
X138617904Y-75609800D01*
X138617904Y-75609800D02*
X138556952Y-75647895D01*
X138556952Y-75647895D02*
X138404571Y-75647895D01*
X138404571Y-75647895D02*
X138343618Y-75609800D01*
X138343618Y-75609800D02*
X138313142Y-75571704D01*
X129687333Y-75622495D02*
X129473999Y-75241542D01*
X129321618Y-75622495D02*
X129321618Y-74822495D01*
X129321618Y-74822495D02*
X129565428Y-74822495D01*
X129565428Y-74822495D02*
X129626380Y-74860590D01*
X129626380Y-74860590D02*
X129656857Y-74898685D01*
X129656857Y-74898685D02*
X129687333Y-74974876D01*
X129687333Y-74974876D02*
X129687333Y-75089161D01*
X129687333Y-75089161D02*
X129656857Y-75165352D01*
X129656857Y-75165352D02*
X129626380Y-75203447D01*
X129626380Y-75203447D02*
X129565428Y-75241542D01*
X129565428Y-75241542D02*
X129321618Y-75241542D01*
X130235904Y-74822495D02*
X130113999Y-74822495D01*
X130113999Y-74822495D02*
X130053047Y-74860590D01*
X130053047Y-74860590D02*
X130022571Y-74898685D01*
X130022571Y-74898685D02*
X129961618Y-75012971D01*
X129961618Y-75012971D02*
X129931142Y-75165352D01*
X129931142Y-75165352D02*
X129931142Y-75470114D01*
X129931142Y-75470114D02*
X129961618Y-75546304D01*
X129961618Y-75546304D02*
X129992095Y-75584400D01*
X129992095Y-75584400D02*
X130053047Y-75622495D01*
X130053047Y-75622495D02*
X130174952Y-75622495D01*
X130174952Y-75622495D02*
X130235904Y-75584400D01*
X130235904Y-75584400D02*
X130266380Y-75546304D01*
X130266380Y-75546304D02*
X130296857Y-75470114D01*
X130296857Y-75470114D02*
X130296857Y-75279638D01*
X130296857Y-75279638D02*
X130266380Y-75203447D01*
X130266380Y-75203447D02*
X130235904Y-75165352D01*
X130235904Y-75165352D02*
X130174952Y-75127257D01*
X130174952Y-75127257D02*
X130053047Y-75127257D01*
X130053047Y-75127257D02*
X129992095Y-75165352D01*
X129992095Y-75165352D02*
X129961618Y-75203447D01*
X129961618Y-75203447D02*
X129931142Y-75279638D01*
X123598000Y-80169095D02*
X123398000Y-79788142D01*
X123255143Y-80169095D02*
X123255143Y-79369095D01*
X123255143Y-79369095D02*
X123483714Y-79369095D01*
X123483714Y-79369095D02*
X123540857Y-79407190D01*
X123540857Y-79407190D02*
X123569428Y-79445285D01*
X123569428Y-79445285D02*
X123598000Y-79521476D01*
X123598000Y-79521476D02*
X123598000Y-79635761D01*
X123598000Y-79635761D02*
X123569428Y-79711952D01*
X123569428Y-79711952D02*
X123540857Y-79750047D01*
X123540857Y-79750047D02*
X123483714Y-79788142D01*
X123483714Y-79788142D02*
X123255143Y-79788142D01*
X123940857Y-79711952D02*
X123883714Y-79673857D01*
X123883714Y-79673857D02*
X123855143Y-79635761D01*
X123855143Y-79635761D02*
X123826571Y-79559571D01*
X123826571Y-79559571D02*
X123826571Y-79521476D01*
X123826571Y-79521476D02*
X123855143Y-79445285D01*
X123855143Y-79445285D02*
X123883714Y-79407190D01*
X123883714Y-79407190D02*
X123940857Y-79369095D01*
X123940857Y-79369095D02*
X124055143Y-79369095D01*
X124055143Y-79369095D02*
X124112286Y-79407190D01*
X124112286Y-79407190D02*
X124140857Y-79445285D01*
X124140857Y-79445285D02*
X124169428Y-79521476D01*
X124169428Y-79521476D02*
X124169428Y-79559571D01*
X124169428Y-79559571D02*
X124140857Y-79635761D01*
X124140857Y-79635761D02*
X124112286Y-79673857D01*
X124112286Y-79673857D02*
X124055143Y-79711952D01*
X124055143Y-79711952D02*
X123940857Y-79711952D01*
X123940857Y-79711952D02*
X123883714Y-79750047D01*
X123883714Y-79750047D02*
X123855143Y-79788142D01*
X123855143Y-79788142D02*
X123826571Y-79864333D01*
X123826571Y-79864333D02*
X123826571Y-80016714D01*
X123826571Y-80016714D02*
X123855143Y-80092904D01*
X123855143Y-80092904D02*
X123883714Y-80131000D01*
X123883714Y-80131000D02*
X123940857Y-80169095D01*
X123940857Y-80169095D02*
X124055143Y-80169095D01*
X124055143Y-80169095D02*
X124112286Y-80131000D01*
X124112286Y-80131000D02*
X124140857Y-80092904D01*
X124140857Y-80092904D02*
X124169428Y-80016714D01*
X124169428Y-80016714D02*
X124169428Y-79864333D01*
X124169428Y-79864333D02*
X124140857Y-79788142D01*
X124140857Y-79788142D02*
X124112286Y-79750047D01*
X124112286Y-79750047D02*
X124055143Y-79711952D01*
X125584295Y-87450599D02*
X125203342Y-87650599D01*
X125584295Y-87793456D02*
X124784295Y-87793456D01*
X124784295Y-87793456D02*
X124784295Y-87564885D01*
X124784295Y-87564885D02*
X124822390Y-87507742D01*
X124822390Y-87507742D02*
X124860485Y-87479171D01*
X124860485Y-87479171D02*
X124936676Y-87450599D01*
X124936676Y-87450599D02*
X125050961Y-87450599D01*
X125050961Y-87450599D02*
X125127152Y-87479171D01*
X125127152Y-87479171D02*
X125165247Y-87507742D01*
X125165247Y-87507742D02*
X125203342Y-87564885D01*
X125203342Y-87564885D02*
X125203342Y-87793456D01*
X125584295Y-87164885D02*
X125584295Y-87050599D01*
X125584295Y-87050599D02*
X125546200Y-86993456D01*
X125546200Y-86993456D02*
X125508104Y-86964885D01*
X125508104Y-86964885D02*
X125393819Y-86907742D01*
X125393819Y-86907742D02*
X125241438Y-86879171D01*
X125241438Y-86879171D02*
X124936676Y-86879171D01*
X124936676Y-86879171D02*
X124860485Y-86907742D01*
X124860485Y-86907742D02*
X124822390Y-86936314D01*
X124822390Y-86936314D02*
X124784295Y-86993456D01*
X124784295Y-86993456D02*
X124784295Y-87107742D01*
X124784295Y-87107742D02*
X124822390Y-87164885D01*
X124822390Y-87164885D02*
X124860485Y-87193456D01*
X124860485Y-87193456D02*
X124936676Y-87222028D01*
X124936676Y-87222028D02*
X125127152Y-87222028D01*
X125127152Y-87222028D02*
X125203342Y-87193456D01*
X125203342Y-87193456D02*
X125241438Y-87164885D01*
X125241438Y-87164885D02*
X125279533Y-87107742D01*
X125279533Y-87107742D02*
X125279533Y-86993456D01*
X125279533Y-86993456D02*
X125241438Y-86936314D01*
X125241438Y-86936314D02*
X125203342Y-86907742D01*
X125203342Y-86907742D02*
X125127152Y-86879171D01*
X125762095Y-94638799D02*
X125381142Y-94838799D01*
X125762095Y-94981656D02*
X124962095Y-94981656D01*
X124962095Y-94981656D02*
X124962095Y-94753085D01*
X124962095Y-94753085D02*
X125000190Y-94695942D01*
X125000190Y-94695942D02*
X125038285Y-94667371D01*
X125038285Y-94667371D02*
X125114476Y-94638799D01*
X125114476Y-94638799D02*
X125228761Y-94638799D01*
X125228761Y-94638799D02*
X125304952Y-94667371D01*
X125304952Y-94667371D02*
X125343047Y-94695942D01*
X125343047Y-94695942D02*
X125381142Y-94753085D01*
X125381142Y-94753085D02*
X125381142Y-94981656D01*
X124962095Y-94438799D02*
X124962095Y-94067371D01*
X124962095Y-94067371D02*
X125266857Y-94267371D01*
X125266857Y-94267371D02*
X125266857Y-94181656D01*
X125266857Y-94181656D02*
X125304952Y-94124514D01*
X125304952Y-94124514D02*
X125343047Y-94095942D01*
X125343047Y-94095942D02*
X125419238Y-94067371D01*
X125419238Y-94067371D02*
X125609714Y-94067371D01*
X125609714Y-94067371D02*
X125685904Y-94095942D01*
X125685904Y-94095942D02*
X125724000Y-94124514D01*
X125724000Y-94124514D02*
X125762095Y-94181656D01*
X125762095Y-94181656D02*
X125762095Y-94353085D01*
X125762095Y-94353085D02*
X125724000Y-94410228D01*
X125724000Y-94410228D02*
X125685904Y-94438799D01*
X125965295Y-100125199D02*
X125584342Y-100325199D01*
X125965295Y-100468056D02*
X125165295Y-100468056D01*
X125165295Y-100468056D02*
X125165295Y-100239485D01*
X125165295Y-100239485D02*
X125203390Y-100182342D01*
X125203390Y-100182342D02*
X125241485Y-100153771D01*
X125241485Y-100153771D02*
X125317676Y-100125199D01*
X125317676Y-100125199D02*
X125431961Y-100125199D01*
X125431961Y-100125199D02*
X125508152Y-100153771D01*
X125508152Y-100153771D02*
X125546247Y-100182342D01*
X125546247Y-100182342D02*
X125584342Y-100239485D01*
X125584342Y-100239485D02*
X125584342Y-100468056D01*
X125241485Y-99896628D02*
X125203390Y-99868056D01*
X125203390Y-99868056D02*
X125165295Y-99810914D01*
X125165295Y-99810914D02*
X125165295Y-99668056D01*
X125165295Y-99668056D02*
X125203390Y-99610914D01*
X125203390Y-99610914D02*
X125241485Y-99582342D01*
X125241485Y-99582342D02*
X125317676Y-99553771D01*
X125317676Y-99553771D02*
X125393866Y-99553771D01*
X125393866Y-99553771D02*
X125508152Y-99582342D01*
X125508152Y-99582342D02*
X125965295Y-99925199D01*
X125965295Y-99925199D02*
X125965295Y-99553771D01*
X112745885Y-109252095D02*
X112545885Y-108871142D01*
X112403028Y-109252095D02*
X112403028Y-108452095D01*
X112403028Y-108452095D02*
X112631599Y-108452095D01*
X112631599Y-108452095D02*
X112688742Y-108490190D01*
X112688742Y-108490190D02*
X112717313Y-108528285D01*
X112717313Y-108528285D02*
X112745885Y-108604476D01*
X112745885Y-108604476D02*
X112745885Y-108718761D01*
X112745885Y-108718761D02*
X112717313Y-108794952D01*
X112717313Y-108794952D02*
X112688742Y-108833047D01*
X112688742Y-108833047D02*
X112631599Y-108871142D01*
X112631599Y-108871142D02*
X112403028Y-108871142D01*
X113317313Y-109252095D02*
X112974456Y-109252095D01*
X113145885Y-109252095D02*
X113145885Y-108452095D01*
X113145885Y-108452095D02*
X113088742Y-108566380D01*
X113088742Y-108566380D02*
X113031599Y-108642571D01*
X113031599Y-108642571D02*
X112974456Y-108680666D01*
X113517314Y-108452095D02*
X113888742Y-108452095D01*
X113888742Y-108452095D02*
X113688742Y-108756857D01*
X113688742Y-108756857D02*
X113774457Y-108756857D01*
X113774457Y-108756857D02*
X113831600Y-108794952D01*
X113831600Y-108794952D02*
X113860171Y-108833047D01*
X113860171Y-108833047D02*
X113888742Y-108909238D01*
X113888742Y-108909238D02*
X113888742Y-109099714D01*
X113888742Y-109099714D02*
X113860171Y-109175904D01*
X113860171Y-109175904D02*
X113831600Y-109214000D01*
X113831600Y-109214000D02*
X113774457Y-109252095D01*
X113774457Y-109252095D02*
X113603028Y-109252095D01*
X113603028Y-109252095D02*
X113545885Y-109214000D01*
X113545885Y-109214000D02*
X113517314Y-109175904D01*
X112934685Y-126270095D02*
X112734685Y-125889142D01*
X112591828Y-126270095D02*
X112591828Y-125470095D01*
X112591828Y-125470095D02*
X112820399Y-125470095D01*
X112820399Y-125470095D02*
X112877542Y-125508190D01*
X112877542Y-125508190D02*
X112906113Y-125546285D01*
X112906113Y-125546285D02*
X112934685Y-125622476D01*
X112934685Y-125622476D02*
X112934685Y-125736761D01*
X112934685Y-125736761D02*
X112906113Y-125812952D01*
X112906113Y-125812952D02*
X112877542Y-125851047D01*
X112877542Y-125851047D02*
X112820399Y-125889142D01*
X112820399Y-125889142D02*
X112591828Y-125889142D01*
X113506113Y-126270095D02*
X113163256Y-126270095D01*
X113334685Y-126270095D02*
X113334685Y-125470095D01*
X113334685Y-125470095D02*
X113277542Y-125584380D01*
X113277542Y-125584380D02*
X113220399Y-125660571D01*
X113220399Y-125660571D02*
X113163256Y-125698666D01*
X113877542Y-125470095D02*
X113934685Y-125470095D01*
X113934685Y-125470095D02*
X113991828Y-125508190D01*
X113991828Y-125508190D02*
X114020400Y-125546285D01*
X114020400Y-125546285D02*
X114048971Y-125622476D01*
X114048971Y-125622476D02*
X114077542Y-125774857D01*
X114077542Y-125774857D02*
X114077542Y-125965333D01*
X114077542Y-125965333D02*
X114048971Y-126117714D01*
X114048971Y-126117714D02*
X114020400Y-126193904D01*
X114020400Y-126193904D02*
X113991828Y-126232000D01*
X113991828Y-126232000D02*
X113934685Y-126270095D01*
X113934685Y-126270095D02*
X113877542Y-126270095D01*
X113877542Y-126270095D02*
X113820400Y-126232000D01*
X113820400Y-126232000D02*
X113791828Y-126193904D01*
X113791828Y-126193904D02*
X113763257Y-126117714D01*
X113763257Y-126117714D02*
X113734685Y-125965333D01*
X113734685Y-125965333D02*
X113734685Y-125774857D01*
X113734685Y-125774857D02*
X113763257Y-125622476D01*
X113763257Y-125622476D02*
X113791828Y-125546285D01*
X113791828Y-125546285D02*
X113820400Y-125508190D01*
X113820400Y-125508190D02*
X113877542Y-125470095D01*
X168168333Y-136734904D02*
X168137857Y-136773000D01*
X168137857Y-136773000D02*
X168046428Y-136811095D01*
X168046428Y-136811095D02*
X167985476Y-136811095D01*
X167985476Y-136811095D02*
X167894047Y-136773000D01*
X167894047Y-136773000D02*
X167833095Y-136696809D01*
X167833095Y-136696809D02*
X167802618Y-136620619D01*
X167802618Y-136620619D02*
X167772142Y-136468238D01*
X167772142Y-136468238D02*
X167772142Y-136353952D01*
X167772142Y-136353952D02*
X167802618Y-136201571D01*
X167802618Y-136201571D02*
X167833095Y-136125380D01*
X167833095Y-136125380D02*
X167894047Y-136049190D01*
X167894047Y-136049190D02*
X167985476Y-136011095D01*
X167985476Y-136011095D02*
X168046428Y-136011095D01*
X168046428Y-136011095D02*
X168137857Y-136049190D01*
X168137857Y-136049190D02*
X168168333Y-136087285D01*
X168777857Y-136811095D02*
X168412142Y-136811095D01*
X168594999Y-136811095D02*
X168594999Y-136011095D01*
X168594999Y-136011095D02*
X168534047Y-136125380D01*
X168534047Y-136125380D02*
X168473095Y-136201571D01*
X168473095Y-136201571D02*
X168412142Y-136239666D01*
X173996704Y-125354066D02*
X174034800Y-125384542D01*
X174034800Y-125384542D02*
X174072895Y-125475971D01*
X174072895Y-125475971D02*
X174072895Y-125536923D01*
X174072895Y-125536923D02*
X174034800Y-125628352D01*
X174034800Y-125628352D02*
X173958609Y-125689304D01*
X173958609Y-125689304D02*
X173882419Y-125719781D01*
X173882419Y-125719781D02*
X173730038Y-125750257D01*
X173730038Y-125750257D02*
X173615752Y-125750257D01*
X173615752Y-125750257D02*
X173463371Y-125719781D01*
X173463371Y-125719781D02*
X173387180Y-125689304D01*
X173387180Y-125689304D02*
X173310990Y-125628352D01*
X173310990Y-125628352D02*
X173272895Y-125536923D01*
X173272895Y-125536923D02*
X173272895Y-125475971D01*
X173272895Y-125475971D02*
X173310990Y-125384542D01*
X173310990Y-125384542D02*
X173349085Y-125354066D01*
X173615752Y-124988352D02*
X173577657Y-125049304D01*
X173577657Y-125049304D02*
X173539561Y-125079781D01*
X173539561Y-125079781D02*
X173463371Y-125110257D01*
X173463371Y-125110257D02*
X173425276Y-125110257D01*
X173425276Y-125110257D02*
X173349085Y-125079781D01*
X173349085Y-125079781D02*
X173310990Y-125049304D01*
X173310990Y-125049304D02*
X173272895Y-124988352D01*
X173272895Y-124988352D02*
X173272895Y-124866447D01*
X173272895Y-124866447D02*
X173310990Y-124805495D01*
X173310990Y-124805495D02*
X173349085Y-124775019D01*
X173349085Y-124775019D02*
X173425276Y-124744542D01*
X173425276Y-124744542D02*
X173463371Y-124744542D01*
X173463371Y-124744542D02*
X173539561Y-124775019D01*
X173539561Y-124775019D02*
X173577657Y-124805495D01*
X173577657Y-124805495D02*
X173615752Y-124866447D01*
X173615752Y-124866447D02*
X173615752Y-124988352D01*
X173615752Y-124988352D02*
X173653847Y-125049304D01*
X173653847Y-125049304D02*
X173691942Y-125079781D01*
X173691942Y-125079781D02*
X173768133Y-125110257D01*
X173768133Y-125110257D02*
X173920514Y-125110257D01*
X173920514Y-125110257D02*
X173996704Y-125079781D01*
X173996704Y-125079781D02*
X174034800Y-125049304D01*
X174034800Y-125049304D02*
X174072895Y-124988352D01*
X174072895Y-124988352D02*
X174072895Y-124866447D01*
X174072895Y-124866447D02*
X174034800Y-124805495D01*
X174034800Y-124805495D02*
X173996704Y-124775019D01*
X173996704Y-124775019D02*
X173920514Y-124744542D01*
X173920514Y-124744542D02*
X173768133Y-124744542D01*
X173768133Y-124744542D02*
X173691942Y-124775019D01*
X173691942Y-124775019D02*
X173653847Y-124805495D01*
X173653847Y-124805495D02*
X173615752Y-124866447D01*
X151238295Y-134897799D02*
X150857342Y-135097799D01*
X151238295Y-135240656D02*
X150438295Y-135240656D01*
X150438295Y-135240656D02*
X150438295Y-135012085D01*
X150438295Y-135012085D02*
X150476390Y-134954942D01*
X150476390Y-134954942D02*
X150514485Y-134926371D01*
X150514485Y-134926371D02*
X150590676Y-134897799D01*
X150590676Y-134897799D02*
X150704961Y-134897799D01*
X150704961Y-134897799D02*
X150781152Y-134926371D01*
X150781152Y-134926371D02*
X150819247Y-134954942D01*
X150819247Y-134954942D02*
X150857342Y-135012085D01*
X150857342Y-135012085D02*
X150857342Y-135240656D01*
X150704961Y-134383514D02*
X151238295Y-134383514D01*
X150400200Y-134526371D02*
X150971628Y-134669228D01*
X150971628Y-134669228D02*
X150971628Y-134297799D01*
X151289095Y-132433999D02*
X150908142Y-132633999D01*
X151289095Y-132776856D02*
X150489095Y-132776856D01*
X150489095Y-132776856D02*
X150489095Y-132548285D01*
X150489095Y-132548285D02*
X150527190Y-132491142D01*
X150527190Y-132491142D02*
X150565285Y-132462571D01*
X150565285Y-132462571D02*
X150641476Y-132433999D01*
X150641476Y-132433999D02*
X150755761Y-132433999D01*
X150755761Y-132433999D02*
X150831952Y-132462571D01*
X150831952Y-132462571D02*
X150870047Y-132491142D01*
X150870047Y-132491142D02*
X150908142Y-132548285D01*
X150908142Y-132548285D02*
X150908142Y-132776856D01*
X151289095Y-131862571D02*
X151289095Y-132205428D01*
X151289095Y-132033999D02*
X150489095Y-132033999D01*
X150489095Y-132033999D02*
X150603380Y-132091142D01*
X150603380Y-132091142D02*
X150679571Y-132148285D01*
X150679571Y-132148285D02*
X150717666Y-132205428D01*
X115487580Y-87455305D02*
X116487580Y-87455305D01*
X116487580Y-87455305D02*
X116487580Y-87693400D01*
X116487580Y-87693400D02*
X116439961Y-87836257D01*
X116439961Y-87836257D02*
X116344723Y-87931495D01*
X116344723Y-87931495D02*
X116249485Y-87979114D01*
X116249485Y-87979114D02*
X116059009Y-88026733D01*
X116059009Y-88026733D02*
X115916152Y-88026733D01*
X115916152Y-88026733D02*
X115725676Y-87979114D01*
X115725676Y-87979114D02*
X115630438Y-87931495D01*
X115630438Y-87931495D02*
X115535200Y-87836257D01*
X115535200Y-87836257D02*
X115487580Y-87693400D01*
X115487580Y-87693400D02*
X115487580Y-87455305D01*
X116487580Y-88360067D02*
X116487580Y-89026733D01*
X116487580Y-89026733D02*
X115487580Y-88598162D01*
X158889867Y-127635800D02*
X159032724Y-127683419D01*
X159032724Y-127683419D02*
X159270819Y-127683419D01*
X159270819Y-127683419D02*
X159366057Y-127635800D01*
X159366057Y-127635800D02*
X159413676Y-127588180D01*
X159413676Y-127588180D02*
X159461295Y-127492942D01*
X159461295Y-127492942D02*
X159461295Y-127397704D01*
X159461295Y-127397704D02*
X159413676Y-127302466D01*
X159413676Y-127302466D02*
X159366057Y-127254847D01*
X159366057Y-127254847D02*
X159270819Y-127207228D01*
X159270819Y-127207228D02*
X159080343Y-127159609D01*
X159080343Y-127159609D02*
X158985105Y-127111990D01*
X158985105Y-127111990D02*
X158937486Y-127064371D01*
X158937486Y-127064371D02*
X158889867Y-126969133D01*
X158889867Y-126969133D02*
X158889867Y-126873895D01*
X158889867Y-126873895D02*
X158937486Y-126778657D01*
X158937486Y-126778657D02*
X158985105Y-126731038D01*
X158985105Y-126731038D02*
X159080343Y-126683419D01*
X159080343Y-126683419D02*
X159318438Y-126683419D01*
X159318438Y-126683419D02*
X159461295Y-126731038D01*
X159794629Y-126683419D02*
X160032724Y-127683419D01*
X160032724Y-127683419D02*
X160223200Y-126969133D01*
X160223200Y-126969133D02*
X160413676Y-127683419D01*
X160413676Y-127683419D02*
X160651772Y-126683419D01*
X161556533Y-127683419D02*
X160985105Y-127683419D01*
X161270819Y-127683419D02*
X161270819Y-126683419D01*
X161270819Y-126683419D02*
X161175581Y-126826276D01*
X161175581Y-126826276D02*
X161080343Y-126921514D01*
X161080343Y-126921514D02*
X160985105Y-126969133D01*
X105518866Y-107117819D02*
X105518866Y-107832104D01*
X105518866Y-107832104D02*
X105471247Y-107974961D01*
X105471247Y-107974961D02*
X105376009Y-108070200D01*
X105376009Y-108070200D02*
X105233152Y-108117819D01*
X105233152Y-108117819D02*
X105137914Y-108117819D01*
X106423628Y-107451152D02*
X106423628Y-108117819D01*
X106185533Y-107070200D02*
X105947438Y-107784485D01*
X105947438Y-107784485D02*
X106566485Y-107784485D01*
X165343904Y-115803666D02*
X165382000Y-115834142D01*
X165382000Y-115834142D02*
X165420095Y-115925571D01*
X165420095Y-115925571D02*
X165420095Y-115986523D01*
X165420095Y-115986523D02*
X165382000Y-116077952D01*
X165382000Y-116077952D02*
X165305809Y-116138904D01*
X165305809Y-116138904D02*
X165229619Y-116169381D01*
X165229619Y-116169381D02*
X165077238Y-116199857D01*
X165077238Y-116199857D02*
X164962952Y-116199857D01*
X164962952Y-116199857D02*
X164810571Y-116169381D01*
X164810571Y-116169381D02*
X164734380Y-116138904D01*
X164734380Y-116138904D02*
X164658190Y-116077952D01*
X164658190Y-116077952D02*
X164620095Y-115986523D01*
X164620095Y-115986523D02*
X164620095Y-115925571D01*
X164620095Y-115925571D02*
X164658190Y-115834142D01*
X164658190Y-115834142D02*
X164696285Y-115803666D01*
X164620095Y-115590333D02*
X164620095Y-115163666D01*
X164620095Y-115163666D02*
X165420095Y-115437952D01*
X156929066Y-86560019D02*
X156929066Y-87274304D01*
X156929066Y-87274304D02*
X156881447Y-87417161D01*
X156881447Y-87417161D02*
X156786209Y-87512400D01*
X156786209Y-87512400D02*
X156643352Y-87560019D01*
X156643352Y-87560019D02*
X156548114Y-87560019D01*
X157929066Y-87560019D02*
X157357638Y-87560019D01*
X157643352Y-87560019D02*
X157643352Y-86560019D01*
X157643352Y-86560019D02*
X157548114Y-86702876D01*
X157548114Y-86702876D02*
X157452876Y-86798114D01*
X157452876Y-86798114D02*
X157357638Y-86845733D01*
X126692819Y-62803066D02*
X126692819Y-63279256D01*
X126692819Y-63279256D02*
X125692819Y-63279256D01*
X126692819Y-61945923D02*
X126692819Y-62517351D01*
X126692819Y-62231637D02*
X125692819Y-62231637D01*
X125692819Y-62231637D02*
X125835676Y-62326875D01*
X125835676Y-62326875D02*
X125930914Y-62422113D01*
X125930914Y-62422113D02*
X125978533Y-62517351D01*
X120838495Y-54778619D02*
X120838495Y-55588142D01*
X120838495Y-55588142D02*
X120886114Y-55683380D01*
X120886114Y-55683380D02*
X120933733Y-55731000D01*
X120933733Y-55731000D02*
X121028971Y-55778619D01*
X121028971Y-55778619D02*
X121219447Y-55778619D01*
X121219447Y-55778619D02*
X121314685Y-55731000D01*
X121314685Y-55731000D02*
X121362304Y-55683380D01*
X121362304Y-55683380D02*
X121409923Y-55588142D01*
X121409923Y-55588142D02*
X121409923Y-54778619D01*
X122409923Y-55778619D02*
X121838495Y-55778619D01*
X122124209Y-55778619D02*
X122124209Y-54778619D01*
X122124209Y-54778619D02*
X122028971Y-54921476D01*
X122028971Y-54921476D02*
X121933733Y-55016714D01*
X121933733Y-55016714D02*
X121838495Y-55064333D01*
X154783419Y-55629133D02*
X155497704Y-55629133D01*
X155497704Y-55629133D02*
X155640561Y-55676752D01*
X155640561Y-55676752D02*
X155735800Y-55771990D01*
X155735800Y-55771990D02*
X155783419Y-55914847D01*
X155783419Y-55914847D02*
X155783419Y-56010085D01*
X155211990Y-55010085D02*
X155164371Y-55105323D01*
X155164371Y-55105323D02*
X155116752Y-55152942D01*
X155116752Y-55152942D02*
X155021514Y-55200561D01*
X155021514Y-55200561D02*
X154973895Y-55200561D01*
X154973895Y-55200561D02*
X154878657Y-55152942D01*
X154878657Y-55152942D02*
X154831038Y-55105323D01*
X154831038Y-55105323D02*
X154783419Y-55010085D01*
X154783419Y-55010085D02*
X154783419Y-54819609D01*
X154783419Y-54819609D02*
X154831038Y-54724371D01*
X154831038Y-54724371D02*
X154878657Y-54676752D01*
X154878657Y-54676752D02*
X154973895Y-54629133D01*
X154973895Y-54629133D02*
X155021514Y-54629133D01*
X155021514Y-54629133D02*
X155116752Y-54676752D01*
X155116752Y-54676752D02*
X155164371Y-54724371D01*
X155164371Y-54724371D02*
X155211990Y-54819609D01*
X155211990Y-54819609D02*
X155211990Y-55010085D01*
X155211990Y-55010085D02*
X155259609Y-55105323D01*
X155259609Y-55105323D02*
X155307228Y-55152942D01*
X155307228Y-55152942D02*
X155402466Y-55200561D01*
X155402466Y-55200561D02*
X155592942Y-55200561D01*
X155592942Y-55200561D02*
X155688180Y-55152942D01*
X155688180Y-55152942D02*
X155735800Y-55105323D01*
X155735800Y-55105323D02*
X155783419Y-55010085D01*
X155783419Y-55010085D02*
X155783419Y-54819609D01*
X155783419Y-54819609D02*
X155735800Y-54724371D01*
X155735800Y-54724371D02*
X155688180Y-54676752D01*
X155688180Y-54676752D02*
X155592942Y-54629133D01*
X155592942Y-54629133D02*
X155402466Y-54629133D01*
X155402466Y-54629133D02*
X155307228Y-54676752D01*
X155307228Y-54676752D02*
X155259609Y-54724371D01*
X155259609Y-54724371D02*
X155211990Y-54819609D01*
X105761629Y-46976869D02*
X105761629Y-47692949D01*
X105761629Y-47692949D02*
X105713890Y-47836165D01*
X105713890Y-47836165D02*
X105618413Y-47931643D01*
X105618413Y-47931643D02*
X105475197Y-47979381D01*
X105475197Y-47979381D02*
X105379720Y-47979381D01*
X106191277Y-47072347D02*
X106239016Y-47024608D01*
X106239016Y-47024608D02*
X106334493Y-46976869D01*
X106334493Y-46976869D02*
X106573187Y-46976869D01*
X106573187Y-46976869D02*
X106668664Y-47024608D01*
X106668664Y-47024608D02*
X106716403Y-47072347D01*
X106716403Y-47072347D02*
X106764141Y-47167824D01*
X106764141Y-47167824D02*
X106764141Y-47263301D01*
X106764141Y-47263301D02*
X106716403Y-47406517D01*
X106716403Y-47406517D02*
X106143539Y-47979381D01*
X106143539Y-47979381D02*
X106764141Y-47979381D01*
X100657133Y-70915304D02*
X100626657Y-70953400D01*
X100626657Y-70953400D02*
X100535228Y-70991495D01*
X100535228Y-70991495D02*
X100474276Y-70991495D01*
X100474276Y-70991495D02*
X100382847Y-70953400D01*
X100382847Y-70953400D02*
X100321895Y-70877209D01*
X100321895Y-70877209D02*
X100291418Y-70801019D01*
X100291418Y-70801019D02*
X100260942Y-70648638D01*
X100260942Y-70648638D02*
X100260942Y-70534352D01*
X100260942Y-70534352D02*
X100291418Y-70381971D01*
X100291418Y-70381971D02*
X100321895Y-70305780D01*
X100321895Y-70305780D02*
X100382847Y-70229590D01*
X100382847Y-70229590D02*
X100474276Y-70191495D01*
X100474276Y-70191495D02*
X100535228Y-70191495D01*
X100535228Y-70191495D02*
X100626657Y-70229590D01*
X100626657Y-70229590D02*
X100657133Y-70267685D01*
X100900942Y-70267685D02*
X100931418Y-70229590D01*
X100931418Y-70229590D02*
X100992371Y-70191495D01*
X100992371Y-70191495D02*
X101144752Y-70191495D01*
X101144752Y-70191495D02*
X101205704Y-70229590D01*
X101205704Y-70229590D02*
X101236180Y-70267685D01*
X101236180Y-70267685D02*
X101266657Y-70343876D01*
X101266657Y-70343876D02*
X101266657Y-70420066D01*
X101266657Y-70420066D02*
X101236180Y-70534352D01*
X101236180Y-70534352D02*
X100870466Y-70991495D01*
X100870466Y-70991495D02*
X101266657Y-70991495D01*
X105071666Y-109292019D02*
X105071666Y-110006304D01*
X105071666Y-110006304D02*
X105024047Y-110149161D01*
X105024047Y-110149161D02*
X104928809Y-110244400D01*
X104928809Y-110244400D02*
X104785952Y-110292019D01*
X104785952Y-110292019D02*
X104690714Y-110292019D01*
X105452619Y-109292019D02*
X106119285Y-109292019D01*
X106119285Y-109292019D02*
X105690714Y-110292019D01*
X179600266Y-117056819D02*
X179600266Y-117771104D01*
X179600266Y-117771104D02*
X179552647Y-117913961D01*
X179552647Y-117913961D02*
X179457409Y-118009200D01*
X179457409Y-118009200D02*
X179314552Y-118056819D01*
X179314552Y-118056819D02*
X179219314Y-118056819D01*
X180505028Y-117056819D02*
X180314552Y-117056819D01*
X180314552Y-117056819D02*
X180219314Y-117104438D01*
X180219314Y-117104438D02*
X180171695Y-117152057D01*
X180171695Y-117152057D02*
X180076457Y-117294914D01*
X180076457Y-117294914D02*
X180028838Y-117485390D01*
X180028838Y-117485390D02*
X180028838Y-117866342D01*
X180028838Y-117866342D02*
X180076457Y-117961580D01*
X180076457Y-117961580D02*
X180124076Y-118009200D01*
X180124076Y-118009200D02*
X180219314Y-118056819D01*
X180219314Y-118056819D02*
X180409790Y-118056819D01*
X180409790Y-118056819D02*
X180505028Y-118009200D01*
X180505028Y-118009200D02*
X180552647Y-117961580D01*
X180552647Y-117961580D02*
X180600266Y-117866342D01*
X180600266Y-117866342D02*
X180600266Y-117628247D01*
X180600266Y-117628247D02*
X180552647Y-117533009D01*
X180552647Y-117533009D02*
X180505028Y-117485390D01*
X180505028Y-117485390D02*
X180409790Y-117437771D01*
X180409790Y-117437771D02*
X180219314Y-117437771D01*
X180219314Y-117437771D02*
X180124076Y-117485390D01*
X180124076Y-117485390D02*
X180076457Y-117533009D01*
X180076457Y-117533009D02*
X180028838Y-117628247D01*
X105508466Y-69584219D02*
X105508466Y-70298504D01*
X105508466Y-70298504D02*
X105460847Y-70441361D01*
X105460847Y-70441361D02*
X105365609Y-70536600D01*
X105365609Y-70536600D02*
X105222752Y-70584219D01*
X105222752Y-70584219D02*
X105127514Y-70584219D01*
X105889419Y-69584219D02*
X106508466Y-69584219D01*
X106508466Y-69584219D02*
X106175133Y-69965171D01*
X106175133Y-69965171D02*
X106317990Y-69965171D01*
X106317990Y-69965171D02*
X106413228Y-70012790D01*
X106413228Y-70012790D02*
X106460847Y-70060409D01*
X106460847Y-70060409D02*
X106508466Y-70155647D01*
X106508466Y-70155647D02*
X106508466Y-70393742D01*
X106508466Y-70393742D02*
X106460847Y-70488980D01*
X106460847Y-70488980D02*
X106413228Y-70536600D01*
X106413228Y-70536600D02*
X106317990Y-70584219D01*
X106317990Y-70584219D02*
X106032276Y-70584219D01*
X106032276Y-70584219D02*
X105937038Y-70536600D01*
X105937038Y-70536600D02*
X105889419Y-70488980D01*
X115436780Y-95608705D02*
X116436780Y-95608705D01*
X116436780Y-95608705D02*
X116436780Y-95846800D01*
X116436780Y-95846800D02*
X116389161Y-95989657D01*
X116389161Y-95989657D02*
X116293923Y-96084895D01*
X116293923Y-96084895D02*
X116198685Y-96132514D01*
X116198685Y-96132514D02*
X116008209Y-96180133D01*
X116008209Y-96180133D02*
X115865352Y-96180133D01*
X115865352Y-96180133D02*
X115674876Y-96132514D01*
X115674876Y-96132514D02*
X115579638Y-96084895D01*
X115579638Y-96084895D02*
X115484400Y-95989657D01*
X115484400Y-95989657D02*
X115436780Y-95846800D01*
X115436780Y-95846800D02*
X115436780Y-95608705D01*
X116436780Y-96513467D02*
X116436780Y-97132514D01*
X116436780Y-97132514D02*
X116055828Y-96799181D01*
X116055828Y-96799181D02*
X116055828Y-96942038D01*
X116055828Y-96942038D02*
X116008209Y-97037276D01*
X116008209Y-97037276D02*
X115960590Y-97084895D01*
X115960590Y-97084895D02*
X115865352Y-97132514D01*
X115865352Y-97132514D02*
X115627257Y-97132514D01*
X115627257Y-97132514D02*
X115532019Y-97084895D01*
X115532019Y-97084895D02*
X115484400Y-97037276D01*
X115484400Y-97037276D02*
X115436780Y-96942038D01*
X115436780Y-96942038D02*
X115436780Y-96656324D01*
X115436780Y-96656324D02*
X115484400Y-96561086D01*
X115484400Y-96561086D02*
X115532019Y-96513467D01*
X126710104Y-52254866D02*
X126748200Y-52285342D01*
X126748200Y-52285342D02*
X126786295Y-52376771D01*
X126786295Y-52376771D02*
X126786295Y-52437723D01*
X126786295Y-52437723D02*
X126748200Y-52529152D01*
X126748200Y-52529152D02*
X126672009Y-52590104D01*
X126672009Y-52590104D02*
X126595819Y-52620581D01*
X126595819Y-52620581D02*
X126443438Y-52651057D01*
X126443438Y-52651057D02*
X126329152Y-52651057D01*
X126329152Y-52651057D02*
X126176771Y-52620581D01*
X126176771Y-52620581D02*
X126100580Y-52590104D01*
X126100580Y-52590104D02*
X126024390Y-52529152D01*
X126024390Y-52529152D02*
X125986295Y-52437723D01*
X125986295Y-52437723D02*
X125986295Y-52376771D01*
X125986295Y-52376771D02*
X126024390Y-52285342D01*
X126024390Y-52285342D02*
X126062485Y-52254866D01*
X125986295Y-51675819D02*
X125986295Y-51980581D01*
X125986295Y-51980581D02*
X126367247Y-52011057D01*
X126367247Y-52011057D02*
X126329152Y-51980581D01*
X126329152Y-51980581D02*
X126291057Y-51919628D01*
X126291057Y-51919628D02*
X126291057Y-51767247D01*
X126291057Y-51767247D02*
X126329152Y-51706295D01*
X126329152Y-51706295D02*
X126367247Y-51675819D01*
X126367247Y-51675819D02*
X126443438Y-51645342D01*
X126443438Y-51645342D02*
X126633914Y-51645342D01*
X126633914Y-51645342D02*
X126710104Y-51675819D01*
X126710104Y-51675819D02*
X126748200Y-51706295D01*
X126748200Y-51706295D02*
X126786295Y-51767247D01*
X126786295Y-51767247D02*
X126786295Y-51919628D01*
X126786295Y-51919628D02*
X126748200Y-51980581D01*
X126748200Y-51980581D02*
X126710104Y-52011057D01*
X110615505Y-49654619D02*
X110615505Y-48654619D01*
X110615505Y-48654619D02*
X110853600Y-48654619D01*
X110853600Y-48654619D02*
X110996457Y-48702238D01*
X110996457Y-48702238D02*
X111091695Y-48797476D01*
X111091695Y-48797476D02*
X111139314Y-48892714D01*
X111139314Y-48892714D02*
X111186933Y-49083190D01*
X111186933Y-49083190D02*
X111186933Y-49226047D01*
X111186933Y-49226047D02*
X111139314Y-49416523D01*
X111139314Y-49416523D02*
X111091695Y-49511761D01*
X111091695Y-49511761D02*
X110996457Y-49607000D01*
X110996457Y-49607000D02*
X110853600Y-49654619D01*
X110853600Y-49654619D02*
X110615505Y-49654619D01*
X112044076Y-48987952D02*
X112044076Y-49654619D01*
X111805981Y-48607000D02*
X111567886Y-49321285D01*
X111567886Y-49321285D02*
X112186933Y-49321285D01*
X171141019Y-55735733D02*
X171855304Y-55735733D01*
X171855304Y-55735733D02*
X171998161Y-55783352D01*
X171998161Y-55783352D02*
X172093400Y-55878590D01*
X172093400Y-55878590D02*
X172141019Y-56021447D01*
X172141019Y-56021447D02*
X172141019Y-56116685D01*
X172141019Y-55211923D02*
X172141019Y-55021447D01*
X172141019Y-55021447D02*
X172093400Y-54926209D01*
X172093400Y-54926209D02*
X172045780Y-54878590D01*
X172045780Y-54878590D02*
X171902923Y-54783352D01*
X171902923Y-54783352D02*
X171712447Y-54735733D01*
X171712447Y-54735733D02*
X171331495Y-54735733D01*
X171331495Y-54735733D02*
X171236257Y-54783352D01*
X171236257Y-54783352D02*
X171188638Y-54830971D01*
X171188638Y-54830971D02*
X171141019Y-54926209D01*
X171141019Y-54926209D02*
X171141019Y-55116685D01*
X171141019Y-55116685D02*
X171188638Y-55211923D01*
X171188638Y-55211923D02*
X171236257Y-55259542D01*
X171236257Y-55259542D02*
X171331495Y-55307161D01*
X171331495Y-55307161D02*
X171569590Y-55307161D01*
X171569590Y-55307161D02*
X171664828Y-55259542D01*
X171664828Y-55259542D02*
X171712447Y-55211923D01*
X171712447Y-55211923D02*
X171760066Y-55116685D01*
X171760066Y-55116685D02*
X171760066Y-54926209D01*
X171760066Y-54926209D02*
X171712447Y-54830971D01*
X171712447Y-54830971D02*
X171664828Y-54783352D01*
X171664828Y-54783352D02*
X171569590Y-54735733D01*
X180008304Y-125174266D02*
X180046400Y-125204742D01*
X180046400Y-125204742D02*
X180084495Y-125296171D01*
X180084495Y-125296171D02*
X180084495Y-125357123D01*
X180084495Y-125357123D02*
X180046400Y-125448552D01*
X180046400Y-125448552D02*
X179970209Y-125509504D01*
X179970209Y-125509504D02*
X179894019Y-125539981D01*
X179894019Y-125539981D02*
X179741638Y-125570457D01*
X179741638Y-125570457D02*
X179627352Y-125570457D01*
X179627352Y-125570457D02*
X179474971Y-125539981D01*
X179474971Y-125539981D02*
X179398780Y-125509504D01*
X179398780Y-125509504D02*
X179322590Y-125448552D01*
X179322590Y-125448552D02*
X179284495Y-125357123D01*
X179284495Y-125357123D02*
X179284495Y-125296171D01*
X179284495Y-125296171D02*
X179322590Y-125204742D01*
X179322590Y-125204742D02*
X179360685Y-125174266D01*
X180084495Y-124869504D02*
X180084495Y-124747600D01*
X180084495Y-124747600D02*
X180046400Y-124686647D01*
X180046400Y-124686647D02*
X180008304Y-124656171D01*
X180008304Y-124656171D02*
X179894019Y-124595219D01*
X179894019Y-124595219D02*
X179741638Y-124564742D01*
X179741638Y-124564742D02*
X179436876Y-124564742D01*
X179436876Y-124564742D02*
X179360685Y-124595219D01*
X179360685Y-124595219D02*
X179322590Y-124625695D01*
X179322590Y-124625695D02*
X179284495Y-124686647D01*
X179284495Y-124686647D02*
X179284495Y-124808552D01*
X179284495Y-124808552D02*
X179322590Y-124869504D01*
X179322590Y-124869504D02*
X179360685Y-124899981D01*
X179360685Y-124899981D02*
X179436876Y-124930457D01*
X179436876Y-124930457D02*
X179627352Y-124930457D01*
X179627352Y-124930457D02*
X179703542Y-124899981D01*
X179703542Y-124899981D02*
X179741638Y-124869504D01*
X179741638Y-124869504D02*
X179779733Y-124808552D01*
X179779733Y-124808552D02*
X179779733Y-124686647D01*
X179779733Y-124686647D02*
X179741638Y-124625695D01*
X179741638Y-124625695D02*
X179703542Y-124595219D01*
X179703542Y-124595219D02*
X179627352Y-124564742D01*
X131629504Y-51694066D02*
X131667600Y-51724542D01*
X131667600Y-51724542D02*
X131705695Y-51815971D01*
X131705695Y-51815971D02*
X131705695Y-51876923D01*
X131705695Y-51876923D02*
X131667600Y-51968352D01*
X131667600Y-51968352D02*
X131591409Y-52029304D01*
X131591409Y-52029304D02*
X131515219Y-52059781D01*
X131515219Y-52059781D02*
X131362838Y-52090257D01*
X131362838Y-52090257D02*
X131248552Y-52090257D01*
X131248552Y-52090257D02*
X131096171Y-52059781D01*
X131096171Y-52059781D02*
X131019980Y-52029304D01*
X131019980Y-52029304D02*
X130943790Y-51968352D01*
X130943790Y-51968352D02*
X130905695Y-51876923D01*
X130905695Y-51876923D02*
X130905695Y-51815971D01*
X130905695Y-51815971D02*
X130943790Y-51724542D01*
X130943790Y-51724542D02*
X130981885Y-51694066D01*
X130905695Y-51145495D02*
X130905695Y-51267400D01*
X130905695Y-51267400D02*
X130943790Y-51328352D01*
X130943790Y-51328352D02*
X130981885Y-51358828D01*
X130981885Y-51358828D02*
X131096171Y-51419781D01*
X131096171Y-51419781D02*
X131248552Y-51450257D01*
X131248552Y-51450257D02*
X131553314Y-51450257D01*
X131553314Y-51450257D02*
X131629504Y-51419781D01*
X131629504Y-51419781D02*
X131667600Y-51389304D01*
X131667600Y-51389304D02*
X131705695Y-51328352D01*
X131705695Y-51328352D02*
X131705695Y-51206447D01*
X131705695Y-51206447D02*
X131667600Y-51145495D01*
X131667600Y-51145495D02*
X131629504Y-51115019D01*
X131629504Y-51115019D02*
X131553314Y-51084542D01*
X131553314Y-51084542D02*
X131362838Y-51084542D01*
X131362838Y-51084542D02*
X131286647Y-51115019D01*
X131286647Y-51115019D02*
X131248552Y-51145495D01*
X131248552Y-51145495D02*
X131210457Y-51206447D01*
X131210457Y-51206447D02*
X131210457Y-51328352D01*
X131210457Y-51328352D02*
X131248552Y-51389304D01*
X131248552Y-51389304D02*
X131286647Y-51419781D01*
X131286647Y-51419781D02*
X131362838Y-51450257D01*
X105000466Y-125319419D02*
X105000466Y-126033704D01*
X105000466Y-126033704D02*
X104952847Y-126176561D01*
X104952847Y-126176561D02*
X104857609Y-126271800D01*
X104857609Y-126271800D02*
X104714752Y-126319419D01*
X104714752Y-126319419D02*
X104619514Y-126319419D01*
X105952847Y-125319419D02*
X105476657Y-125319419D01*
X105476657Y-125319419D02*
X105429038Y-125795609D01*
X105429038Y-125795609D02*
X105476657Y-125747990D01*
X105476657Y-125747990D02*
X105571895Y-125700371D01*
X105571895Y-125700371D02*
X105809990Y-125700371D01*
X105809990Y-125700371D02*
X105905228Y-125747990D01*
X105905228Y-125747990D02*
X105952847Y-125795609D01*
X105952847Y-125795609D02*
X106000466Y-125890847D01*
X106000466Y-125890847D02*
X106000466Y-126128942D01*
X106000466Y-126128942D02*
X105952847Y-126224180D01*
X105952847Y-126224180D02*
X105905228Y-126271800D01*
X105905228Y-126271800D02*
X105809990Y-126319419D01*
X105809990Y-126319419D02*
X105571895Y-126319419D01*
X105571895Y-126319419D02*
X105476657Y-126271800D01*
X105476657Y-126271800D02*
X105429038Y-126224180D01*
X115436780Y-99723505D02*
X116436780Y-99723505D01*
X116436780Y-99723505D02*
X116436780Y-99961600D01*
X116436780Y-99961600D02*
X116389161Y-100104457D01*
X116389161Y-100104457D02*
X116293923Y-100199695D01*
X116293923Y-100199695D02*
X116198685Y-100247314D01*
X116198685Y-100247314D02*
X116008209Y-100294933D01*
X116008209Y-100294933D02*
X115865352Y-100294933D01*
X115865352Y-100294933D02*
X115674876Y-100247314D01*
X115674876Y-100247314D02*
X115579638Y-100199695D01*
X115579638Y-100199695D02*
X115484400Y-100104457D01*
X115484400Y-100104457D02*
X115436780Y-99961600D01*
X115436780Y-99961600D02*
X115436780Y-99723505D01*
X116341542Y-100675886D02*
X116389161Y-100723505D01*
X116389161Y-100723505D02*
X116436780Y-100818743D01*
X116436780Y-100818743D02*
X116436780Y-101056838D01*
X116436780Y-101056838D02*
X116389161Y-101152076D01*
X116389161Y-101152076D02*
X116341542Y-101199695D01*
X116341542Y-101199695D02*
X116246304Y-101247314D01*
X116246304Y-101247314D02*
X116151066Y-101247314D01*
X116151066Y-101247314D02*
X116008209Y-101199695D01*
X116008209Y-101199695D02*
X115436780Y-100628267D01*
X115436780Y-100628267D02*
X115436780Y-101247314D01*
X163345905Y-78966219D02*
X163345905Y-77966219D01*
X163345905Y-77966219D02*
X163584000Y-77966219D01*
X163584000Y-77966219D02*
X163726857Y-78013838D01*
X163726857Y-78013838D02*
X163822095Y-78109076D01*
X163822095Y-78109076D02*
X163869714Y-78204314D01*
X163869714Y-78204314D02*
X163917333Y-78394790D01*
X163917333Y-78394790D02*
X163917333Y-78537647D01*
X163917333Y-78537647D02*
X163869714Y-78728123D01*
X163869714Y-78728123D02*
X163822095Y-78823361D01*
X163822095Y-78823361D02*
X163726857Y-78918600D01*
X163726857Y-78918600D02*
X163584000Y-78966219D01*
X163584000Y-78966219D02*
X163345905Y-78966219D01*
X164869714Y-78966219D02*
X164298286Y-78966219D01*
X164584000Y-78966219D02*
X164584000Y-77966219D01*
X164584000Y-77966219D02*
X164488762Y-78109076D01*
X164488762Y-78109076D02*
X164393524Y-78204314D01*
X164393524Y-78204314D02*
X164298286Y-78251933D01*
X107953216Y-59087609D02*
X107619883Y-59087609D01*
X107619883Y-59611419D02*
X107619883Y-58611419D01*
X107619883Y-58611419D02*
X108096073Y-58611419D01*
X109000835Y-59611419D02*
X108429407Y-59611419D01*
X108715121Y-59611419D02*
X108715121Y-58611419D01*
X108715121Y-58611419D02*
X108619883Y-58754276D01*
X108619883Y-58754276D02*
X108524645Y-58849514D01*
X108524645Y-58849514D02*
X108429407Y-58897133D01*
X139144500Y-83797567D02*
X139096880Y-83940424D01*
X139096880Y-83940424D02*
X139096880Y-84178519D01*
X139096880Y-84178519D02*
X139144500Y-84273757D01*
X139144500Y-84273757D02*
X139192119Y-84321376D01*
X139192119Y-84321376D02*
X139287357Y-84368995D01*
X139287357Y-84368995D02*
X139382595Y-84368995D01*
X139382595Y-84368995D02*
X139477833Y-84321376D01*
X139477833Y-84321376D02*
X139525452Y-84273757D01*
X139525452Y-84273757D02*
X139573071Y-84178519D01*
X139573071Y-84178519D02*
X139620690Y-83988043D01*
X139620690Y-83988043D02*
X139668309Y-83892805D01*
X139668309Y-83892805D02*
X139715928Y-83845186D01*
X139715928Y-83845186D02*
X139811166Y-83797567D01*
X139811166Y-83797567D02*
X139906404Y-83797567D01*
X139906404Y-83797567D02*
X140001642Y-83845186D01*
X140001642Y-83845186D02*
X140049261Y-83892805D01*
X140049261Y-83892805D02*
X140096880Y-83988043D01*
X140096880Y-83988043D02*
X140096880Y-84226138D01*
X140096880Y-84226138D02*
X140049261Y-84368995D01*
X140096880Y-84702329D02*
X139096880Y-84940424D01*
X139096880Y-84940424D02*
X139811166Y-85130900D01*
X139811166Y-85130900D02*
X139096880Y-85321376D01*
X139096880Y-85321376D02*
X140096880Y-85559472D01*
X140001642Y-85892805D02*
X140049261Y-85940424D01*
X140049261Y-85940424D02*
X140096880Y-86035662D01*
X140096880Y-86035662D02*
X140096880Y-86273757D01*
X140096880Y-86273757D02*
X140049261Y-86368995D01*
X140049261Y-86368995D02*
X140001642Y-86416614D01*
X140001642Y-86416614D02*
X139906404Y-86464233D01*
X139906404Y-86464233D02*
X139811166Y-86464233D01*
X139811166Y-86464233D02*
X139668309Y-86416614D01*
X139668309Y-86416614D02*
X139096880Y-85845186D01*
X139096880Y-85845186D02*
X139096880Y-86464233D01*
X138580905Y-49197419D02*
X138580905Y-48197419D01*
X138580905Y-48197419D02*
X138819000Y-48197419D01*
X138819000Y-48197419D02*
X138961857Y-48245038D01*
X138961857Y-48245038D02*
X139057095Y-48340276D01*
X139057095Y-48340276D02*
X139104714Y-48435514D01*
X139104714Y-48435514D02*
X139152333Y-48625990D01*
X139152333Y-48625990D02*
X139152333Y-48768847D01*
X139152333Y-48768847D02*
X139104714Y-48959323D01*
X139104714Y-48959323D02*
X139057095Y-49054561D01*
X139057095Y-49054561D02*
X138961857Y-49149800D01*
X138961857Y-49149800D02*
X138819000Y-49197419D01*
X138819000Y-49197419D02*
X138580905Y-49197419D01*
X140057095Y-48197419D02*
X139580905Y-48197419D01*
X139580905Y-48197419D02*
X139533286Y-48673609D01*
X139533286Y-48673609D02*
X139580905Y-48625990D01*
X139580905Y-48625990D02*
X139676143Y-48578371D01*
X139676143Y-48578371D02*
X139914238Y-48578371D01*
X139914238Y-48578371D02*
X140009476Y-48625990D01*
X140009476Y-48625990D02*
X140057095Y-48673609D01*
X140057095Y-48673609D02*
X140104714Y-48768847D01*
X140104714Y-48768847D02*
X140104714Y-49006942D01*
X140104714Y-49006942D02*
X140057095Y-49102180D01*
X140057095Y-49102180D02*
X140009476Y-49149800D01*
X140009476Y-49149800D02*
X139914238Y-49197419D01*
X139914238Y-49197419D02*
X139676143Y-49197419D01*
X139676143Y-49197419D02*
X139580905Y-49149800D01*
X139580905Y-49149800D02*
X139533286Y-49102180D01*
X103220805Y-92685819D02*
X103220805Y-91685819D01*
X103220805Y-91685819D02*
X103458900Y-91685819D01*
X103458900Y-91685819D02*
X103601757Y-91733438D01*
X103601757Y-91733438D02*
X103696995Y-91828676D01*
X103696995Y-91828676D02*
X103744614Y-91923914D01*
X103744614Y-91923914D02*
X103792233Y-92114390D01*
X103792233Y-92114390D02*
X103792233Y-92257247D01*
X103792233Y-92257247D02*
X103744614Y-92447723D01*
X103744614Y-92447723D02*
X103696995Y-92542961D01*
X103696995Y-92542961D02*
X103601757Y-92638200D01*
X103601757Y-92638200D02*
X103458900Y-92685819D01*
X103458900Y-92685819D02*
X103220805Y-92685819D01*
X104363662Y-92114390D02*
X104268424Y-92066771D01*
X104268424Y-92066771D02*
X104220805Y-92019152D01*
X104220805Y-92019152D02*
X104173186Y-91923914D01*
X104173186Y-91923914D02*
X104173186Y-91876295D01*
X104173186Y-91876295D02*
X104220805Y-91781057D01*
X104220805Y-91781057D02*
X104268424Y-91733438D01*
X104268424Y-91733438D02*
X104363662Y-91685819D01*
X104363662Y-91685819D02*
X104554138Y-91685819D01*
X104554138Y-91685819D02*
X104649376Y-91733438D01*
X104649376Y-91733438D02*
X104696995Y-91781057D01*
X104696995Y-91781057D02*
X104744614Y-91876295D01*
X104744614Y-91876295D02*
X104744614Y-91923914D01*
X104744614Y-91923914D02*
X104696995Y-92019152D01*
X104696995Y-92019152D02*
X104649376Y-92066771D01*
X104649376Y-92066771D02*
X104554138Y-92114390D01*
X104554138Y-92114390D02*
X104363662Y-92114390D01*
X104363662Y-92114390D02*
X104268424Y-92162009D01*
X104268424Y-92162009D02*
X104220805Y-92209628D01*
X104220805Y-92209628D02*
X104173186Y-92304866D01*
X104173186Y-92304866D02*
X104173186Y-92495342D01*
X104173186Y-92495342D02*
X104220805Y-92590580D01*
X104220805Y-92590580D02*
X104268424Y-92638200D01*
X104268424Y-92638200D02*
X104363662Y-92685819D01*
X104363662Y-92685819D02*
X104554138Y-92685819D01*
X104554138Y-92685819D02*
X104649376Y-92638200D01*
X104649376Y-92638200D02*
X104696995Y-92590580D01*
X104696995Y-92590580D02*
X104744614Y-92495342D01*
X104744614Y-92495342D02*
X104744614Y-92304866D01*
X104744614Y-92304866D02*
X104696995Y-92209628D01*
X104696995Y-92209628D02*
X104649376Y-92162009D01*
X104649376Y-92162009D02*
X104554138Y-92114390D01*
X115538380Y-83137305D02*
X116538380Y-83137305D01*
X116538380Y-83137305D02*
X116538380Y-83375400D01*
X116538380Y-83375400D02*
X116490761Y-83518257D01*
X116490761Y-83518257D02*
X116395523Y-83613495D01*
X116395523Y-83613495D02*
X116300285Y-83661114D01*
X116300285Y-83661114D02*
X116109809Y-83708733D01*
X116109809Y-83708733D02*
X115966952Y-83708733D01*
X115966952Y-83708733D02*
X115776476Y-83661114D01*
X115776476Y-83661114D02*
X115681238Y-83613495D01*
X115681238Y-83613495D02*
X115586000Y-83518257D01*
X115586000Y-83518257D02*
X115538380Y-83375400D01*
X115538380Y-83375400D02*
X115538380Y-83137305D01*
X116538380Y-84565876D02*
X116538380Y-84375400D01*
X116538380Y-84375400D02*
X116490761Y-84280162D01*
X116490761Y-84280162D02*
X116443142Y-84232543D01*
X116443142Y-84232543D02*
X116300285Y-84137305D01*
X116300285Y-84137305D02*
X116109809Y-84089686D01*
X116109809Y-84089686D02*
X115728857Y-84089686D01*
X115728857Y-84089686D02*
X115633619Y-84137305D01*
X115633619Y-84137305D02*
X115586000Y-84184924D01*
X115586000Y-84184924D02*
X115538380Y-84280162D01*
X115538380Y-84280162D02*
X115538380Y-84470638D01*
X115538380Y-84470638D02*
X115586000Y-84565876D01*
X115586000Y-84565876D02*
X115633619Y-84613495D01*
X115633619Y-84613495D02*
X115728857Y-84661114D01*
X115728857Y-84661114D02*
X115966952Y-84661114D01*
X115966952Y-84661114D02*
X116062190Y-84613495D01*
X116062190Y-84613495D02*
X116109809Y-84565876D01*
X116109809Y-84565876D02*
X116157428Y-84470638D01*
X116157428Y-84470638D02*
X116157428Y-84280162D01*
X116157428Y-84280162D02*
X116109809Y-84184924D01*
X116109809Y-84184924D02*
X116062190Y-84137305D01*
X116062190Y-84137305D02*
X115966952Y-84089686D01*
D11*
%TO.C,U2*%
X157297600Y-122577400D02*
X139297600Y-122577400D01*
X157297600Y-115897400D02*
X157297600Y-122577400D01*
X157297600Y-97767400D02*
X157297600Y-97077400D01*
X157297600Y-97077400D02*
X156197600Y-97077400D01*
X139297600Y-122577400D02*
X139297600Y-115897400D01*
X139297600Y-97727400D02*
X139297600Y-97077400D01*
X139297600Y-97077400D02*
X140397600Y-97077400D01*
D12*
X158597600Y-115087400D02*
G75*
G02*
X158397600Y-115087400I-100000J0D01*
G01*
X158397600Y-115087400D02*
G75*
G02*
X158597600Y-115087400I100000J0D01*
G01*
D11*
%TO.C,R11*%
X178121000Y-88480400D02*
X178741000Y-88480400D01*
X178121000Y-93240400D02*
X178741000Y-93240400D01*
%TO.C,R12*%
X170780400Y-88429600D02*
X171400400Y-88429600D01*
X170780400Y-93189600D02*
X171400400Y-93189600D01*
%TO.C,R7*%
X138005800Y-55148600D02*
X138005800Y-54528600D01*
X142765800Y-55148600D02*
X142765800Y-54528600D01*
%TO.C,C4*%
X118577800Y-49035400D02*
X123077800Y-49035400D01*
X118577800Y-52615400D02*
X123077800Y-52615400D01*
%TO.C,C3*%
X135794600Y-74464000D02*
X131294600Y-74464000D01*
X135794600Y-70884000D02*
X131294600Y-70884000D01*
%TO.C,R5*%
X136435000Y-76136000D02*
X137055000Y-76136000D01*
X136435000Y-80896000D02*
X137055000Y-80896000D01*
%TO.C,R6*%
X130974000Y-76136000D02*
X131594000Y-76136000D01*
X130974000Y-80896000D02*
X131594000Y-80896000D01*
%TO.C,R8*%
X122678600Y-85442600D02*
X122058600Y-85442600D01*
X122678600Y-80682600D02*
X122058600Y-80682600D01*
%TO.C,R9*%
X122627800Y-91513200D02*
X122007800Y-91513200D01*
X122627800Y-86753200D02*
X122007800Y-86753200D01*
%TO.C,R3*%
X122805600Y-97634600D02*
X122185600Y-97634600D01*
X122805600Y-92874600D02*
X122185600Y-92874600D01*
%TO.C,R2*%
X122907200Y-103756000D02*
X122287200Y-103756000D01*
X122907200Y-98996000D02*
X122287200Y-98996000D01*
%TO.C,R13*%
X113822600Y-109964200D02*
X114442600Y-109964200D01*
X113822600Y-114724200D02*
X114442600Y-114724200D01*
%TO.C,R10*%
X114000400Y-126829800D02*
X114620400Y-126829800D01*
X114000400Y-131589800D02*
X114620400Y-131589800D01*
%TO.C,C1*%
X168617200Y-130312600D02*
X168617200Y-134812600D01*
X165037200Y-130312600D02*
X165037200Y-134812600D01*
%TO.C,C8*%
X172909800Y-123911800D02*
X172909800Y-128411800D01*
X169329800Y-123911800D02*
X169329800Y-128411800D01*
%TO.C,R4*%
X151721800Y-136377800D02*
X151721800Y-135757800D01*
X156481800Y-136377800D02*
X156481800Y-135757800D01*
%TO.C,R1*%
X151721800Y-130993000D02*
X151721800Y-130373000D01*
X156481800Y-130993000D02*
X156481800Y-130373000D01*
D13*
%TO.C,D7*%
X116971100Y-87915853D02*
X116971100Y-88445547D01*
X118571300Y-88445547D02*
X118571300Y-87915853D01*
%TO.C,SW1*%
X157251400Y-129997200D02*
X157251400Y-136652000D01*
X159361563Y-136652000D02*
X161796037Y-136652000D01*
X161796037Y-129997200D02*
X159361563Y-129997200D01*
X163906200Y-136652000D02*
X163906200Y-129997200D01*
X163032001Y-127685601D02*
G75*
G02*
X162625601Y-127685601I-203200J0D01*
G01*
X162625601Y-127685601D02*
G75*
G02*
X163032001Y-127685601I203200J0D01*
G01*
D14*
%TO.C,J4*%
X104472200Y-104013000D02*
X104472200Y-101363000D01*
X107232200Y-101363000D02*
X104472200Y-101363000D01*
X107232200Y-104013000D02*
X104472200Y-104013000D01*
X107232200Y-104013000D02*
X107232200Y-101363000D01*
X107232200Y-105283000D02*
X107232200Y-106663000D01*
X107232200Y-106663000D02*
X105852200Y-106663000D01*
D15*
%TO.C,C7*%
X160951400Y-114804200D02*
X160951400Y-117564200D01*
X164151400Y-114804200D02*
X164151400Y-117564200D01*
D12*
%TO.C,J1*%
X156920000Y-88262800D02*
X164860000Y-88262800D01*
X156920000Y-88452800D02*
X156920000Y-88262800D01*
X156920000Y-91162800D02*
X156920000Y-90972800D01*
X156920000Y-91162800D02*
X159390000Y-91162800D01*
X162390000Y-91162800D02*
X164860000Y-91162800D01*
X164860000Y-88452800D02*
X164860000Y-88262800D01*
X164860000Y-91162800D02*
X164860000Y-90972800D01*
X159490000Y-87712800D02*
G75*
G02*
X159290000Y-87712800I-100000J0D01*
G01*
X159290000Y-87712800D02*
G75*
G02*
X159490000Y-87712800I100000J0D01*
G01*
D13*
%TO.C,L1*%
X124409200Y-56146700D02*
X124409200Y-61302900D01*
X124409200Y-61302900D02*
X124901960Y-61302900D01*
X124901960Y-56146700D02*
X124409200Y-56146700D01*
X127370840Y-61302900D02*
X127863600Y-61302900D01*
X127863600Y-56146700D02*
X127370840Y-56146700D01*
X127863600Y-61302900D02*
X127863600Y-56146700D01*
D15*
%TO.C,U1*%
X120430400Y-56258800D02*
X120920400Y-56258800D01*
X120430400Y-59158800D02*
X120920400Y-59158800D01*
D12*
X118475400Y-56758800D02*
G75*
G02*
X118275400Y-56758800I-100000J0D01*
G01*
X118275400Y-56758800D02*
G75*
G02*
X118475400Y-56758800I100000J0D01*
G01*
D14*
%TO.C,J8*%
X156328600Y-52645800D02*
X166708600Y-52645800D01*
X156328600Y-55295800D02*
X156328600Y-52645800D01*
X156328600Y-57945800D02*
X156328600Y-56565800D01*
X157708600Y-57945800D02*
X156328600Y-57945800D01*
X158978600Y-55295800D02*
X156328600Y-55295800D01*
X158978600Y-57945800D02*
X158978600Y-55295800D01*
X158978600Y-57945800D02*
X166708600Y-57945800D01*
X166708600Y-57945800D02*
X166708600Y-52645800D01*
D15*
%TO.C,J2*%
X94646200Y-46907200D02*
X94646200Y-56007200D01*
X94646200Y-46907200D02*
X104896200Y-46907200D01*
X94646200Y-59357200D02*
X94646200Y-61757200D01*
X94646200Y-61757200D02*
X98651200Y-61757200D01*
X104896200Y-46907200D02*
X104896200Y-61757200D01*
X104896200Y-61757200D02*
X102146200Y-61757200D01*
%TO.C,C2*%
X101125800Y-66522800D02*
X98365800Y-66522800D01*
X101125800Y-69722800D02*
X98365800Y-69722800D01*
D14*
%TO.C,J7*%
X102755000Y-110837200D02*
X104135000Y-110837200D01*
X102755000Y-112217200D02*
X102755000Y-110837200D01*
X102755000Y-113487200D02*
X102755000Y-121217200D01*
X102755000Y-113487200D02*
X105405000Y-113487200D01*
X102755000Y-121217200D02*
X108055000Y-121217200D01*
X105405000Y-110837200D02*
X108055000Y-110837200D01*
X105405000Y-113487200D02*
X105405000Y-110837200D01*
X108055000Y-110837200D02*
X108055000Y-121217200D01*
%TO.C,J6*%
X173270400Y-118931200D02*
X173270400Y-95851200D01*
X175920400Y-116281200D02*
X175920400Y-118931200D01*
X175920400Y-118931200D02*
X173270400Y-118931200D01*
X178570400Y-95851200D02*
X173270400Y-95851200D01*
X178570400Y-116281200D02*
X175920400Y-116281200D01*
X178570400Y-116281200D02*
X178570400Y-95851200D01*
X178570400Y-117551200D02*
X178570400Y-118931200D01*
X178570400Y-118931200D02*
X177190400Y-118931200D01*
%TO.C,J3*%
X107466000Y-66957200D02*
X108856000Y-66957200D01*
X108856000Y-66387200D02*
X108856000Y-66957200D01*
X108856000Y-66387200D02*
X114156000Y-66387200D01*
X108856000Y-68577200D02*
X108856000Y-69147200D01*
X108856000Y-69147200D02*
X114156000Y-69147200D01*
X114156000Y-66387200D02*
X114156000Y-66957200D01*
X114156000Y-68577200D02*
X114156000Y-69147200D01*
D13*
%TO.C,D3*%
X116894900Y-96056553D02*
X116894900Y-96586247D01*
X118495100Y-96586247D02*
X118495100Y-96056553D01*
D15*
%TO.C,C5*%
X127330400Y-52510200D02*
X127330400Y-49750200D01*
X130530400Y-52510200D02*
X130530400Y-49750200D01*
%TO.C,D4*%
X107846800Y-57661600D02*
X114721800Y-57661600D01*
X114721800Y-51761600D02*
X107846800Y-51761600D01*
D12*
X116584300Y-54711600D02*
G75*
G02*
X116384300Y-54711600I-100000J0D01*
G01*
X116384300Y-54711600D02*
G75*
G02*
X116584300Y-54711600I100000J0D01*
G01*
D14*
%TO.C,J9*%
X172686200Y-52752400D02*
X183066200Y-52752400D01*
X172686200Y-55402400D02*
X172686200Y-52752400D01*
X172686200Y-58052400D02*
X172686200Y-56672400D01*
X174066200Y-58052400D02*
X172686200Y-58052400D01*
X175336200Y-55402400D02*
X172686200Y-55402400D01*
X175336200Y-58052400D02*
X175336200Y-55402400D01*
X175336200Y-58052400D02*
X183066200Y-58052400D01*
X183066200Y-58052400D02*
X183066200Y-52752400D01*
D15*
%TO.C,C9*%
X175615800Y-124705600D02*
X175615800Y-127465600D01*
X178815800Y-124705600D02*
X178815800Y-127465600D01*
%TO.C,C6*%
X132080400Y-52510200D02*
X132080400Y-49750200D01*
X135280400Y-52510200D02*
X135280400Y-49750200D01*
D14*
%TO.C,J5*%
X102683800Y-126864600D02*
X104063800Y-126864600D01*
X102683800Y-128244600D02*
X102683800Y-126864600D01*
X102683800Y-129514600D02*
X102683800Y-137244600D01*
X102683800Y-129514600D02*
X105333800Y-129514600D01*
X102683800Y-137244600D02*
X107983800Y-137244600D01*
X105333800Y-126864600D02*
X107983800Y-126864600D01*
X105333800Y-129514600D02*
X105333800Y-126864600D01*
X107983800Y-126864600D02*
X107983800Y-137244600D01*
D13*
%TO.C,D2*%
X116894900Y-100171353D02*
X116894900Y-100701047D01*
X118495100Y-100701047D02*
X118495100Y-100171353D01*
D15*
%TO.C,D1*%
X157326000Y-85601600D02*
X164201000Y-85601600D01*
X164201000Y-79701600D02*
X157326000Y-79701600D01*
D12*
X166063500Y-82651600D02*
G75*
G02*
X165863500Y-82651600I-100000J0D01*
G01*
X165863500Y-82651600D02*
G75*
G02*
X166063500Y-82651600I100000J0D01*
G01*
D13*
%TO.C,F1*%
X106824950Y-62306200D02*
X106824950Y-63068200D01*
X107205950Y-62687200D02*
X106443950Y-62687200D01*
X108273850Y-60045600D02*
X108273850Y-60449460D01*
X108273850Y-64924940D02*
X108273850Y-65328800D01*
X108273850Y-65328800D02*
X118256050Y-65328800D01*
X118256050Y-60045600D02*
X108273850Y-60045600D01*
X118256050Y-60449460D02*
X118256050Y-60045600D01*
X118256050Y-65328800D02*
X118256050Y-64924940D01*
%TO.C,SW2*%
X130433100Y-84066063D02*
X130433100Y-86500537D01*
X130433100Y-88610700D02*
X137087900Y-88610700D01*
X137087900Y-81955900D02*
X130433100Y-81955900D01*
X137087900Y-86500537D02*
X137087900Y-84066063D01*
X139602699Y-87533301D02*
G75*
G02*
X139196299Y-87533301I-203200J0D01*
G01*
X139196299Y-87533301D02*
G75*
G02*
X139602699Y-87533301I203200J0D01*
G01*
%TO.C,D5*%
X138990653Y-51422300D02*
X139520347Y-51422300D01*
X139520347Y-49822100D02*
X138990653Y-49822100D01*
D15*
%TO.C,D8*%
X102016400Y-99216000D02*
X108891400Y-99216000D01*
X108891400Y-93316000D02*
X102016400Y-93316000D01*
D12*
X100353900Y-96266000D02*
G75*
G02*
X100153900Y-96266000I-100000J0D01*
G01*
X100153900Y-96266000D02*
G75*
G02*
X100353900Y-96266000I100000J0D01*
G01*
D13*
%TO.C,D6*%
X116971100Y-83585153D02*
X116971100Y-84114847D01*
X118571300Y-84114847D02*
X118571300Y-83585153D01*
%TD*%
M02*
