M48
; DRILL file {KiCad 9.0.4} date 2026-03-03T09:08:53-0700
; FORMAT={-:-/ absolute / metric / decimal}
; #@! TF.CreationDate,2026-03-03T09:08:53-07:00
; #@! TF.GenerationSoftware,Kicad,Pcbnew,9.0.4
; #@! TF.FileFunction,Plated,1,2,PTH
FMAT,2
METRIC
; #@! TA.AperFunction,Plated,PTH,ViaDrill
T1C0.300
; #@! TA.AperFunction,Plated,PTH,ComponentDrill
T2C0.300
; #@! TA.AperFunction,Plated,PTH,ComponentDrill
T3C0.400
; #@! TA.AperFunction,Plated,PTH,ComponentDrill
T4C0.450
; #@! TA.AperFunction,Plated,PTH,ComponentDrill
T5C1.000
%
G90
G05
T1
X95.91Y-131.14
X101.371Y-124.003
X119.101Y-125.73
X123.546Y-56.515
X123.749Y-53.696
X127.508Y-127.305
X135.585Y-69.164
X138.227Y-65.684
X138.506Y-58.877
X143.586Y-74.397
X144.856Y-77.851
X155.702Y-126.111
X159.08Y-116.611
X159.156Y-112.903
X159.741Y-103.657
X160.122Y-114.808
X161.62Y-67.818
X165.608Y-77.876
X167.64Y-97.693
X167.869Y-80.061
X170.993Y-98.222
X174.854Y-94.259
T2
X148.398Y-106.667
X148.398Y-108.067
X149.098Y-105.967
X149.098Y-107.367
X149.098Y-108.767
X149.798Y-106.667
X149.798Y-108.067
X150.498Y-105.967
X150.498Y-107.367
X150.498Y-108.767
X151.198Y-106.667
X151.198Y-108.067
T4
X159.59Y-89.493
X160.24Y-90.493
X160.89Y-89.493
X161.54Y-90.493
X162.19Y-89.493
T5
X104.064Y-128.245
X104.064Y-130.785
X104.064Y-133.325
X104.064Y-135.865
X104.135Y-112.217
X104.135Y-114.757
X104.135Y-117.297
X104.135Y-119.837
X105.852Y-102.743
X105.852Y-105.283
X106.604Y-128.245
X106.604Y-130.785
X106.604Y-133.325
X106.604Y-135.865
X106.675Y-112.217
X106.675Y-114.757
X106.675Y-117.297
X106.675Y-119.837
X157.709Y-54.026
X157.709Y-56.566
X160.249Y-54.026
X160.249Y-56.566
X162.789Y-54.026
X162.789Y-56.566
X165.329Y-54.026
X165.329Y-56.566
X174.066Y-54.132
X174.066Y-56.672
X174.65Y-97.231
X174.65Y-99.771
X174.65Y-102.311
X174.65Y-104.851
X174.65Y-107.391
X174.65Y-109.931
X174.65Y-112.471
X174.65Y-115.011
X174.65Y-117.551
X176.606Y-54.132
X176.606Y-56.672
X177.19Y-97.231
X177.19Y-99.771
X177.19Y-102.311
X177.19Y-104.851
X177.19Y-107.391
X177.19Y-109.931
X177.19Y-112.471
X177.19Y-115.011
X177.19Y-117.551
X179.146Y-54.132
X179.146Y-56.672
X181.686Y-54.132
X181.686Y-56.672
T3
G00X157.315Y-89.213
M15
G01X157.315Y-90.213
M16
G05
G00X164.465Y-89.213
M15
G01X164.465Y-90.213
M16
G05
T5
G00X95.696Y-57.307
M15
G01X95.696Y-57.907
M16
G05
G00X100.096Y-54.607
M15
G01X100.696Y-54.607
M16
G05
G00X100.096Y-60.607
M15
G01X100.696Y-60.607
M16
G05
M30
