%TF.GenerationSoftware,KiCad,Pcbnew,9.0.4*%
%TF.CreationDate,2026-03-03T09:08:47-07:00*%
%TF.ProjectId,Patel_EGR314,50617465-6c5f-4454-9752-3331342e6b69,rev?*%
%TF.SameCoordinates,Original*%
%TF.FileFunction,Copper,L2,Bot*%
%TF.FilePolarity,Positive*%
%FSLAX46Y46*%
G04 Gerber Fmt 4.6, Leading zero omitted, Abs format (unit mm)*
G04 Created by KiCad (PCBNEW 9.0.4) date 2026-03-03 09:08:47*
%MOMM*%
%LPD*%
G01*
G04 APERTURE LIST*
%TA.AperFunction,ComponentPad*%
%ADD10C,0.600000*%
%TD*%
%TA.AperFunction,ComponentPad*%
%ADD11R,1.700000X1.700000*%
%TD*%
%TA.AperFunction,ComponentPad*%
%ADD12C,1.700000*%
%TD*%
%TA.AperFunction,ComponentPad*%
%ADD13C,0.958000*%
%TD*%
%TA.AperFunction,ComponentPad*%
%ADD14O,0.908000X1.816000*%
%TD*%
%TA.AperFunction,ComponentPad*%
%ADD15O,3.016000X1.508000*%
%TD*%
%TA.AperFunction,ComponentPad*%
%ADD16O,1.508000X3.016000*%
%TD*%
%TA.AperFunction,ViaPad*%
%ADD17C,0.700000*%
%TD*%
%TA.AperFunction,Conductor*%
%ADD18C,0.200000*%
%TD*%
%TA.AperFunction,Conductor*%
%ADD19C,0.500000*%
%TD*%
%TA.AperFunction,Conductor*%
%ADD20C,0.250000*%
%TD*%
G04 APERTURE END LIST*
D10*
%TO.P,U2,41_10,GND*%
%TO.N,GNDREF*%
X149797600Y-108067400D03*
%TO.P,U2,41_11,GND*%
X151197600Y-108067400D03*
%TO.P,U2,41_12,GND*%
X148397600Y-108067400D03*
%TO.P,U2,41_13,GND*%
X151197600Y-106667400D03*
%TO.P,U2,41_14,GND*%
X149797600Y-106667400D03*
%TO.P,U2,41_15,GND*%
X148397600Y-106667400D03*
%TO.P,U2,41_16,GND*%
X150497600Y-108767400D03*
%TO.P,U2,41_17,GND*%
X149097600Y-108767400D03*
%TO.P,U2,41_18,GND*%
X150497600Y-107367400D03*
%TO.P,U2,41_19,GND*%
X149097600Y-107367400D03*
%TO.P,U2,41_20,GND*%
X150497600Y-105967400D03*
%TO.P,U2,41_21,GND*%
X149097600Y-105967400D03*
%TD*%
D11*
%TO.P,J4,1,Pin_1*%
%TO.N,Net-(J4-Pin_1)*%
X105852200Y-105283000D03*
D12*
%TO.P,J4,2,Pin_2*%
%TO.N,Net-(J4-Pin_2)*%
X105852200Y-102743000D03*
%TD*%
D13*
%TO.P,J1,1,VCC*%
%TO.N,unconnected-(J1-VCC-Pad1)*%
X159590000Y-89492800D03*
%TO.P,J1,2,D-*%
%TO.N,/USB_N*%
X160240000Y-90492800D03*
%TO.P,J1,3,D+*%
%TO.N,/USB_P*%
X160890000Y-89492800D03*
%TO.P,J1,4,ID*%
%TO.N,unconnected-(J1-ID-Pad4)*%
X161540000Y-90492800D03*
%TO.P,J1,5,GND*%
%TO.N,GNDREF*%
X162190000Y-89492800D03*
D14*
%TO.P,J1,S1,SHIELD*%
X157315000Y-89712800D03*
%TO.P,J1,S2,SHIELD*%
X164465000Y-89712800D03*
%TD*%
D11*
%TO.P,J8,1,Pin_1*%
%TO.N,unconnected-(J8-Pin_1-Pad1)*%
X157708600Y-56565800D03*
D12*
%TO.P,J8,2,Pin_2*%
%TO.N,unconnected-(J8-Pin_2-Pad2)*%
X157708600Y-54025800D03*
%TO.P,J8,3,Pin_3*%
%TO.N,unconnected-(J8-Pin_3-Pad3)*%
X160248600Y-56565800D03*
%TO.P,J8,4,Pin_4*%
%TO.N,unconnected-(J8-Pin_4-Pad4)*%
X160248600Y-54025800D03*
%TO.P,J8,5,Pin_5*%
%TO.N,unconnected-(J8-Pin_5-Pad5)*%
X162788600Y-56565800D03*
%TO.P,J8,6,Pin_6*%
%TO.N,unconnected-(J8-Pin_6-Pad6)*%
X162788600Y-54025800D03*
%TO.P,J8,7,Pin_7*%
%TO.N,unconnected-(J8-Pin_7-Pad7)*%
X165328600Y-56565800D03*
%TO.P,J8,8,Pin_8*%
%TO.N,unconnected-(J8-Pin_8-Pad8)*%
X165328600Y-54025800D03*
%TD*%
D15*
%TO.P,J2,1*%
%TO.N,/+12V from Battery*%
X100396200Y-60607200D03*
%TO.P,J2,2*%
%TO.N,GNDREF*%
X100396200Y-54607200D03*
D16*
%TO.P,J2,3*%
%TO.N,unconnected-(J2-Pad3)*%
X95696200Y-57607200D03*
%TD*%
D11*
%TO.P,J7,1,Pin_1*%
%TO.N,Net-(J4-Pin_2)*%
X104135000Y-112217200D03*
D12*
%TO.P,J7,2,Pin_2*%
%TO.N,/TX*%
X106675000Y-112217200D03*
%TO.P,J7,3,Pin_3*%
%TO.N,unconnected-(J7-Pin_3-Pad3)*%
X104135000Y-114757200D03*
%TO.P,J7,4,Pin_4*%
%TO.N,unconnected-(J7-Pin_4-Pad4)*%
X106675000Y-114757200D03*
%TO.P,J7,5,Pin_5*%
%TO.N,unconnected-(J7-Pin_5-Pad5)*%
X104135000Y-117297200D03*
%TO.P,J7,6,Pin_6*%
%TO.N,unconnected-(J7-Pin_6-Pad6)*%
X106675000Y-117297200D03*
%TO.P,J7,7,Pin_7*%
%TO.N,unconnected-(J7-Pin_7-Pad7)*%
X104135000Y-119837200D03*
%TO.P,J7,8,Pin_8*%
%TO.N,GNDREF*%
X106675000Y-119837200D03*
%TD*%
D11*
%TO.P,J6,1,Pin_1*%
%TO.N,+3.3V*%
X177190400Y-117551200D03*
D12*
%TO.P,J6,2,Pin_2*%
%TO.N,GNDREF*%
X174650400Y-117551200D03*
%TO.P,J6,3,Pin_3*%
%TO.N,/SCL*%
X177190400Y-115011200D03*
%TO.P,J6,4,Pin_4*%
%TO.N,/SDA*%
X174650400Y-115011200D03*
%TO.P,J6,5,Pin_5*%
%TO.N,/VSYNC*%
X177190400Y-112471200D03*
%TO.P,J6,6,Pin_6*%
%TO.N,/HREF*%
X174650400Y-112471200D03*
%TO.P,J6,7,Pin_7*%
%TO.N,/PCLK*%
X177190400Y-109931200D03*
%TO.P,J6,8,Pin_8*%
%TO.N,unconnected-(J6-Pin_8-Pad8)*%
X174650400Y-109931200D03*
%TO.P,J6,9,Pin_9*%
%TO.N,/D9*%
X177190400Y-107391200D03*
%TO.P,J6,10,Pin_10*%
%TO.N,/D8*%
X174650400Y-107391200D03*
%TO.P,J6,11,Pin_11*%
%TO.N,/D7*%
X177190400Y-104851200D03*
%TO.P,J6,12,Pin_12*%
%TO.N,/D6*%
X174650400Y-104851200D03*
%TO.P,J6,13,Pin_13*%
%TO.N,/D5*%
X177190400Y-102311200D03*
%TO.P,J6,14,Pin_14*%
%TO.N,/D4*%
X174650400Y-102311200D03*
%TO.P,J6,15,Pin_15*%
%TO.N,/D3*%
X177190400Y-99771200D03*
%TO.P,J6,16,Pin_16*%
%TO.N,/D2*%
X174650400Y-99771200D03*
%TO.P,J6,17,Pin_17*%
%TO.N,/RESET*%
X177190400Y-97231200D03*
%TO.P,J6,18,Pin_18*%
%TO.N,/PWDN*%
X174650400Y-97231200D03*
%TD*%
D11*
%TO.P,J9,1,Pin_1*%
%TO.N,unconnected-(J9-Pin_1-Pad1)*%
X174066200Y-56672400D03*
D12*
%TO.P,J9,2,Pin_2*%
%TO.N,unconnected-(J9-Pin_2-Pad2)*%
X174066200Y-54132400D03*
%TO.P,J9,3,Pin_3*%
%TO.N,unconnected-(J9-Pin_3-Pad3)*%
X176606200Y-56672400D03*
%TO.P,J9,4,Pin_4*%
%TO.N,unconnected-(J9-Pin_4-Pad4)*%
X176606200Y-54132400D03*
%TO.P,J9,5,Pin_5*%
%TO.N,unconnected-(J9-Pin_5-Pad5)*%
X179146200Y-56672400D03*
%TO.P,J9,6,Pin_6*%
%TO.N,unconnected-(J9-Pin_6-Pad6)*%
X179146200Y-54132400D03*
%TO.P,J9,7,Pin_7*%
%TO.N,unconnected-(J9-Pin_7-Pad7)*%
X181686200Y-56672400D03*
%TO.P,J9,8,Pin_8*%
%TO.N,unconnected-(J9-Pin_8-Pad8)*%
X181686200Y-54132400D03*
%TD*%
D11*
%TO.P,J5,1,Pin_1*%
%TO.N,Net-(J4-Pin_2)*%
X104063800Y-128244600D03*
D12*
%TO.P,J5,2,Pin_2*%
%TO.N,/RX*%
X106603800Y-128244600D03*
%TO.P,J5,3,Pin_3*%
%TO.N,unconnected-(J5-Pin_3-Pad3)*%
X104063800Y-130784600D03*
%TO.P,J5,4,Pin_4*%
%TO.N,unconnected-(J5-Pin_4-Pad4)*%
X106603800Y-130784600D03*
%TO.P,J5,5,Pin_5*%
%TO.N,unconnected-(J5-Pin_5-Pad5)*%
X104063800Y-133324600D03*
%TO.P,J5,6,Pin_6*%
%TO.N,unconnected-(J5-Pin_6-Pad6)*%
X106603800Y-133324600D03*
%TO.P,J5,7,Pin_7*%
%TO.N,unconnected-(J5-Pin_7-Pad7)*%
X104063800Y-135864600D03*
%TO.P,J5,8,Pin_8*%
%TO.N,GNDREF*%
X106603800Y-135864600D03*
%TD*%
D17*
%TO.N,GNDREF*%
X101371400Y-124002800D03*
X135585200Y-69164200D03*
X95910400Y-131140200D03*
X138226800Y-65684400D03*
%TO.N,/ENABLE*%
X159080200Y-116611400D03*
X159156400Y-112903000D03*
%TO.N,Net-(U1-SW)*%
X123545600Y-56515000D03*
X123748800Y-53695600D03*
%TO.N,+3.3V*%
X138506200Y-58877200D03*
X155702000Y-126111000D03*
X119100600Y-125730000D03*
X127508000Y-127304800D03*
X143586200Y-74396600D03*
X144856200Y-77851000D03*
X165608000Y-77876400D03*
X160121600Y-114808000D03*
%TO.N,/PWDN*%
X167640000Y-97693000D03*
X159740600Y-103657400D03*
%TO.N,/RESET*%
X170992800Y-98221800D03*
X174853600Y-94259400D03*
%TO.N,Net-(J3-Pin_2)*%
X167868600Y-80060800D03*
X161620200Y-67818000D03*
%TD*%
D18*
%TO.N,GNDREF*%
X164465000Y-89712800D02*
X162410000Y-89712800D01*
X162410000Y-89712800D02*
X162190000Y-89492800D01*
D19*
X95910400Y-131140200D02*
X95910400Y-129463800D01*
D20*
X135585200Y-68326000D02*
X138226800Y-65684400D01*
D18*
X158315000Y-88712800D02*
X161410000Y-88712800D01*
X157315000Y-89712800D02*
X158315000Y-88712800D01*
X161410000Y-88712800D02*
X162190000Y-89492800D01*
D19*
X95910400Y-129463800D02*
X101371400Y-124002800D01*
D20*
X135585200Y-69164200D02*
X135585200Y-68326000D01*
D18*
%TO.N,/ENABLE*%
X159156400Y-116535200D02*
X159080200Y-116611400D01*
D20*
X159156400Y-112903000D02*
X159156400Y-116535200D01*
D18*
%TO.N,Net-(U1-SW)*%
X123748800Y-53695600D02*
X123545600Y-53898800D01*
D19*
X123545600Y-53898800D02*
X123545600Y-56515000D01*
D20*
%TO.N,+3.3V*%
X159969200Y-121843800D02*
X155702000Y-126111000D01*
D19*
X138506200Y-60401200D02*
X142087600Y-63982600D01*
X165608000Y-77876400D02*
X144881600Y-77876400D01*
X138506200Y-58877200D02*
X138506200Y-60401200D01*
X125933200Y-125730000D02*
X127508000Y-127304800D01*
D18*
X144881600Y-77876400D02*
X144856200Y-77851000D01*
D20*
X160121600Y-114808000D02*
X159969200Y-114960400D01*
D19*
X142087600Y-63982600D02*
X142087600Y-72898000D01*
X119100600Y-125730000D02*
X125933200Y-125730000D01*
X142087600Y-72898000D02*
X143586200Y-74396600D01*
D20*
X159969200Y-114960400D02*
X159969200Y-121843800D01*
%TO.N,/PWDN*%
X167640000Y-97693000D02*
X167457600Y-97693000D01*
X161493200Y-103657400D02*
X159740600Y-103657400D01*
X167457600Y-97693000D02*
X161493200Y-103657400D01*
%TO.N,/RESET*%
X174802800Y-94310200D02*
X174853600Y-94259400D01*
X170992800Y-98221800D02*
X170992800Y-96418400D01*
X170992800Y-96418400D02*
X173101000Y-94310200D01*
X173101000Y-94310200D02*
X174802800Y-94310200D01*
D18*
%TO.N,Net-(J3-Pin_2)*%
X161620200Y-67818000D02*
X164846000Y-67818000D01*
X164846000Y-67818000D02*
X167005000Y-69977000D01*
X167005000Y-69977000D02*
X167005000Y-79197200D01*
X167005000Y-79197200D02*
X167868600Y-80060800D01*
%TD*%
%TA.AperFunction,Conductor*%
%TO.N,GNDREF*%
G36*
X105405244Y-133978599D02*
G01*
X105444286Y-134023656D01*
X105448751Y-134032420D01*
X105573690Y-134204386D01*
X105724013Y-134354709D01*
X105895979Y-134479648D01*
X105895981Y-134479649D01*
X105895984Y-134479651D01*
X105905293Y-134484394D01*
X105956090Y-134532366D01*
X105972887Y-134600187D01*
X105950352Y-134666322D01*
X105905305Y-134705360D01*
X105896246Y-134709976D01*
X105896240Y-134709980D01*
X105842082Y-134749327D01*
X105842082Y-134749328D01*
X106474391Y-135381637D01*
X106410807Y-135398675D01*
X106296793Y-135464501D01*
X106203701Y-135557593D01*
X106137875Y-135671607D01*
X106120837Y-135735191D01*
X105488528Y-135102882D01*
X105488527Y-135102882D01*
X105449180Y-135157040D01*
X105449176Y-135157046D01*
X105444560Y-135166105D01*
X105396581Y-135216897D01*
X105328759Y-135233687D01*
X105262626Y-135211143D01*
X105223594Y-135166093D01*
X105218851Y-135156784D01*
X105218849Y-135156781D01*
X105218848Y-135156779D01*
X105093909Y-134984813D01*
X104943586Y-134834490D01*
X104771620Y-134709551D01*
X104763400Y-134705363D01*
X104762854Y-134705085D01*
X104712059Y-134657112D01*
X104695263Y-134589292D01*
X104717799Y-134523156D01*
X104762854Y-134484115D01*
X104771616Y-134479651D01*
X104793589Y-134463686D01*
X104943586Y-134354709D01*
X104943588Y-134354706D01*
X104943592Y-134354704D01*
X105093904Y-134204392D01*
X105093906Y-134204388D01*
X105093909Y-134204386D01*
X105218848Y-134032420D01*
X105218847Y-134032420D01*
X105218851Y-134032416D01*
X105223314Y-134023654D01*
X105271288Y-133972859D01*
X105339108Y-133956063D01*
X105405244Y-133978599D01*
G37*
%TD.AperFunction*%
%TA.AperFunction,Conductor*%
G36*
X105476444Y-117951199D02*
G01*
X105515486Y-117996256D01*
X105519951Y-118005020D01*
X105644890Y-118176986D01*
X105795213Y-118327309D01*
X105967179Y-118452248D01*
X105967181Y-118452249D01*
X105967184Y-118452251D01*
X105976493Y-118456994D01*
X106027290Y-118504966D01*
X106044087Y-118572787D01*
X106021552Y-118638922D01*
X105976505Y-118677960D01*
X105967446Y-118682576D01*
X105967440Y-118682580D01*
X105913282Y-118721927D01*
X105913282Y-118721928D01*
X106545591Y-119354237D01*
X106482007Y-119371275D01*
X106367993Y-119437101D01*
X106274901Y-119530193D01*
X106209075Y-119644207D01*
X106192037Y-119707791D01*
X105559728Y-119075482D01*
X105559727Y-119075482D01*
X105520380Y-119129640D01*
X105520376Y-119129646D01*
X105515760Y-119138705D01*
X105467781Y-119189497D01*
X105399959Y-119206287D01*
X105333826Y-119183743D01*
X105294794Y-119138693D01*
X105290051Y-119129384D01*
X105290049Y-119129381D01*
X105290048Y-119129379D01*
X105165109Y-118957413D01*
X105014786Y-118807090D01*
X104842820Y-118682151D01*
X104834600Y-118677963D01*
X104834054Y-118677685D01*
X104783259Y-118629712D01*
X104766463Y-118561892D01*
X104788999Y-118495756D01*
X104834054Y-118456715D01*
X104842816Y-118452251D01*
X104982414Y-118350828D01*
X105014786Y-118327309D01*
X105014788Y-118327306D01*
X105014792Y-118327304D01*
X105165104Y-118176992D01*
X105165106Y-118176988D01*
X105165109Y-118176986D01*
X105290048Y-118005020D01*
X105290047Y-118005020D01*
X105290051Y-118005016D01*
X105294514Y-117996254D01*
X105342488Y-117945459D01*
X105410308Y-117928663D01*
X105476444Y-117951199D01*
G37*
%TD.AperFunction*%
%TA.AperFunction,Conductor*%
G36*
X175991844Y-115665199D02*
G01*
X176030886Y-115710256D01*
X176035351Y-115719020D01*
X176160290Y-115890986D01*
X176273830Y-116004526D01*
X176307315Y-116065849D01*
X176302331Y-116135541D01*
X176260459Y-116191474D01*
X176229483Y-116208389D01*
X176098069Y-116257403D01*
X176098064Y-116257406D01*
X175982855Y-116343652D01*
X175982852Y-116343655D01*
X175896606Y-116458864D01*
X175896602Y-116458871D01*
X175846308Y-116593717D01*
X175840989Y-116643198D01*
X175839901Y-116653323D01*
X175839900Y-116653335D01*
X175839900Y-116663890D01*
X175820215Y-116730929D01*
X175803581Y-116751571D01*
X175133362Y-117421790D01*
X175116325Y-117358207D01*
X175050499Y-117244193D01*
X174957407Y-117151101D01*
X174843393Y-117085275D01*
X174779809Y-117068237D01*
X175412116Y-116435928D01*
X175357947Y-116396573D01*
X175357947Y-116396572D01*
X175348900Y-116391963D01*
X175298106Y-116343988D01*
X175281312Y-116276166D01*
X175303851Y-116210032D01*
X175348908Y-116170993D01*
X175358216Y-116166251D01*
X175491744Y-116069238D01*
X175530186Y-116041309D01*
X175530188Y-116041306D01*
X175530192Y-116041304D01*
X175680504Y-115890992D01*
X175680506Y-115890988D01*
X175680509Y-115890986D01*
X175805448Y-115719020D01*
X175805447Y-115719020D01*
X175805451Y-115719016D01*
X175809914Y-115710254D01*
X175857888Y-115659459D01*
X175925708Y-115642663D01*
X175991844Y-115665199D01*
G37*
%TD.AperFunction*%
%TA.AperFunction,Conductor*%
G36*
X192000139Y-46290985D02*
G01*
X192045894Y-46343789D01*
X192057100Y-46395300D01*
X192057100Y-145146300D01*
X192037415Y-145213339D01*
X191984611Y-145259094D01*
X191933100Y-145270300D01*
X93182100Y-145270300D01*
X93115061Y-145250615D01*
X93069306Y-145197811D01*
X93058100Y-145146300D01*
X93058100Y-127346735D01*
X102713300Y-127346735D01*
X102713300Y-129142470D01*
X102713301Y-129142476D01*
X102719708Y-129202083D01*
X102770002Y-129336928D01*
X102770006Y-129336935D01*
X102856252Y-129452144D01*
X102856255Y-129452147D01*
X102971464Y-129538393D01*
X102971471Y-129538397D01*
X103102882Y-129587410D01*
X103158816Y-129629281D01*
X103183233Y-129694745D01*
X103168382Y-129763018D01*
X103147231Y-129791273D01*
X103033689Y-129904815D01*
X102908751Y-130076779D01*
X102812244Y-130266185D01*
X102746553Y-130468360D01*
X102713300Y-130678313D01*
X102713300Y-130890886D01*
X102746553Y-131100839D01*
X102812244Y-131303014D01*
X102908751Y-131492420D01*
X103033690Y-131664386D01*
X103184013Y-131814709D01*
X103355982Y-131939650D01*
X103364746Y-131944116D01*
X103415542Y-131992091D01*
X103432336Y-132059912D01*
X103409798Y-132126047D01*
X103364746Y-132165084D01*
X103355982Y-132169549D01*
X103184013Y-132294490D01*
X103033690Y-132444813D01*
X102908751Y-132616779D01*
X102812244Y-132806185D01*
X102746553Y-133008360D01*
X102713300Y-133218313D01*
X102713300Y-133430886D01*
X102746553Y-133640839D01*
X102812244Y-133843014D01*
X102908751Y-134032420D01*
X103033690Y-134204386D01*
X103184013Y-134354709D01*
X103355982Y-134479650D01*
X103364746Y-134484116D01*
X103415542Y-134532091D01*
X103432336Y-134599912D01*
X103409798Y-134666047D01*
X103364746Y-134705084D01*
X103355982Y-134709549D01*
X103184013Y-134834490D01*
X103033690Y-134984813D01*
X102908751Y-135156779D01*
X102812244Y-135346185D01*
X102746553Y-135548360D01*
X102713300Y-135758313D01*
X102713300Y-135970886D01*
X102746553Y-136180839D01*
X102812244Y-136383014D01*
X102908751Y-136572420D01*
X103033690Y-136744386D01*
X103184013Y-136894709D01*
X103355979Y-137019648D01*
X103355981Y-137019649D01*
X103355984Y-137019651D01*
X103545388Y-137116157D01*
X103747557Y-137181846D01*
X103957513Y-137215100D01*
X103957514Y-137215100D01*
X104170086Y-137215100D01*
X104170087Y-137215100D01*
X104380043Y-137181846D01*
X104582212Y-137116157D01*
X104771616Y-137019651D01*
X104826372Y-136979869D01*
X104943586Y-136894709D01*
X104943588Y-136894706D01*
X104943592Y-136894704D01*
X105093904Y-136744392D01*
X105093906Y-136744388D01*
X105093909Y-136744386D01*
X105179690Y-136626317D01*
X105218851Y-136572416D01*
X105223593Y-136563108D01*
X105271563Y-136512311D01*
X105339383Y-136495511D01*
X105405519Y-136518045D01*
X105444563Y-136563100D01*
X105449173Y-136572147D01*
X105488528Y-136626316D01*
X106120837Y-135994008D01*
X106137875Y-136057593D01*
X106203701Y-136171607D01*
X106296793Y-136264699D01*
X106410807Y-136330525D01*
X106474390Y-136347562D01*
X105842082Y-136979869D01*
X105842082Y-136979870D01*
X105896249Y-137019224D01*
X106085582Y-137115695D01*
X106287670Y-137181357D01*
X106497554Y-137214600D01*
X106710046Y-137214600D01*
X106919927Y-137181357D01*
X106919930Y-137181357D01*
X107122017Y-137115695D01*
X107311354Y-137019222D01*
X107365516Y-136979870D01*
X107365517Y-136979870D01*
X106733208Y-136347562D01*
X106796793Y-136330525D01*
X106910807Y-136264699D01*
X107003899Y-136171607D01*
X107069725Y-136057593D01*
X107086762Y-135994009D01*
X107719070Y-136626317D01*
X107719070Y-136626316D01*
X107758422Y-136572154D01*
X107854895Y-136382817D01*
X107920557Y-136180730D01*
X107920557Y-136180727D01*
X107953800Y-135970846D01*
X107953800Y-135758353D01*
X107920557Y-135548472D01*
X107920557Y-135548469D01*
X107854895Y-135346382D01*
X107758424Y-135157049D01*
X107719070Y-135102882D01*
X107719069Y-135102882D01*
X107086762Y-135735190D01*
X107069725Y-135671607D01*
X107003899Y-135557593D01*
X106910807Y-135464501D01*
X106796793Y-135398675D01*
X106733209Y-135381637D01*
X107365516Y-134749328D01*
X107311347Y-134709973D01*
X107311347Y-134709972D01*
X107302300Y-134705363D01*
X107251506Y-134657388D01*
X107234712Y-134589566D01*
X107257251Y-134523432D01*
X107302308Y-134484393D01*
X107311616Y-134479651D01*
X107390807Y-134422115D01*
X107483586Y-134354709D01*
X107483588Y-134354706D01*
X107483592Y-134354704D01*
X107633904Y-134204392D01*
X107633906Y-134204388D01*
X107633909Y-134204386D01*
X107758848Y-134032420D01*
X107758847Y-134032420D01*
X107758851Y-134032416D01*
X107855357Y-133843012D01*
X107921046Y-133640843D01*
X107954300Y-133430887D01*
X107954300Y-133218313D01*
X107921046Y-133008357D01*
X107855357Y-132806188D01*
X107758851Y-132616784D01*
X107758849Y-132616781D01*
X107758848Y-132616779D01*
X107633909Y-132444813D01*
X107483586Y-132294490D01*
X107311620Y-132169551D01*
X107310915Y-132169191D01*
X107302854Y-132165085D01*
X107252059Y-132117112D01*
X107235263Y-132049292D01*
X107257799Y-131983156D01*
X107302854Y-131944115D01*
X107311616Y-131939651D01*
X107333589Y-131923686D01*
X107483586Y-131814709D01*
X107483588Y-131814706D01*
X107483592Y-131814704D01*
X107633904Y-131664392D01*
X107633906Y-131664388D01*
X107633909Y-131664386D01*
X107758848Y-131492420D01*
X107758847Y-131492420D01*
X107758851Y-131492416D01*
X107855357Y-131303012D01*
X107921046Y-131100843D01*
X107954300Y-130890887D01*
X107954300Y-130678313D01*
X107921046Y-130468357D01*
X107855357Y-130266188D01*
X107758851Y-130076784D01*
X107758849Y-130076781D01*
X107758848Y-130076779D01*
X107633909Y-129904813D01*
X107483586Y-129754490D01*
X107311620Y-129629551D01*
X107310915Y-129629191D01*
X107302854Y-129625085D01*
X107252059Y-129577112D01*
X107235263Y-129509292D01*
X107257799Y-129443156D01*
X107302854Y-129404115D01*
X107311616Y-129399651D01*
X107397938Y-129336935D01*
X107483586Y-129274709D01*
X107483588Y-129274706D01*
X107483592Y-129274704D01*
X107633904Y-129124392D01*
X107633906Y-129124388D01*
X107633909Y-129124386D01*
X107758848Y-128952420D01*
X107758847Y-128952420D01*
X107758851Y-128952416D01*
X107855357Y-128763012D01*
X107921046Y-128560843D01*
X107954300Y-128350887D01*
X107954300Y-128138313D01*
X107921046Y-127928357D01*
X107855357Y-127726188D01*
X107758851Y-127536784D01*
X107758849Y-127536781D01*
X107758848Y-127536779D01*
X107633909Y-127364813D01*
X107483586Y-127214490D01*
X107311620Y-127089551D01*
X107122214Y-126993044D01*
X107122213Y-126993043D01*
X107122212Y-126993043D01*
X106920043Y-126927354D01*
X106920041Y-126927353D01*
X106920040Y-126927353D01*
X106758757Y-126901808D01*
X106710087Y-126894100D01*
X106497513Y-126894100D01*
X106448842Y-126901808D01*
X106287560Y-126927353D01*
X106085385Y-126993044D01*
X105895979Y-127089551D01*
X105724015Y-127214489D01*
X105610473Y-127328031D01*
X105549150Y-127361515D01*
X105479458Y-127356531D01*
X105423525Y-127314659D01*
X105406610Y-127283682D01*
X105357597Y-127152271D01*
X105357593Y-127152264D01*
X105271347Y-127037055D01*
X105271344Y-127037052D01*
X105156135Y-126950806D01*
X105156128Y-126950802D01*
X105021282Y-126900508D01*
X105021283Y-126900508D01*
X104961683Y-126894101D01*
X104961681Y-126894100D01*
X104961673Y-126894100D01*
X104961664Y-126894100D01*
X103165929Y-126894100D01*
X103165923Y-126894101D01*
X103106316Y-126900508D01*
X102971471Y-126950802D01*
X102971464Y-126950806D01*
X102856255Y-127037052D01*
X102856252Y-127037055D01*
X102770006Y-127152264D01*
X102770002Y-127152271D01*
X102719708Y-127287117D01*
X102713301Y-127346716D01*
X102713300Y-127346735D01*
X93058100Y-127346735D01*
X93058100Y-125646228D01*
X118250100Y-125646228D01*
X118250100Y-125813771D01*
X118282782Y-125978074D01*
X118282784Y-125978082D01*
X118346895Y-126132860D01*
X118439973Y-126272162D01*
X118558437Y-126390626D01*
X118651094Y-126452537D01*
X118697737Y-126483703D01*
X118852518Y-126547816D01*
X119016828Y-126580499D01*
X119016832Y-126580500D01*
X119016833Y-126580500D01*
X119184368Y-126580500D01*
X119184369Y-126580499D01*
X119348682Y-126547816D01*
X119488408Y-126489938D01*
X119535861Y-126480500D01*
X125570970Y-126480500D01*
X125638009Y-126500185D01*
X125658651Y-126516819D01*
X126669538Y-127527705D01*
X126696418Y-127567933D01*
X126754295Y-127707660D01*
X126847373Y-127846962D01*
X126965837Y-127965426D01*
X127058494Y-128027337D01*
X127105137Y-128058503D01*
X127259918Y-128122616D01*
X127424228Y-128155299D01*
X127424232Y-128155300D01*
X127424233Y-128155300D01*
X127591768Y-128155300D01*
X127591769Y-128155299D01*
X127756082Y-128122616D01*
X127910863Y-128058503D01*
X128050162Y-127965426D01*
X128168626Y-127846962D01*
X128261703Y-127707663D01*
X128325816Y-127552882D01*
X128358500Y-127388567D01*
X128358500Y-127221033D01*
X128325816Y-127056718D01*
X128261703Y-126901937D01*
X128174632Y-126771626D01*
X128168626Y-126762637D01*
X128050162Y-126644173D01*
X127910860Y-126551095D01*
X127771133Y-126493218D01*
X127730905Y-126466338D01*
X127373390Y-126108822D01*
X127291796Y-126027228D01*
X154851500Y-126027228D01*
X154851500Y-126194771D01*
X154884182Y-126359074D01*
X154884184Y-126359082D01*
X154948295Y-126513860D01*
X155041373Y-126653162D01*
X155159837Y-126771626D01*
X155252494Y-126833537D01*
X155299137Y-126864703D01*
X155453918Y-126928816D01*
X155618228Y-126961499D01*
X155618232Y-126961500D01*
X155618233Y-126961500D01*
X155785768Y-126961500D01*
X155785769Y-126961499D01*
X155950082Y-126928816D01*
X156104863Y-126864703D01*
X156244162Y-126771626D01*
X156362626Y-126653162D01*
X156455703Y-126513863D01*
X156519816Y-126359082D01*
X156552500Y-126194767D01*
X156552500Y-126194760D01*
X156553097Y-126188706D01*
X156554727Y-126188866D01*
X156572185Y-126129412D01*
X156588814Y-126108775D01*
X160367929Y-122329660D01*
X160367933Y-122329658D01*
X160455058Y-122242533D01*
X160489284Y-122191309D01*
X160523512Y-122140086D01*
X160570663Y-122026251D01*
X160594700Y-121905407D01*
X160594700Y-121782193D01*
X160594700Y-115581050D01*
X160614385Y-115514011D01*
X160649809Y-115477948D01*
X160663762Y-115468626D01*
X160782226Y-115350162D01*
X160875303Y-115210863D01*
X160939416Y-115056082D01*
X160972100Y-114891767D01*
X160972100Y-114724233D01*
X160939416Y-114559918D01*
X160875303Y-114405137D01*
X160807314Y-114303384D01*
X160782226Y-114265837D01*
X160663762Y-114147373D01*
X160524460Y-114054295D01*
X160369682Y-113990184D01*
X160369674Y-113990182D01*
X160205371Y-113957500D01*
X160205367Y-113957500D01*
X160037833Y-113957500D01*
X159987620Y-113967487D01*
X159930090Y-113978931D01*
X159860499Y-113972703D01*
X159805322Y-113929839D01*
X159782078Y-113863949D01*
X159781900Y-113857313D01*
X159781900Y-113531650D01*
X159801585Y-113464611D01*
X159813343Y-113450021D01*
X159813161Y-113449872D01*
X159817026Y-113445162D01*
X159830667Y-113424747D01*
X159910103Y-113305863D01*
X159974216Y-113151082D01*
X160006900Y-112986767D01*
X160006900Y-112819233D01*
X159974216Y-112654918D01*
X159910103Y-112500137D01*
X159819749Y-112364913D01*
X159817026Y-112360837D01*
X159698562Y-112242373D01*
X159559260Y-112149295D01*
X159404482Y-112085184D01*
X159404474Y-112085182D01*
X159240171Y-112052500D01*
X159240167Y-112052500D01*
X159072633Y-112052500D01*
X159072628Y-112052500D01*
X158908325Y-112085182D01*
X158908317Y-112085184D01*
X158753539Y-112149295D01*
X158614237Y-112242373D01*
X158495773Y-112360837D01*
X158402695Y-112500139D01*
X158338584Y-112654917D01*
X158338582Y-112654925D01*
X158305900Y-112819228D01*
X158305900Y-112986771D01*
X158338582Y-113151074D01*
X158338584Y-113151082D01*
X158402695Y-113305860D01*
X158495773Y-113445162D01*
X158499639Y-113449872D01*
X158498368Y-113450914D01*
X158528062Y-113505272D01*
X158530900Y-113531650D01*
X158530900Y-115906549D01*
X158511215Y-115973588D01*
X158494581Y-115994230D01*
X158419576Y-116069234D01*
X158419573Y-116069237D01*
X158326495Y-116208539D01*
X158262384Y-116363317D01*
X158262382Y-116363325D01*
X158229700Y-116527628D01*
X158229700Y-116695171D01*
X158262382Y-116859474D01*
X158262384Y-116859482D01*
X158326495Y-117014260D01*
X158419573Y-117153562D01*
X158538037Y-117272026D01*
X158630694Y-117333937D01*
X158677337Y-117365103D01*
X158832118Y-117429216D01*
X158996197Y-117461853D01*
X158996428Y-117461899D01*
X158996432Y-117461900D01*
X158996433Y-117461900D01*
X159163968Y-117461900D01*
X159163968Y-117461899D01*
X159195508Y-117455626D01*
X159265099Y-117461853D01*
X159320277Y-117504715D01*
X159343522Y-117570605D01*
X159343700Y-117577243D01*
X159343700Y-121533348D01*
X159324015Y-121600387D01*
X159307381Y-121621029D01*
X155704229Y-125224181D01*
X155642906Y-125257666D01*
X155624271Y-125259669D01*
X155624294Y-125259903D01*
X155618228Y-125260500D01*
X155453925Y-125293182D01*
X155453917Y-125293184D01*
X155299139Y-125357295D01*
X155159837Y-125450373D01*
X155041373Y-125568837D01*
X154948295Y-125708139D01*
X154884184Y-125862917D01*
X154884182Y-125862925D01*
X154851500Y-126027228D01*
X127291796Y-126027228D01*
X126411621Y-125147052D01*
X126411614Y-125147046D01*
X126337929Y-125097812D01*
X126337929Y-125097813D01*
X126288691Y-125064913D01*
X126152117Y-125008343D01*
X126152107Y-125008340D01*
X126007120Y-124979500D01*
X126007118Y-124979500D01*
X119535861Y-124979500D01*
X119488408Y-124970061D01*
X119348682Y-124912184D01*
X119348674Y-124912182D01*
X119184371Y-124879500D01*
X119184367Y-124879500D01*
X119016833Y-124879500D01*
X119016828Y-124879500D01*
X118852525Y-124912182D01*
X118852517Y-124912184D01*
X118697739Y-124976295D01*
X118558437Y-125069373D01*
X118439973Y-125187837D01*
X118346895Y-125327139D01*
X118282784Y-125481917D01*
X118282782Y-125481925D01*
X118250100Y-125646228D01*
X93058100Y-125646228D01*
X93058100Y-122577400D01*
X139297600Y-122577400D01*
X157297600Y-122577400D01*
X157297600Y-116577400D01*
X139297600Y-116577400D01*
X139297600Y-122577400D01*
X93058100Y-122577400D01*
X93058100Y-111319335D01*
X102784500Y-111319335D01*
X102784500Y-113115070D01*
X102784501Y-113115076D01*
X102790908Y-113174683D01*
X102841202Y-113309528D01*
X102841206Y-113309535D01*
X102927452Y-113424744D01*
X102927455Y-113424747D01*
X103042664Y-113510993D01*
X103042671Y-113510997D01*
X103174082Y-113560010D01*
X103230016Y-113601881D01*
X103254433Y-113667345D01*
X103239582Y-113735618D01*
X103218431Y-113763873D01*
X103104889Y-113877415D01*
X102979951Y-114049379D01*
X102883444Y-114238785D01*
X102817753Y-114440960D01*
X102784500Y-114650913D01*
X102784500Y-114863486D01*
X102817753Y-115073439D01*
X102883444Y-115275614D01*
X102979951Y-115465020D01*
X103104890Y-115636986D01*
X103255213Y-115787309D01*
X103427182Y-115912250D01*
X103435946Y-115916716D01*
X103486742Y-115964691D01*
X103503536Y-116032512D01*
X103480998Y-116098647D01*
X103435946Y-116137684D01*
X103427182Y-116142149D01*
X103255213Y-116267090D01*
X103104890Y-116417413D01*
X102979951Y-116589379D01*
X102883444Y-116778785D01*
X102817753Y-116980960D01*
X102790806Y-117151101D01*
X102784500Y-117190913D01*
X102784500Y-117403487D01*
X102788575Y-117429215D01*
X102807895Y-117551200D01*
X102817754Y-117613443D01*
X102860237Y-117744193D01*
X102883444Y-117815614D01*
X102979951Y-118005020D01*
X103104890Y-118176986D01*
X103255213Y-118327309D01*
X103427182Y-118452250D01*
X103435946Y-118456716D01*
X103486742Y-118504691D01*
X103503536Y-118572512D01*
X103480998Y-118638647D01*
X103435946Y-118677684D01*
X103427182Y-118682149D01*
X103255213Y-118807090D01*
X103104890Y-118957413D01*
X102979951Y-119129379D01*
X102883444Y-119318785D01*
X102817753Y-119520960D01*
X102784500Y-119730913D01*
X102784500Y-119943486D01*
X102817753Y-120153439D01*
X102883444Y-120355614D01*
X102979951Y-120545020D01*
X103104890Y-120716986D01*
X103255213Y-120867309D01*
X103427179Y-120992248D01*
X103427181Y-120992249D01*
X103427184Y-120992251D01*
X103616588Y-121088757D01*
X103818757Y-121154446D01*
X104028713Y-121187700D01*
X104028714Y-121187700D01*
X104241286Y-121187700D01*
X104241287Y-121187700D01*
X104451243Y-121154446D01*
X104653412Y-121088757D01*
X104842816Y-120992251D01*
X104897572Y-120952469D01*
X105014786Y-120867309D01*
X105014788Y-120867306D01*
X105014792Y-120867304D01*
X105165104Y-120716992D01*
X105165106Y-120716988D01*
X105165109Y-120716986D01*
X105250890Y-120598917D01*
X105290051Y-120545016D01*
X105294793Y-120535708D01*
X105342763Y-120484911D01*
X105410583Y-120468111D01*
X105476719Y-120490645D01*
X105515763Y-120535700D01*
X105520373Y-120544747D01*
X105559728Y-120598916D01*
X106192037Y-119966608D01*
X106209075Y-120030193D01*
X106274901Y-120144207D01*
X106367993Y-120237299D01*
X106482007Y-120303125D01*
X106545590Y-120320162D01*
X105913282Y-120952469D01*
X105913282Y-120952470D01*
X105967449Y-120991824D01*
X106156782Y-121088295D01*
X106358870Y-121153957D01*
X106568754Y-121187200D01*
X106781246Y-121187200D01*
X106991127Y-121153957D01*
X106991130Y-121153957D01*
X107193217Y-121088295D01*
X107382554Y-120991822D01*
X107436716Y-120952470D01*
X107436717Y-120952470D01*
X106804408Y-120320162D01*
X106867993Y-120303125D01*
X106982007Y-120237299D01*
X107075099Y-120144207D01*
X107140925Y-120030193D01*
X107157962Y-119966608D01*
X107790270Y-120598917D01*
X107790270Y-120598916D01*
X107829622Y-120544754D01*
X107926095Y-120355417D01*
X107991757Y-120153330D01*
X107991757Y-120153327D01*
X108025000Y-119943446D01*
X108025000Y-119730953D01*
X107991757Y-119521072D01*
X107991757Y-119521069D01*
X107926095Y-119318982D01*
X107829624Y-119129649D01*
X107790270Y-119075482D01*
X107790269Y-119075482D01*
X107157962Y-119707790D01*
X107140925Y-119644207D01*
X107075099Y-119530193D01*
X106982007Y-119437101D01*
X106867993Y-119371275D01*
X106804409Y-119354237D01*
X107436716Y-118721928D01*
X107382547Y-118682573D01*
X107382547Y-118682572D01*
X107373500Y-118677963D01*
X107322706Y-118629988D01*
X107305912Y-118562166D01*
X107328451Y-118496032D01*
X107373508Y-118456993D01*
X107382816Y-118452251D01*
X107522414Y-118350828D01*
X107554786Y-118327309D01*
X107554788Y-118327306D01*
X107554792Y-118327304D01*
X107705104Y-118176992D01*
X107705106Y-118176988D01*
X107705109Y-118176986D01*
X107830048Y-118005020D01*
X107830047Y-118005020D01*
X107830051Y-118005016D01*
X107926557Y-117815612D01*
X107992246Y-117613443D01*
X108025500Y-117403487D01*
X108025500Y-117190913D01*
X107992246Y-116980957D01*
X107926557Y-116778788D01*
X107830051Y-116589384D01*
X107830048Y-116589381D01*
X107830046Y-116589376D01*
X107705109Y-116417413D01*
X107554786Y-116267090D01*
X107382820Y-116142151D01*
X107382115Y-116141791D01*
X107374054Y-116137685D01*
X107323259Y-116089712D01*
X107306463Y-116021892D01*
X107328999Y-115955756D01*
X107374054Y-115916715D01*
X107382816Y-115912251D01*
X107412088Y-115890984D01*
X107554786Y-115787309D01*
X107554788Y-115787306D01*
X107554792Y-115787304D01*
X107705104Y-115636992D01*
X107705106Y-115636988D01*
X107705109Y-115636986D01*
X107830048Y-115465020D01*
X107830047Y-115465020D01*
X107830051Y-115465016D01*
X107926557Y-115275612D01*
X107992246Y-115073443D01*
X108025500Y-114863487D01*
X108025500Y-114650913D01*
X107992246Y-114440957D01*
X107926557Y-114238788D01*
X107830051Y-114049384D01*
X107830049Y-114049381D01*
X107830048Y-114049379D01*
X107705109Y-113877413D01*
X107554786Y-113727090D01*
X107382820Y-113602151D01*
X107382115Y-113601791D01*
X107374054Y-113597685D01*
X107323259Y-113549712D01*
X107306463Y-113481892D01*
X107328999Y-113415756D01*
X107374054Y-113376715D01*
X107382816Y-113372251D01*
X107469138Y-113309535D01*
X107554786Y-113247309D01*
X107554788Y-113247306D01*
X107554792Y-113247304D01*
X107705104Y-113096992D01*
X107705106Y-113096988D01*
X107705109Y-113096986D01*
X107830048Y-112925020D01*
X107830047Y-112925020D01*
X107830051Y-112925016D01*
X107926557Y-112735612D01*
X107992246Y-112533443D01*
X108025500Y-112323487D01*
X108025500Y-112110913D01*
X107992246Y-111900957D01*
X107926557Y-111698788D01*
X107830051Y-111509384D01*
X107830049Y-111509381D01*
X107830048Y-111509379D01*
X107705109Y-111337413D01*
X107554786Y-111187090D01*
X107382820Y-111062151D01*
X107193414Y-110965644D01*
X107193413Y-110965643D01*
X107193412Y-110965643D01*
X106991243Y-110899954D01*
X106991241Y-110899953D01*
X106991240Y-110899953D01*
X106829957Y-110874408D01*
X106781287Y-110866700D01*
X106568713Y-110866700D01*
X106520042Y-110874408D01*
X106358760Y-110899953D01*
X106156585Y-110965644D01*
X105967179Y-111062151D01*
X105795215Y-111187089D01*
X105681673Y-111300631D01*
X105620350Y-111334115D01*
X105550658Y-111329131D01*
X105494725Y-111287259D01*
X105477810Y-111256282D01*
X105428797Y-111124871D01*
X105428793Y-111124864D01*
X105342547Y-111009655D01*
X105342544Y-111009652D01*
X105227335Y-110923406D01*
X105227328Y-110923402D01*
X105092482Y-110873108D01*
X105092483Y-110873108D01*
X105032883Y-110866701D01*
X105032881Y-110866700D01*
X105032873Y-110866700D01*
X105032864Y-110866700D01*
X103237129Y-110866700D01*
X103237123Y-110866701D01*
X103177516Y-110873108D01*
X103042671Y-110923402D01*
X103042664Y-110923406D01*
X102927455Y-111009652D01*
X102927452Y-111009655D01*
X102841206Y-111124864D01*
X102841202Y-111124871D01*
X102790908Y-111259717D01*
X102784501Y-111319316D01*
X102784500Y-111319335D01*
X93058100Y-111319335D01*
X93058100Y-109483245D01*
X148735306Y-109483245D01*
X148864252Y-109536657D01*
X148864256Y-109536658D01*
X149018802Y-109567399D01*
X149018806Y-109567400D01*
X149176394Y-109567400D01*
X149176397Y-109567399D01*
X149330943Y-109536658D01*
X149330947Y-109536657D01*
X149459893Y-109483245D01*
X150135306Y-109483245D01*
X150264252Y-109536657D01*
X150264256Y-109536658D01*
X150418802Y-109567399D01*
X150418806Y-109567400D01*
X150576394Y-109567400D01*
X150576397Y-109567399D01*
X150730943Y-109536658D01*
X150730947Y-109536657D01*
X150859893Y-109483245D01*
X150497601Y-109120953D01*
X150497600Y-109120953D01*
X150135306Y-109483245D01*
X149459893Y-109483245D01*
X149097601Y-109120953D01*
X149097600Y-109120953D01*
X148735306Y-109483245D01*
X93058100Y-109483245D01*
X93058100Y-108783245D01*
X148035306Y-108783245D01*
X148164252Y-108836657D01*
X148164256Y-108836658D01*
X148219855Y-108847718D01*
X148281766Y-108880102D01*
X148316340Y-108940818D01*
X148317281Y-108945143D01*
X148328341Y-109000745D01*
X148328343Y-109000751D01*
X148381753Y-109129693D01*
X148744046Y-108767401D01*
X148744046Y-108767399D01*
X148714210Y-108737563D01*
X148947600Y-108737563D01*
X148947600Y-108797237D01*
X148970436Y-108852368D01*
X149012632Y-108894564D01*
X149067763Y-108917400D01*
X149127437Y-108917400D01*
X149182568Y-108894564D01*
X149224764Y-108852368D01*
X149247600Y-108797237D01*
X149247600Y-108767400D01*
X149451153Y-108767400D01*
X149797600Y-109113846D01*
X149797601Y-109113846D01*
X150144046Y-108767401D01*
X150144046Y-108767399D01*
X150114210Y-108737563D01*
X150347600Y-108737563D01*
X150347600Y-108797237D01*
X150370436Y-108852368D01*
X150412632Y-108894564D01*
X150467763Y-108917400D01*
X150527437Y-108917400D01*
X150582568Y-108894564D01*
X150624764Y-108852368D01*
X150647600Y-108797237D01*
X150647600Y-108767400D01*
X150851153Y-108767400D01*
X151213445Y-109129693D01*
X151266856Y-109000749D01*
X151266857Y-109000748D01*
X151277916Y-108945146D01*
X151310300Y-108883234D01*
X151371015Y-108848658D01*
X151375346Y-108847716D01*
X151430948Y-108836657D01*
X151430949Y-108836656D01*
X151559893Y-108783245D01*
X151197600Y-108420953D01*
X150851153Y-108767400D01*
X150647600Y-108767400D01*
X150647600Y-108737563D01*
X150624764Y-108682432D01*
X150582568Y-108640236D01*
X150527437Y-108617400D01*
X150467763Y-108617400D01*
X150412632Y-108640236D01*
X150370436Y-108682432D01*
X150347600Y-108737563D01*
X150114210Y-108737563D01*
X149797600Y-108420953D01*
X149451153Y-108767400D01*
X149247600Y-108767400D01*
X149247600Y-108737563D01*
X149224764Y-108682432D01*
X149182568Y-108640236D01*
X149127437Y-108617400D01*
X149067763Y-108617400D01*
X149012632Y-108640236D01*
X148970436Y-108682432D01*
X148947600Y-108737563D01*
X148714210Y-108737563D01*
X148554017Y-108577370D01*
X148397601Y-108420953D01*
X148397600Y-108420953D01*
X148035306Y-108783245D01*
X93058100Y-108783245D01*
X93058100Y-107988602D01*
X147597600Y-107988602D01*
X147597600Y-108146197D01*
X147628341Y-108300743D01*
X147628343Y-108300751D01*
X147681753Y-108429693D01*
X148044046Y-108067401D01*
X148044046Y-108067399D01*
X148014210Y-108037563D01*
X148247600Y-108037563D01*
X148247600Y-108097237D01*
X148270436Y-108152368D01*
X148312632Y-108194564D01*
X148367763Y-108217400D01*
X148427437Y-108217400D01*
X148482568Y-108194564D01*
X148524764Y-108152368D01*
X148547600Y-108097237D01*
X148547600Y-108067400D01*
X148751153Y-108067400D01*
X148924376Y-108240623D01*
X149097600Y-108413846D01*
X149097601Y-108413846D01*
X149270823Y-108240623D01*
X149444046Y-108067400D01*
X149444046Y-108067399D01*
X149414210Y-108037563D01*
X149647600Y-108037563D01*
X149647600Y-108097237D01*
X149670436Y-108152368D01*
X149712632Y-108194564D01*
X149767763Y-108217400D01*
X149827437Y-108217400D01*
X149882568Y-108194564D01*
X149924764Y-108152368D01*
X149947600Y-108097237D01*
X149947600Y-108067400D01*
X150151153Y-108067400D01*
X150324376Y-108240623D01*
X150497600Y-108413846D01*
X150497601Y-108413846D01*
X150670823Y-108240623D01*
X150844046Y-108067400D01*
X150844046Y-108067399D01*
X150814210Y-108037563D01*
X151047600Y-108037563D01*
X151047600Y-108097237D01*
X151070436Y-108152368D01*
X151112632Y-108194564D01*
X151167763Y-108217400D01*
X151227437Y-108217400D01*
X151282568Y-108194564D01*
X151324764Y-108152368D01*
X151347600Y-108097237D01*
X151347600Y-108067399D01*
X151551153Y-108067399D01*
X151551153Y-108067401D01*
X151913445Y-108429693D01*
X151966857Y-108300747D01*
X151966858Y-108300743D01*
X151997599Y-108146197D01*
X151997600Y-108146194D01*
X151997600Y-107988606D01*
X151997599Y-107988602D01*
X151966858Y-107834056D01*
X151966857Y-107834052D01*
X151913445Y-107705106D01*
X151551153Y-108067399D01*
X151347600Y-108067399D01*
X151347600Y-108037563D01*
X151324764Y-107982432D01*
X151282568Y-107940236D01*
X151227437Y-107917400D01*
X151167763Y-107917400D01*
X151112632Y-107940236D01*
X151070436Y-107982432D01*
X151047600Y-108037563D01*
X150814210Y-108037563D01*
X150497600Y-107720953D01*
X150151153Y-108067400D01*
X149947600Y-108067400D01*
X149947600Y-108037563D01*
X149924764Y-107982432D01*
X149882568Y-107940236D01*
X149827437Y-107917400D01*
X149767763Y-107917400D01*
X149712632Y-107940236D01*
X149670436Y-107982432D01*
X149647600Y-108037563D01*
X149414210Y-108037563D01*
X149097600Y-107720953D01*
X148751153Y-108067400D01*
X148547600Y-108067400D01*
X148547600Y-108037563D01*
X148524764Y-107982432D01*
X148482568Y-107940236D01*
X148427437Y-107917400D01*
X148367763Y-107917400D01*
X148312632Y-107940236D01*
X148270436Y-107982432D01*
X148247600Y-108037563D01*
X148014210Y-108037563D01*
X147681753Y-107705105D01*
X147628343Y-107834048D01*
X147628341Y-107834056D01*
X147597600Y-107988602D01*
X93058100Y-107988602D01*
X93058100Y-107367400D01*
X148051153Y-107367400D01*
X148397600Y-107713846D01*
X148397601Y-107713846D01*
X148570823Y-107540623D01*
X148744046Y-107367400D01*
X148744046Y-107367399D01*
X148714210Y-107337563D01*
X148947600Y-107337563D01*
X148947600Y-107397237D01*
X148970436Y-107452368D01*
X149012632Y-107494564D01*
X149067763Y-107517400D01*
X149127437Y-107517400D01*
X149182568Y-107494564D01*
X149224764Y-107452368D01*
X149247600Y-107397237D01*
X149247600Y-107367400D01*
X149451153Y-107367400D01*
X149624376Y-107540623D01*
X149797600Y-107713846D01*
X149797601Y-107713846D01*
X149970823Y-107540623D01*
X150144046Y-107367400D01*
X150144046Y-107367399D01*
X150114210Y-107337563D01*
X150347600Y-107337563D01*
X150347600Y-107397237D01*
X150370436Y-107452368D01*
X150412632Y-107494564D01*
X150467763Y-107517400D01*
X150527437Y-107517400D01*
X150582568Y-107494564D01*
X150624764Y-107452368D01*
X150647600Y-107397237D01*
X150647600Y-107367400D01*
X150851153Y-107367400D01*
X151024376Y-107540623D01*
X151197600Y-107713846D01*
X151197601Y-107713846D01*
X151544046Y-107367401D01*
X151544046Y-107367399D01*
X151197601Y-107020953D01*
X151197600Y-107020953D01*
X150851153Y-107367400D01*
X150647600Y-107367400D01*
X150647600Y-107337563D01*
X150624764Y-107282432D01*
X150582568Y-107240236D01*
X150527437Y-107217400D01*
X150467763Y-107217400D01*
X150412632Y-107240236D01*
X150370436Y-107282432D01*
X150347600Y-107337563D01*
X150114210Y-107337563D01*
X149797600Y-107020953D01*
X149451153Y-107367400D01*
X149247600Y-107367400D01*
X149247600Y-107337563D01*
X149224764Y-107282432D01*
X149182568Y-107240236D01*
X149127437Y-107217400D01*
X149067763Y-107217400D01*
X149012632Y-107240236D01*
X148970436Y-107282432D01*
X148947600Y-107337563D01*
X148714210Y-107337563D01*
X148397600Y-107020953D01*
X148051153Y-107367400D01*
X93058100Y-107367400D01*
X93058100Y-102636713D01*
X104501700Y-102636713D01*
X104501700Y-102849286D01*
X104528582Y-103019016D01*
X104534954Y-103059243D01*
X104598409Y-103254537D01*
X104600644Y-103261414D01*
X104697151Y-103450820D01*
X104822090Y-103622786D01*
X104935630Y-103736326D01*
X104969115Y-103797649D01*
X104964131Y-103867341D01*
X104922259Y-103923274D01*
X104891283Y-103940189D01*
X104759869Y-103989203D01*
X104759864Y-103989206D01*
X104644655Y-104075452D01*
X104644652Y-104075455D01*
X104558406Y-104190664D01*
X104558402Y-104190671D01*
X104508108Y-104325517D01*
X104501701Y-104385116D01*
X104501701Y-104385123D01*
X104501700Y-104385135D01*
X104501700Y-106180870D01*
X104501701Y-106180876D01*
X104508108Y-106240483D01*
X104558402Y-106375328D01*
X104558406Y-106375335D01*
X104644652Y-106490544D01*
X104644654Y-106490546D01*
X104759864Y-106576793D01*
X104759871Y-106576797D01*
X104894717Y-106627091D01*
X104894716Y-106627091D01*
X104901644Y-106627835D01*
X104954327Y-106633500D01*
X106750072Y-106633499D01*
X106809683Y-106627091D01*
X106912877Y-106588602D01*
X147597600Y-106588602D01*
X147597600Y-106746197D01*
X147628341Y-106900743D01*
X147628343Y-106900751D01*
X147681753Y-107029693D01*
X148044046Y-106667401D01*
X148044046Y-106667399D01*
X148014210Y-106637563D01*
X148247600Y-106637563D01*
X148247600Y-106697237D01*
X148270436Y-106752368D01*
X148312632Y-106794564D01*
X148367763Y-106817400D01*
X148427437Y-106817400D01*
X148482568Y-106794564D01*
X148524764Y-106752368D01*
X148547600Y-106697237D01*
X148547600Y-106667400D01*
X148751153Y-106667400D01*
X148924376Y-106840623D01*
X149097600Y-107013846D01*
X149097601Y-107013846D01*
X149270823Y-106840623D01*
X149444046Y-106667400D01*
X149444046Y-106667399D01*
X149414210Y-106637563D01*
X149647600Y-106637563D01*
X149647600Y-106697237D01*
X149670436Y-106752368D01*
X149712632Y-106794564D01*
X149767763Y-106817400D01*
X149827437Y-106817400D01*
X149882568Y-106794564D01*
X149924764Y-106752368D01*
X149947600Y-106697237D01*
X149947600Y-106667400D01*
X150151153Y-106667400D01*
X150324376Y-106840623D01*
X150497600Y-107013846D01*
X150497601Y-107013846D01*
X150670823Y-106840623D01*
X150844046Y-106667400D01*
X150844046Y-106667399D01*
X150814210Y-106637563D01*
X151047600Y-106637563D01*
X151047600Y-106697237D01*
X151070436Y-106752368D01*
X151112632Y-106794564D01*
X151167763Y-106817400D01*
X151227437Y-106817400D01*
X151282568Y-106794564D01*
X151324764Y-106752368D01*
X151347600Y-106697237D01*
X151347600Y-106667399D01*
X151551153Y-106667399D01*
X151551153Y-106667401D01*
X151913445Y-107029693D01*
X151966857Y-106900747D01*
X151966858Y-106900743D01*
X151997599Y-106746197D01*
X151997600Y-106746194D01*
X151997600Y-106588606D01*
X151997599Y-106588602D01*
X151966858Y-106434056D01*
X151966857Y-106434052D01*
X151913445Y-106305106D01*
X151551153Y-106667399D01*
X151347600Y-106667399D01*
X151347600Y-106637563D01*
X151324764Y-106582432D01*
X151282568Y-106540236D01*
X151227437Y-106517400D01*
X151167763Y-106517400D01*
X151112632Y-106540236D01*
X151070436Y-106582432D01*
X151047600Y-106637563D01*
X150814210Y-106637563D01*
X150497600Y-106320953D01*
X150151153Y-106667400D01*
X149947600Y-106667400D01*
X149947600Y-106637563D01*
X149924764Y-106582432D01*
X149882568Y-106540236D01*
X149827437Y-106517400D01*
X149767763Y-106517400D01*
X149712632Y-106540236D01*
X149670436Y-106582432D01*
X149647600Y-106637563D01*
X149414210Y-106637563D01*
X149097600Y-106320953D01*
X148751153Y-106667400D01*
X148547600Y-106667400D01*
X148547600Y-106637563D01*
X148524764Y-106582432D01*
X148482568Y-106540236D01*
X148427437Y-106517400D01*
X148367763Y-106517400D01*
X148312632Y-106540236D01*
X148270436Y-106582432D01*
X148247600Y-106637563D01*
X148014210Y-106637563D01*
X147681753Y-106305105D01*
X147628343Y-106434048D01*
X147628341Y-106434056D01*
X147597600Y-106588602D01*
X106912877Y-106588602D01*
X106944531Y-106576796D01*
X107059746Y-106490546D01*
X107145996Y-106375331D01*
X107196291Y-106240483D01*
X107202700Y-106180873D01*
X107202700Y-105951553D01*
X148035305Y-105951553D01*
X148397599Y-106313846D01*
X148590247Y-106121200D01*
X148744046Y-105967400D01*
X148744046Y-105967399D01*
X148714210Y-105937563D01*
X148947600Y-105937563D01*
X148947600Y-105997237D01*
X148970436Y-106052368D01*
X149012632Y-106094564D01*
X149067763Y-106117400D01*
X149127437Y-106117400D01*
X149182568Y-106094564D01*
X149224764Y-106052368D01*
X149247600Y-105997237D01*
X149247600Y-105967400D01*
X149451153Y-105967400D01*
X149604953Y-106121200D01*
X149797600Y-106313846D01*
X149990247Y-106121200D01*
X150144046Y-105967400D01*
X150144046Y-105967399D01*
X150114210Y-105937563D01*
X150347600Y-105937563D01*
X150347600Y-105997237D01*
X150370436Y-106052368D01*
X150412632Y-106094564D01*
X150467763Y-106117400D01*
X150527437Y-106117400D01*
X150582568Y-106094564D01*
X150624764Y-106052368D01*
X150647600Y-105997237D01*
X150647600Y-105967399D01*
X150851153Y-105967399D01*
X150851153Y-105967400D01*
X151004953Y-106121200D01*
X151197600Y-106313846D01*
X151197601Y-106313846D01*
X151559893Y-105951553D01*
X151430951Y-105898143D01*
X151430945Y-105898141D01*
X151375343Y-105887081D01*
X151313432Y-105854696D01*
X151278858Y-105793980D01*
X151277918Y-105789655D01*
X151266858Y-105734056D01*
X151266857Y-105734052D01*
X151213445Y-105605106D01*
X150851153Y-105967399D01*
X150647600Y-105967399D01*
X150647600Y-105937563D01*
X150624764Y-105882432D01*
X150582568Y-105840236D01*
X150527437Y-105817400D01*
X150467763Y-105817400D01*
X150412632Y-105840236D01*
X150370436Y-105882432D01*
X150347600Y-105937563D01*
X150114210Y-105937563D01*
X149797601Y-105620953D01*
X149797600Y-105620953D01*
X149451153Y-105967400D01*
X149247600Y-105967400D01*
X149247600Y-105937563D01*
X149224764Y-105882432D01*
X149182568Y-105840236D01*
X149127437Y-105817400D01*
X149067763Y-105817400D01*
X149012632Y-105840236D01*
X148970436Y-105882432D01*
X148947600Y-105937563D01*
X148714210Y-105937563D01*
X148381753Y-105605105D01*
X148328343Y-105734048D01*
X148328341Y-105734053D01*
X148317281Y-105789657D01*
X148284895Y-105851567D01*
X148224179Y-105886141D01*
X148219857Y-105887081D01*
X148164253Y-105898141D01*
X148164248Y-105898143D01*
X148035305Y-105951553D01*
X107202700Y-105951553D01*
X107202699Y-105251553D01*
X148735305Y-105251553D01*
X149097600Y-105613846D01*
X149097601Y-105613846D01*
X149459893Y-105251553D01*
X150135305Y-105251553D01*
X150497600Y-105613846D01*
X150497601Y-105613846D01*
X150859893Y-105251553D01*
X150730951Y-105198143D01*
X150730943Y-105198141D01*
X150576397Y-105167400D01*
X150418802Y-105167400D01*
X150264256Y-105198141D01*
X150264248Y-105198143D01*
X150135305Y-105251553D01*
X149459893Y-105251553D01*
X149330951Y-105198143D01*
X149330943Y-105198141D01*
X149176397Y-105167400D01*
X149018802Y-105167400D01*
X148864256Y-105198141D01*
X148864248Y-105198143D01*
X148735305Y-105251553D01*
X107202699Y-105251553D01*
X107202699Y-104385129D01*
X107202698Y-104385123D01*
X107202697Y-104385116D01*
X107196291Y-104325517D01*
X107192055Y-104314161D01*
X107145997Y-104190671D01*
X107145993Y-104190664D01*
X107059747Y-104075455D01*
X107059744Y-104075452D01*
X106944535Y-103989206D01*
X106944528Y-103989202D01*
X106813117Y-103940189D01*
X106757183Y-103898318D01*
X106732766Y-103832853D01*
X106747618Y-103764580D01*
X106768763Y-103736332D01*
X106882304Y-103622792D01*
X106918023Y-103573628D01*
X158890100Y-103573628D01*
X158890100Y-103741171D01*
X158922782Y-103905474D01*
X158922784Y-103905482D01*
X158986895Y-104060260D01*
X159079973Y-104199562D01*
X159198437Y-104318026D01*
X159291094Y-104379937D01*
X159337737Y-104411103D01*
X159492518Y-104475216D01*
X159656828Y-104507899D01*
X159656832Y-104507900D01*
X159656833Y-104507900D01*
X159824368Y-104507900D01*
X159824369Y-104507899D01*
X159988682Y-104475216D01*
X160143463Y-104411103D01*
X160282762Y-104318026D01*
X160287472Y-104314161D01*
X160288512Y-104315428D01*
X160342893Y-104285734D01*
X160369251Y-104282900D01*
X161554807Y-104282900D01*
X161615229Y-104270881D01*
X161675652Y-104258863D01*
X161708992Y-104245052D01*
X161789486Y-104211712D01*
X161840709Y-104177484D01*
X161891933Y-104143258D01*
X161979058Y-104056133D01*
X161979058Y-104056131D01*
X161989266Y-104045924D01*
X161989267Y-104045921D01*
X167456008Y-98579181D01*
X167517329Y-98545698D01*
X167550141Y-98543793D01*
X167550141Y-98543500D01*
X167555192Y-98543500D01*
X167555847Y-98543462D01*
X167556233Y-98543500D01*
X167723768Y-98543500D01*
X167723769Y-98543499D01*
X167888082Y-98510816D01*
X168042863Y-98446703D01*
X168182162Y-98353626D01*
X168300626Y-98235162D01*
X168365529Y-98138028D01*
X170142300Y-98138028D01*
X170142300Y-98305571D01*
X170174982Y-98469874D01*
X170174984Y-98469882D01*
X170239095Y-98624660D01*
X170332173Y-98763962D01*
X170450637Y-98882426D01*
X170543294Y-98944337D01*
X170589937Y-98975503D01*
X170744718Y-99039616D01*
X170864184Y-99063379D01*
X170909028Y-99072299D01*
X170909032Y-99072300D01*
X170909033Y-99072300D01*
X171076568Y-99072300D01*
X171076569Y-99072299D01*
X171240882Y-99039616D01*
X171395663Y-98975503D01*
X171534962Y-98882426D01*
X171653426Y-98763962D01*
X171746503Y-98624663D01*
X171810616Y-98469882D01*
X171843300Y-98305567D01*
X171843300Y-98138033D01*
X171810616Y-97973718D01*
X171746503Y-97818937D01*
X171700181Y-97749612D01*
X171653426Y-97679637D01*
X171649561Y-97674928D01*
X171650828Y-97673887D01*
X171621134Y-97619507D01*
X171618300Y-97593149D01*
X171618300Y-97124913D01*
X173299900Y-97124913D01*
X173299900Y-97337486D01*
X173316915Y-97444918D01*
X173333154Y-97547443D01*
X173374238Y-97673887D01*
X173398844Y-97749614D01*
X173495351Y-97939020D01*
X173620290Y-98110986D01*
X173770613Y-98261309D01*
X173942582Y-98386250D01*
X173951346Y-98390716D01*
X174002142Y-98438691D01*
X174018936Y-98506512D01*
X173996398Y-98572647D01*
X173951346Y-98611684D01*
X173942582Y-98616149D01*
X173770613Y-98741090D01*
X173620290Y-98891413D01*
X173495351Y-99063379D01*
X173398844Y-99252785D01*
X173333153Y-99454960D01*
X173299900Y-99664913D01*
X173299900Y-99877486D01*
X173333153Y-100087439D01*
X173398844Y-100289614D01*
X173495351Y-100479020D01*
X173620290Y-100650986D01*
X173770613Y-100801309D01*
X173942582Y-100926250D01*
X173951346Y-100930716D01*
X174002142Y-100978691D01*
X174018936Y-101046512D01*
X173996398Y-101112647D01*
X173951346Y-101151684D01*
X173942582Y-101156149D01*
X173770613Y-101281090D01*
X173620290Y-101431413D01*
X173495351Y-101603379D01*
X173398844Y-101792785D01*
X173333153Y-101994960D01*
X173299900Y-102204913D01*
X173299900Y-102417487D01*
X173333154Y-102627443D01*
X173391463Y-102806900D01*
X173398844Y-102829614D01*
X173495351Y-103019020D01*
X173620290Y-103190986D01*
X173770613Y-103341309D01*
X173942582Y-103466250D01*
X173951346Y-103470716D01*
X174002142Y-103518691D01*
X174018936Y-103586512D01*
X173996398Y-103652647D01*
X173951346Y-103691684D01*
X173942582Y-103696149D01*
X173770613Y-103821090D01*
X173620290Y-103971413D01*
X173495351Y-104143379D01*
X173398844Y-104332785D01*
X173333153Y-104534960D01*
X173299900Y-104744913D01*
X173299900Y-104957487D01*
X173333154Y-105167443D01*
X173343128Y-105198141D01*
X173398844Y-105369614D01*
X173495351Y-105559020D01*
X173620290Y-105730986D01*
X173770613Y-105881309D01*
X173942582Y-106006250D01*
X173951346Y-106010716D01*
X174002142Y-106058691D01*
X174018936Y-106126512D01*
X173996398Y-106192647D01*
X173951346Y-106231684D01*
X173942582Y-106236149D01*
X173770613Y-106361090D01*
X173620290Y-106511413D01*
X173495351Y-106683379D01*
X173398844Y-106872785D01*
X173333153Y-107074960D01*
X173299900Y-107284913D01*
X173299900Y-107497486D01*
X173332783Y-107705106D01*
X173333154Y-107707443D01*
X173374293Y-107834056D01*
X173398844Y-107909614D01*
X173495351Y-108099020D01*
X173620290Y-108270986D01*
X173770613Y-108421309D01*
X173942582Y-108546250D01*
X173951346Y-108550716D01*
X174002142Y-108598691D01*
X174018936Y-108666512D01*
X173996398Y-108732647D01*
X173951346Y-108771684D01*
X173942582Y-108776149D01*
X173770613Y-108901090D01*
X173620290Y-109051413D01*
X173495351Y-109223379D01*
X173398844Y-109412785D01*
X173333153Y-109614960D01*
X173299900Y-109824913D01*
X173299900Y-110037486D01*
X173333153Y-110247439D01*
X173398844Y-110449614D01*
X173495351Y-110639020D01*
X173620290Y-110810986D01*
X173770613Y-110961309D01*
X173942582Y-111086250D01*
X173951346Y-111090716D01*
X174002142Y-111138691D01*
X174018936Y-111206512D01*
X173996398Y-111272647D01*
X173951346Y-111311684D01*
X173942582Y-111316149D01*
X173770613Y-111441090D01*
X173620290Y-111591413D01*
X173495351Y-111763379D01*
X173398844Y-111952785D01*
X173333153Y-112154960D01*
X173299900Y-112364913D01*
X173299900Y-112577486D01*
X173324944Y-112735612D01*
X173333154Y-112787443D01*
X173377854Y-112925016D01*
X173398844Y-112989614D01*
X173495351Y-113179020D01*
X173620290Y-113350986D01*
X173770613Y-113501309D01*
X173942582Y-113626250D01*
X173951346Y-113630716D01*
X174002142Y-113678691D01*
X174018936Y-113746512D01*
X173996398Y-113812647D01*
X173951346Y-113851684D01*
X173942582Y-113856149D01*
X173770613Y-113981090D01*
X173620290Y-114131413D01*
X173495351Y-114303379D01*
X173398844Y-114492785D01*
X173333153Y-114694960D01*
X173299900Y-114904913D01*
X173299900Y-115117486D01*
X173324944Y-115275612D01*
X173333154Y-115327443D01*
X173379027Y-115468626D01*
X173398844Y-115529614D01*
X173495351Y-115719020D01*
X173620290Y-115890986D01*
X173770613Y-116041309D01*
X173942579Y-116166248D01*
X173942581Y-116166249D01*
X173942584Y-116166251D01*
X173951893Y-116170994D01*
X174002690Y-116218966D01*
X174019487Y-116286787D01*
X173996952Y-116352922D01*
X173951905Y-116391960D01*
X173942846Y-116396576D01*
X173942840Y-116396580D01*
X173888682Y-116435927D01*
X173888682Y-116435928D01*
X174520991Y-117068237D01*
X174457407Y-117085275D01*
X174343393Y-117151101D01*
X174250301Y-117244193D01*
X174184475Y-117358207D01*
X174167437Y-117421791D01*
X173535128Y-116789482D01*
X173535127Y-116789482D01*
X173495780Y-116843639D01*
X173399304Y-117032982D01*
X173333642Y-117235069D01*
X173333642Y-117235072D01*
X173300400Y-117444953D01*
X173300400Y-117657446D01*
X173333642Y-117867327D01*
X173333642Y-117867330D01*
X173399304Y-118069417D01*
X173495775Y-118258750D01*
X173535128Y-118312916D01*
X174167437Y-117680608D01*
X174184475Y-117744193D01*
X174250301Y-117858207D01*
X174343393Y-117951299D01*
X174457407Y-118017125D01*
X174520990Y-118034162D01*
X173888682Y-118666469D01*
X173888682Y-118666470D01*
X173942849Y-118705824D01*
X174132182Y-118802295D01*
X174334270Y-118867957D01*
X174544154Y-118901200D01*
X174756646Y-118901200D01*
X174966527Y-118867957D01*
X174966530Y-118867957D01*
X175168617Y-118802295D01*
X175357954Y-118705822D01*
X175412116Y-118666470D01*
X175412117Y-118666470D01*
X174779808Y-118034162D01*
X174843393Y-118017125D01*
X174957407Y-117951299D01*
X175050499Y-117858207D01*
X175116325Y-117744193D01*
X175133362Y-117680609D01*
X175803581Y-118350828D01*
X175837066Y-118412151D01*
X175839900Y-118438500D01*
X175839900Y-118449065D01*
X175839901Y-118449076D01*
X175846308Y-118508683D01*
X175896602Y-118643528D01*
X175896606Y-118643535D01*
X175982852Y-118758744D01*
X175982855Y-118758747D01*
X176098064Y-118844993D01*
X176098071Y-118844997D01*
X176232917Y-118895291D01*
X176232916Y-118895291D01*
X176239844Y-118896035D01*
X176292527Y-118901700D01*
X178088272Y-118901699D01*
X178147883Y-118895291D01*
X178282731Y-118844996D01*
X178397946Y-118758746D01*
X178484196Y-118643531D01*
X178534491Y-118508683D01*
X178540900Y-118449073D01*
X178540899Y-116653328D01*
X178534491Y-116593717D01*
X178532874Y-116589382D01*
X178484197Y-116458871D01*
X178484193Y-116458864D01*
X178397947Y-116343655D01*
X178397944Y-116343652D01*
X178282735Y-116257406D01*
X178282728Y-116257402D01*
X178151317Y-116208389D01*
X178095383Y-116166518D01*
X178070966Y-116101053D01*
X178085818Y-116032780D01*
X178106963Y-116004532D01*
X178220504Y-115890992D01*
X178345451Y-115719016D01*
X178441957Y-115529612D01*
X178507646Y-115327443D01*
X178540900Y-115117487D01*
X178540900Y-114904913D01*
X178507646Y-114694957D01*
X178441957Y-114492788D01*
X178345451Y-114303384D01*
X178345449Y-114303381D01*
X178345448Y-114303379D01*
X178220509Y-114131413D01*
X178070186Y-113981090D01*
X177898220Y-113856151D01*
X177897515Y-113855791D01*
X177889454Y-113851685D01*
X177838659Y-113803712D01*
X177821863Y-113735892D01*
X177844399Y-113669756D01*
X177889454Y-113630715D01*
X177898216Y-113626251D01*
X177978805Y-113567700D01*
X178070186Y-113501309D01*
X178070188Y-113501306D01*
X178070192Y-113501304D01*
X178220504Y-113350992D01*
X178220506Y-113350988D01*
X178220509Y-113350986D01*
X178345448Y-113179020D01*
X178345447Y-113179020D01*
X178345451Y-113179016D01*
X178441957Y-112989612D01*
X178507646Y-112787443D01*
X178540900Y-112577487D01*
X178540900Y-112364913D01*
X178507646Y-112154957D01*
X178441957Y-111952788D01*
X178345451Y-111763384D01*
X178345449Y-111763381D01*
X178345448Y-111763379D01*
X178220509Y-111591413D01*
X178070186Y-111441090D01*
X177898220Y-111316151D01*
X177897515Y-111315791D01*
X177889454Y-111311685D01*
X177838659Y-111263712D01*
X177821863Y-111195892D01*
X177844399Y-111129756D01*
X177889454Y-111090715D01*
X177898216Y-111086251D01*
X177931390Y-111062149D01*
X178070186Y-110961309D01*
X178070188Y-110961306D01*
X178070192Y-110961304D01*
X178220504Y-110810992D01*
X178220506Y-110810988D01*
X178220509Y-110810986D01*
X178345448Y-110639020D01*
X178345447Y-110639020D01*
X178345451Y-110639016D01*
X178441957Y-110449612D01*
X178507646Y-110247443D01*
X178540900Y-110037487D01*
X178540900Y-109824913D01*
X178507646Y-109614957D01*
X178441957Y-109412788D01*
X178345451Y-109223384D01*
X178345449Y-109223381D01*
X178345448Y-109223379D01*
X178220509Y-109051413D01*
X178070186Y-108901090D01*
X177898220Y-108776151D01*
X177897515Y-108775791D01*
X177889454Y-108771685D01*
X177838659Y-108723712D01*
X177821863Y-108655892D01*
X177844399Y-108589756D01*
X177889454Y-108550715D01*
X177898216Y-108546251D01*
X177920189Y-108530286D01*
X178070186Y-108421309D01*
X178070188Y-108421306D01*
X178070192Y-108421304D01*
X178220504Y-108270992D01*
X178220506Y-108270988D01*
X178220509Y-108270986D01*
X178345448Y-108099020D01*
X178345447Y-108099020D01*
X178345451Y-108099016D01*
X178441957Y-107909612D01*
X178507646Y-107707443D01*
X178540900Y-107497487D01*
X178540900Y-107284913D01*
X178507646Y-107074957D01*
X178441957Y-106872788D01*
X178345451Y-106683384D01*
X178345449Y-106683381D01*
X178345448Y-106683379D01*
X178220509Y-106511413D01*
X178070186Y-106361090D01*
X177898220Y-106236151D01*
X177897515Y-106235791D01*
X177889454Y-106231685D01*
X177838659Y-106183712D01*
X177821863Y-106115892D01*
X177844399Y-106049756D01*
X177889454Y-106010715D01*
X177898216Y-106006251D01*
X177992758Y-105937563D01*
X178070186Y-105881309D01*
X178070188Y-105881306D01*
X178070192Y-105881304D01*
X178220504Y-105730992D01*
X178220506Y-105730988D01*
X178220509Y-105730986D01*
X178345448Y-105559020D01*
X178345447Y-105559020D01*
X178345451Y-105559016D01*
X178441957Y-105369612D01*
X178507646Y-105167443D01*
X178540900Y-104957487D01*
X178540900Y-104744913D01*
X178507646Y-104534957D01*
X178441957Y-104332788D01*
X178345451Y-104143384D01*
X178345449Y-104143381D01*
X178345448Y-104143379D01*
X178220509Y-103971413D01*
X178070186Y-103821090D01*
X177898220Y-103696151D01*
X177897515Y-103695791D01*
X177889454Y-103691685D01*
X177838659Y-103643712D01*
X177821863Y-103575892D01*
X177844399Y-103509756D01*
X177889454Y-103470715D01*
X177898216Y-103466251D01*
X177920189Y-103450286D01*
X178070186Y-103341309D01*
X178070188Y-103341306D01*
X178070192Y-103341304D01*
X178220504Y-103190992D01*
X178220506Y-103190988D01*
X178220509Y-103190986D01*
X178345448Y-103019020D01*
X178345447Y-103019020D01*
X178345451Y-103019016D01*
X178441957Y-102829612D01*
X178507646Y-102627443D01*
X178540900Y-102417487D01*
X178540900Y-102204913D01*
X178507646Y-101994957D01*
X178441957Y-101792788D01*
X178345451Y-101603384D01*
X178345449Y-101603381D01*
X178345448Y-101603379D01*
X178220509Y-101431413D01*
X178070186Y-101281090D01*
X177898220Y-101156151D01*
X177897515Y-101155791D01*
X177889454Y-101151685D01*
X177838659Y-101103712D01*
X177821863Y-101035892D01*
X177844399Y-100969756D01*
X177889454Y-100930715D01*
X177898216Y-100926251D01*
X177920189Y-100910286D01*
X178070186Y-100801309D01*
X178070188Y-100801306D01*
X178070192Y-100801304D01*
X178220504Y-100650992D01*
X178220506Y-100650988D01*
X178220509Y-100650986D01*
X178345448Y-100479020D01*
X178345447Y-100479020D01*
X178345451Y-100479016D01*
X178441957Y-100289612D01*
X178507646Y-100087443D01*
X178540900Y-99877487D01*
X178540900Y-99664913D01*
X178507646Y-99454957D01*
X178441957Y-99252788D01*
X178345451Y-99063384D01*
X178345449Y-99063381D01*
X178345448Y-99063379D01*
X178220509Y-98891413D01*
X178070186Y-98741090D01*
X177898220Y-98616151D01*
X177897515Y-98615791D01*
X177889454Y-98611685D01*
X177838659Y-98563712D01*
X177821863Y-98495892D01*
X177844399Y-98429756D01*
X177889454Y-98390715D01*
X177898216Y-98386251D01*
X177943121Y-98353626D01*
X178070186Y-98261309D01*
X178070188Y-98261306D01*
X178070192Y-98261304D01*
X178220504Y-98110992D01*
X178220506Y-98110988D01*
X178220509Y-98110986D01*
X178345448Y-97939020D01*
X178345447Y-97939020D01*
X178345451Y-97939016D01*
X178441957Y-97749612D01*
X178507646Y-97547443D01*
X178540900Y-97337487D01*
X178540900Y-97124913D01*
X178507646Y-96914957D01*
X178441957Y-96712788D01*
X178345451Y-96523384D01*
X178345449Y-96523381D01*
X178345448Y-96523379D01*
X178220509Y-96351413D01*
X178070186Y-96201090D01*
X177898220Y-96076151D01*
X177708814Y-95979644D01*
X177708813Y-95979643D01*
X177708812Y-95979643D01*
X177506643Y-95913954D01*
X177506641Y-95913953D01*
X177506640Y-95913953D01*
X177345357Y-95888408D01*
X177296687Y-95880700D01*
X177084113Y-95880700D01*
X177035442Y-95888408D01*
X176874160Y-95913953D01*
X176671985Y-95979644D01*
X176482579Y-96076151D01*
X176310613Y-96201090D01*
X176160290Y-96351413D01*
X176035349Y-96523382D01*
X176030884Y-96532146D01*
X175982909Y-96582942D01*
X175915088Y-96599736D01*
X175848953Y-96577198D01*
X175809916Y-96532146D01*
X175805450Y-96523382D01*
X175680509Y-96351413D01*
X175530186Y-96201090D01*
X175358220Y-96076151D01*
X175168814Y-95979644D01*
X175168813Y-95979643D01*
X175168812Y-95979643D01*
X174966643Y-95913954D01*
X174966641Y-95913953D01*
X174966640Y-95913953D01*
X174805357Y-95888408D01*
X174756687Y-95880700D01*
X174544113Y-95880700D01*
X174495442Y-95888408D01*
X174334160Y-95913953D01*
X174131985Y-95979644D01*
X173942579Y-96076151D01*
X173770613Y-96201090D01*
X173620290Y-96351413D01*
X173495351Y-96523379D01*
X173398844Y-96712785D01*
X173333153Y-96914960D01*
X173299900Y-97124913D01*
X171618300Y-97124913D01*
X171618300Y-96728852D01*
X171637985Y-96661813D01*
X171654619Y-96641171D01*
X173323771Y-94972019D01*
X173385094Y-94938534D01*
X173411452Y-94935700D01*
X174297281Y-94935700D01*
X174364320Y-94955385D01*
X174366164Y-94956593D01*
X174450737Y-95013103D01*
X174605518Y-95077216D01*
X174769828Y-95109899D01*
X174769832Y-95109900D01*
X174769833Y-95109900D01*
X174937368Y-95109900D01*
X174937369Y-95109899D01*
X175101682Y-95077216D01*
X175256463Y-95013103D01*
X175395762Y-94920026D01*
X175514226Y-94801562D01*
X175607303Y-94662263D01*
X175671416Y-94507482D01*
X175704100Y-94343167D01*
X175704100Y-94175633D01*
X175671416Y-94011318D01*
X175607303Y-93856537D01*
X175540053Y-93755890D01*
X175514226Y-93717237D01*
X175395762Y-93598773D01*
X175256460Y-93505695D01*
X175101682Y-93441584D01*
X175101674Y-93441582D01*
X174937371Y-93408900D01*
X174937367Y-93408900D01*
X174769833Y-93408900D01*
X174769828Y-93408900D01*
X174605525Y-93441582D01*
X174605517Y-93441584D01*
X174450739Y-93505695D01*
X174311437Y-93598773D01*
X174311434Y-93598776D01*
X174261832Y-93648380D01*
X174200509Y-93681866D01*
X174174150Y-93684700D01*
X173039389Y-93684700D01*
X172982773Y-93695961D01*
X172982761Y-93695964D01*
X172978971Y-93696718D01*
X172918548Y-93708737D01*
X172898025Y-93717238D01*
X172890341Y-93720420D01*
X172890332Y-93720423D01*
X172804713Y-93755888D01*
X172804708Y-93755890D01*
X172702272Y-93824338D01*
X172702264Y-93824344D01*
X170506944Y-96019664D01*
X170506938Y-96019672D01*
X170438490Y-96122108D01*
X170438488Y-96122113D01*
X170405773Y-96201096D01*
X170391338Y-96235944D01*
X170391335Y-96235956D01*
X170367300Y-96356789D01*
X170367300Y-97593149D01*
X170347615Y-97660188D01*
X170335857Y-97674778D01*
X170336039Y-97674928D01*
X170332173Y-97679637D01*
X170239095Y-97818939D01*
X170174984Y-97973717D01*
X170174982Y-97973725D01*
X170142300Y-98138028D01*
X168365529Y-98138028D01*
X168393703Y-98095863D01*
X168457816Y-97941082D01*
X168490500Y-97776767D01*
X168490500Y-97609233D01*
X168457816Y-97444918D01*
X168393703Y-97290137D01*
X168362537Y-97243494D01*
X168300626Y-97150837D01*
X168182162Y-97032373D01*
X168042860Y-96939295D01*
X167888082Y-96875184D01*
X167888074Y-96875182D01*
X167723771Y-96842500D01*
X167723767Y-96842500D01*
X167556233Y-96842500D01*
X167556228Y-96842500D01*
X167391925Y-96875182D01*
X167391917Y-96875184D01*
X167237139Y-96939295D01*
X167097837Y-97032373D01*
X166979373Y-97150837D01*
X166886296Y-97290137D01*
X166832393Y-97420267D01*
X166805514Y-97460493D01*
X161270429Y-102995581D01*
X161209106Y-103029066D01*
X161182748Y-103031900D01*
X160369251Y-103031900D01*
X160302212Y-103012215D01*
X160287621Y-103000457D01*
X160287472Y-103000639D01*
X160282762Y-102996773D01*
X160143460Y-102903695D01*
X159988682Y-102839584D01*
X159988674Y-102839582D01*
X159824371Y-102806900D01*
X159824367Y-102806900D01*
X159656833Y-102806900D01*
X159656828Y-102806900D01*
X159492525Y-102839582D01*
X159492517Y-102839584D01*
X159337739Y-102903695D01*
X159198437Y-102996773D01*
X159079973Y-103115237D01*
X158986895Y-103254539D01*
X158922784Y-103409317D01*
X158922782Y-103409325D01*
X158890100Y-103573628D01*
X106918023Y-103573628D01*
X107007251Y-103450816D01*
X107103757Y-103261412D01*
X107169446Y-103059243D01*
X107202700Y-102849287D01*
X107202700Y-102636713D01*
X107169446Y-102426757D01*
X107103757Y-102224588D01*
X107007251Y-102035184D01*
X107007249Y-102035181D01*
X107007248Y-102035179D01*
X106882309Y-101863213D01*
X106731986Y-101712890D01*
X106560020Y-101587951D01*
X106370614Y-101491444D01*
X106370613Y-101491443D01*
X106370612Y-101491443D01*
X106168443Y-101425754D01*
X106168441Y-101425753D01*
X106168440Y-101425753D01*
X106007157Y-101400208D01*
X105958487Y-101392500D01*
X105745913Y-101392500D01*
X105697242Y-101400208D01*
X105535960Y-101425753D01*
X105333785Y-101491444D01*
X105144379Y-101587951D01*
X104972413Y-101712890D01*
X104822090Y-101863213D01*
X104697151Y-102035179D01*
X104600644Y-102224585D01*
X104534953Y-102426760D01*
X104501700Y-102636713D01*
X93058100Y-102636713D01*
X93058100Y-90260765D01*
X156361000Y-90260765D01*
X156397660Y-90445064D01*
X156397663Y-90445076D01*
X156469572Y-90618681D01*
X156469579Y-90618694D01*
X156573979Y-90774939D01*
X156573982Y-90774943D01*
X156706856Y-90907817D01*
X156706860Y-90907820D01*
X156863105Y-91012220D01*
X156863114Y-91012225D01*
X157036723Y-91084136D01*
X157065000Y-91089760D01*
X157565000Y-91089760D01*
X157593276Y-91084136D01*
X157766885Y-91012225D01*
X157766894Y-91012220D01*
X157923139Y-90907820D01*
X157923143Y-90907817D01*
X158056017Y-90774943D01*
X158056020Y-90774939D01*
X158160420Y-90618694D01*
X158160427Y-90618681D01*
X158232336Y-90445076D01*
X158232339Y-90445064D01*
X158268999Y-90260765D01*
X158269000Y-90260763D01*
X158269000Y-89962800D01*
X157565000Y-89962800D01*
X157565000Y-91089760D01*
X157065000Y-91089760D01*
X157065000Y-89962800D01*
X156361000Y-89962800D01*
X156361000Y-90260765D01*
X93058100Y-90260765D01*
X93058100Y-89164834D01*
X156361000Y-89164834D01*
X156361000Y-89462800D01*
X157065000Y-89462800D01*
X157065000Y-89173018D01*
X157115000Y-89173018D01*
X157115000Y-90252582D01*
X157145448Y-90326091D01*
X157201709Y-90382352D01*
X157275218Y-90412800D01*
X157354782Y-90412800D01*
X157428291Y-90382352D01*
X157484552Y-90326091D01*
X157515000Y-90252582D01*
X157515000Y-89462800D01*
X157565000Y-89462800D01*
X158269000Y-89462800D01*
X158269000Y-89396323D01*
X158610500Y-89396323D01*
X158610500Y-89589276D01*
X158648140Y-89778502D01*
X158648142Y-89778510D01*
X158721979Y-89956768D01*
X158721979Y-89956769D01*
X158829169Y-90117190D01*
X158829175Y-90117198D01*
X158965601Y-90253624D01*
X158965609Y-90253630D01*
X159126030Y-90360820D01*
X159126034Y-90360822D01*
X159183952Y-90384812D01*
X159238356Y-90428652D01*
X159260421Y-90494946D01*
X159260500Y-90499373D01*
X159260500Y-90589276D01*
X159298140Y-90778502D01*
X159298142Y-90778510D01*
X159371979Y-90956768D01*
X159371979Y-90956769D01*
X159479169Y-91117190D01*
X159479175Y-91117198D01*
X159615601Y-91253624D01*
X159615609Y-91253630D01*
X159776031Y-91360820D01*
X159776032Y-91360820D01*
X159776033Y-91360821D01*
X159954290Y-91434658D01*
X160143523Y-91472299D01*
X160143526Y-91472300D01*
X160143528Y-91472300D01*
X160336474Y-91472300D01*
X160336475Y-91472299D01*
X160525710Y-91434658D01*
X160703967Y-91360821D01*
X160821110Y-91282548D01*
X160887787Y-91261671D01*
X160955167Y-91280156D01*
X160958866Y-91282533D01*
X161076033Y-91360821D01*
X161254290Y-91434658D01*
X161443523Y-91472299D01*
X161443526Y-91472300D01*
X161443528Y-91472300D01*
X161636474Y-91472300D01*
X161636475Y-91472299D01*
X161825710Y-91434658D01*
X162003967Y-91360821D01*
X162003968Y-91360820D01*
X162003969Y-91360820D01*
X162152356Y-91261671D01*
X162164395Y-91253627D01*
X162300827Y-91117195D01*
X162408021Y-90956767D01*
X162481858Y-90778510D01*
X162519500Y-90589272D01*
X162519500Y-90498833D01*
X162539185Y-90431794D01*
X162591989Y-90386039D01*
X162596048Y-90384272D01*
X162653723Y-90360382D01*
X162683879Y-90340232D01*
X162604411Y-90260765D01*
X163511000Y-90260765D01*
X163547660Y-90445064D01*
X163547663Y-90445076D01*
X163619572Y-90618681D01*
X163619579Y-90618694D01*
X163723979Y-90774939D01*
X163723982Y-90774943D01*
X163856856Y-90907817D01*
X163856860Y-90907820D01*
X164013105Y-91012220D01*
X164013114Y-91012225D01*
X164186723Y-91084136D01*
X164215000Y-91089760D01*
X164715000Y-91089760D01*
X164743276Y-91084136D01*
X164916885Y-91012225D01*
X164916894Y-91012220D01*
X165073139Y-90907820D01*
X165073143Y-90907817D01*
X165206017Y-90774943D01*
X165206020Y-90774939D01*
X165310420Y-90618694D01*
X165310427Y-90618681D01*
X165382336Y-90445076D01*
X165382339Y-90445064D01*
X165418999Y-90260765D01*
X165419000Y-90260763D01*
X165419000Y-89962800D01*
X164715000Y-89962800D01*
X164715000Y-91089760D01*
X164215000Y-91089760D01*
X164215000Y-89962800D01*
X163511000Y-89962800D01*
X163511000Y-90260765D01*
X162604411Y-90260765D01*
X162450593Y-90106948D01*
X162423715Y-90066721D01*
X162408021Y-90028833D01*
X162363899Y-89962800D01*
X162300830Y-89868409D01*
X162300824Y-89868401D01*
X162164398Y-89731975D01*
X162164393Y-89731971D01*
X162161997Y-89730370D01*
X162161025Y-89729207D01*
X162159687Y-89728109D01*
X162159895Y-89727855D01*
X162151492Y-89717800D01*
X162234755Y-89717800D01*
X162317452Y-89683546D01*
X162380746Y-89620252D01*
X162415000Y-89537555D01*
X162415000Y-89492799D01*
X162543553Y-89492799D01*
X162543553Y-89492800D01*
X163037432Y-89986679D01*
X163057581Y-89956524D01*
X163095913Y-89863985D01*
X163095913Y-89863983D01*
X163131376Y-89778368D01*
X163131379Y-89778356D01*
X163168999Y-89589227D01*
X163169000Y-89589224D01*
X163169000Y-89396376D01*
X163168999Y-89396372D01*
X163131379Y-89207243D01*
X163131376Y-89207232D01*
X163130947Y-89206195D01*
X163113815Y-89164834D01*
X163511000Y-89164834D01*
X163511000Y-89462800D01*
X164215000Y-89462800D01*
X164215000Y-89173018D01*
X164265000Y-89173018D01*
X164265000Y-90252582D01*
X164295448Y-90326091D01*
X164351709Y-90382352D01*
X164425218Y-90412800D01*
X164504782Y-90412800D01*
X164578291Y-90382352D01*
X164634552Y-90326091D01*
X164665000Y-90252582D01*
X164665000Y-89462800D01*
X164715000Y-89462800D01*
X165419000Y-89462800D01*
X165419000Y-89164836D01*
X165418999Y-89164834D01*
X165382339Y-88980535D01*
X165382336Y-88980523D01*
X165310427Y-88806918D01*
X165310420Y-88806905D01*
X165206020Y-88650660D01*
X165206017Y-88650656D01*
X165073143Y-88517782D01*
X165073139Y-88517779D01*
X164916894Y-88413379D01*
X164916881Y-88413372D01*
X164743274Y-88341462D01*
X164743266Y-88341460D01*
X164715000Y-88335837D01*
X164715000Y-89462800D01*
X164665000Y-89462800D01*
X164665000Y-89173018D01*
X164634552Y-89099509D01*
X164578291Y-89043248D01*
X164504782Y-89012800D01*
X164425218Y-89012800D01*
X164351709Y-89043248D01*
X164295448Y-89099509D01*
X164265000Y-89173018D01*
X164215000Y-89173018D01*
X164215000Y-88335838D01*
X164214999Y-88335837D01*
X164186733Y-88341460D01*
X164186725Y-88341462D01*
X164013118Y-88413372D01*
X164013105Y-88413379D01*
X163856860Y-88517779D01*
X163856856Y-88517782D01*
X163723982Y-88650656D01*
X163723979Y-88650660D01*
X163619579Y-88806905D01*
X163619572Y-88806918D01*
X163547663Y-88980523D01*
X163547660Y-88980535D01*
X163511000Y-89164834D01*
X163113815Y-89164834D01*
X163057579Y-89029071D01*
X163037432Y-88998919D01*
X163037432Y-88998918D01*
X162543553Y-89492799D01*
X162415000Y-89492799D01*
X162415000Y-89448045D01*
X162380746Y-89365348D01*
X162317452Y-89302054D01*
X162234755Y-89267800D01*
X162145245Y-89267800D01*
X162070539Y-89298743D01*
X162072403Y-89272689D01*
X162100904Y-89228342D01*
X162683880Y-88645366D01*
X162683879Y-88645365D01*
X162653738Y-88625226D01*
X162653725Y-88625219D01*
X162475564Y-88551422D01*
X162475556Y-88551420D01*
X162286427Y-88513800D01*
X162093572Y-88513800D01*
X161904443Y-88551420D01*
X161904435Y-88551422D01*
X161726272Y-88625219D01*
X161726258Y-88625227D01*
X161609339Y-88703350D01*
X161542662Y-88724228D01*
X161475282Y-88705743D01*
X161471559Y-88703351D01*
X161392695Y-88650656D01*
X161353967Y-88624779D01*
X161175710Y-88550942D01*
X161175702Y-88550940D01*
X160986475Y-88513300D01*
X160986472Y-88513300D01*
X160793528Y-88513300D01*
X160793525Y-88513300D01*
X160604297Y-88550940D01*
X160604289Y-88550942D01*
X160426034Y-88624778D01*
X160308890Y-88703051D01*
X160242213Y-88723928D01*
X160174833Y-88705443D01*
X160171110Y-88703051D01*
X160092695Y-88650656D01*
X160053967Y-88624779D01*
X159875710Y-88550942D01*
X159875702Y-88550940D01*
X159686475Y-88513300D01*
X159686472Y-88513300D01*
X159493528Y-88513300D01*
X159493525Y-88513300D01*
X159304297Y-88550940D01*
X159304289Y-88550942D01*
X159126031Y-88624779D01*
X159126030Y-88624779D01*
X158965609Y-88731969D01*
X158965601Y-88731975D01*
X158829175Y-88868401D01*
X158829169Y-88868409D01*
X158721979Y-89028830D01*
X158721979Y-89028831D01*
X158648142Y-89207089D01*
X158648140Y-89207097D01*
X158610500Y-89396323D01*
X158269000Y-89396323D01*
X158269000Y-89164836D01*
X158268999Y-89164834D01*
X158232339Y-88980535D01*
X158232336Y-88980523D01*
X158160427Y-88806918D01*
X158160420Y-88806905D01*
X158056020Y-88650660D01*
X158056017Y-88650656D01*
X157923143Y-88517782D01*
X157923139Y-88517779D01*
X157766894Y-88413379D01*
X157766881Y-88413372D01*
X157593274Y-88341462D01*
X157593266Y-88341460D01*
X157565000Y-88335837D01*
X157565000Y-89462800D01*
X157515000Y-89462800D01*
X157515000Y-89173018D01*
X157484552Y-89099509D01*
X157428291Y-89043248D01*
X157354782Y-89012800D01*
X157275218Y-89012800D01*
X157201709Y-89043248D01*
X157145448Y-89099509D01*
X157115000Y-89173018D01*
X157065000Y-89173018D01*
X157065000Y-88335838D01*
X157064999Y-88335837D01*
X157036733Y-88341460D01*
X157036725Y-88341462D01*
X156863118Y-88413372D01*
X156863105Y-88413379D01*
X156706860Y-88517779D01*
X156706856Y-88517782D01*
X156573982Y-88650656D01*
X156573979Y-88650660D01*
X156469579Y-88806905D01*
X156469572Y-88806918D01*
X156397663Y-88980523D01*
X156397660Y-88980535D01*
X156361000Y-89164834D01*
X93058100Y-89164834D01*
X93058100Y-77767228D01*
X144005700Y-77767228D01*
X144005700Y-77934771D01*
X144038382Y-78099074D01*
X144038384Y-78099082D01*
X144102495Y-78253860D01*
X144195573Y-78393162D01*
X144314037Y-78511626D01*
X144406197Y-78573205D01*
X144453337Y-78604703D01*
X144608118Y-78668816D01*
X144735809Y-78694215D01*
X144772428Y-78701499D01*
X144772432Y-78701500D01*
X144772433Y-78701500D01*
X144939968Y-78701500D01*
X144939969Y-78701499D01*
X145104282Y-78668816D01*
X145182687Y-78636338D01*
X145230140Y-78626900D01*
X165172739Y-78626900D01*
X165220191Y-78636338D01*
X165359918Y-78694216D01*
X165524228Y-78726899D01*
X165524232Y-78726900D01*
X165524233Y-78726900D01*
X165691768Y-78726900D01*
X165691769Y-78726899D01*
X165856082Y-78694216D01*
X166010863Y-78630103D01*
X166150162Y-78537026D01*
X166150165Y-78537023D01*
X166192819Y-78494370D01*
X166254142Y-78460885D01*
X166323834Y-78465869D01*
X166379767Y-78507741D01*
X166404184Y-78573205D01*
X166404500Y-78582051D01*
X166404500Y-79110530D01*
X166404499Y-79110548D01*
X166404499Y-79276254D01*
X166404498Y-79276254D01*
X166445423Y-79428985D01*
X166474358Y-79479100D01*
X166474359Y-79479104D01*
X166474360Y-79479104D01*
X166524479Y-79565914D01*
X166524481Y-79565917D01*
X166643349Y-79684785D01*
X166643355Y-79684790D01*
X166981781Y-80023216D01*
X167015266Y-80084539D01*
X167018100Y-80110897D01*
X167018100Y-80144571D01*
X167050782Y-80308874D01*
X167050784Y-80308882D01*
X167114895Y-80463660D01*
X167207973Y-80602962D01*
X167326437Y-80721426D01*
X167419094Y-80783337D01*
X167465737Y-80814503D01*
X167620518Y-80878616D01*
X167784828Y-80911299D01*
X167784832Y-80911300D01*
X167784833Y-80911300D01*
X167952368Y-80911300D01*
X167952369Y-80911299D01*
X168116682Y-80878616D01*
X168271463Y-80814503D01*
X168410762Y-80721426D01*
X168529226Y-80602962D01*
X168622303Y-80463663D01*
X168686416Y-80308882D01*
X168719100Y-80144567D01*
X168719100Y-79977033D01*
X168686416Y-79812718D01*
X168630498Y-79677721D01*
X168622304Y-79657939D01*
X168529226Y-79518637D01*
X168410762Y-79400173D01*
X168271460Y-79307095D01*
X168116682Y-79242984D01*
X168116674Y-79242982D01*
X167952371Y-79210300D01*
X167952367Y-79210300D01*
X167918697Y-79210300D01*
X167851658Y-79190615D01*
X167831016Y-79173981D01*
X167641819Y-78984784D01*
X167608334Y-78923461D01*
X167605500Y-78897103D01*
X167605500Y-69897945D01*
X167605500Y-69897943D01*
X167564577Y-69745216D01*
X167564577Y-69745215D01*
X167564577Y-69745214D01*
X167535639Y-69695095D01*
X167535637Y-69695092D01*
X167485520Y-69608284D01*
X167373716Y-69496480D01*
X167373715Y-69496479D01*
X167369385Y-69492149D01*
X167369374Y-69492139D01*
X165333590Y-67456355D01*
X165333588Y-67456352D01*
X165214717Y-67337481D01*
X165214716Y-67337480D01*
X165107948Y-67275838D01*
X165107947Y-67275837D01*
X165077783Y-67258422D01*
X165021881Y-67243443D01*
X164925057Y-67217499D01*
X164766943Y-67217499D01*
X164759347Y-67217499D01*
X164759331Y-67217500D01*
X162273851Y-67217500D01*
X162206812Y-67197815D01*
X162186170Y-67181181D01*
X162162362Y-67157373D01*
X162023060Y-67064295D01*
X161868282Y-67000184D01*
X161868274Y-67000182D01*
X161703971Y-66967500D01*
X161703967Y-66967500D01*
X161536433Y-66967500D01*
X161536428Y-66967500D01*
X161372125Y-67000182D01*
X161372117Y-67000184D01*
X161217339Y-67064295D01*
X161078037Y-67157373D01*
X160959573Y-67275837D01*
X160866495Y-67415139D01*
X160802384Y-67569917D01*
X160802382Y-67569925D01*
X160769700Y-67734228D01*
X160769700Y-67901771D01*
X160802382Y-68066074D01*
X160802384Y-68066082D01*
X160866495Y-68220860D01*
X160959573Y-68360162D01*
X161078037Y-68478626D01*
X161170694Y-68540537D01*
X161217337Y-68571703D01*
X161372118Y-68635816D01*
X161536428Y-68668499D01*
X161536432Y-68668500D01*
X161536433Y-68668500D01*
X161703968Y-68668500D01*
X161703969Y-68668499D01*
X161868282Y-68635816D01*
X162023063Y-68571703D01*
X162162362Y-68478626D01*
X162162365Y-68478623D01*
X162186170Y-68454819D01*
X162247493Y-68421334D01*
X162273851Y-68418500D01*
X164545903Y-68418500D01*
X164612942Y-68438185D01*
X164633584Y-68454819D01*
X166368181Y-70189416D01*
X166401666Y-70250739D01*
X166404500Y-70277097D01*
X166404500Y-77170749D01*
X166384815Y-77237788D01*
X166332011Y-77283543D01*
X166262853Y-77293487D01*
X166199297Y-77264462D01*
X166192819Y-77258430D01*
X166150162Y-77215773D01*
X166010860Y-77122695D01*
X165856082Y-77058584D01*
X165856074Y-77058582D01*
X165691771Y-77025900D01*
X165691767Y-77025900D01*
X165524233Y-77025900D01*
X165524228Y-77025900D01*
X165359925Y-77058582D01*
X165359917Y-77058584D01*
X165220192Y-77116461D01*
X165172739Y-77125900D01*
X145339485Y-77125900D01*
X145272446Y-77106215D01*
X145270595Y-77105002D01*
X145259065Y-77097298D01*
X145259061Y-77097296D01*
X145104282Y-77033184D01*
X145104274Y-77033182D01*
X144939971Y-77000500D01*
X144939967Y-77000500D01*
X144772433Y-77000500D01*
X144772428Y-77000500D01*
X144608125Y-77033182D01*
X144608117Y-77033184D01*
X144453339Y-77097295D01*
X144314037Y-77190373D01*
X144195573Y-77308837D01*
X144102495Y-77448139D01*
X144038384Y-77602917D01*
X144038382Y-77602925D01*
X144005700Y-77767228D01*
X93058100Y-77767228D01*
X93058100Y-60508463D01*
X98387700Y-60508463D01*
X98387700Y-60705936D01*
X98418589Y-60900963D01*
X98479608Y-61088758D01*
X98479609Y-61088761D01*
X98569256Y-61264701D01*
X98569258Y-61264704D01*
X98685315Y-61424446D01*
X98824953Y-61564084D01*
X98974434Y-61672686D01*
X98984699Y-61680144D01*
X99160639Y-61769791D01*
X99285837Y-61810470D01*
X99348436Y-61830810D01*
X99543464Y-61861700D01*
X99543469Y-61861700D01*
X101248936Y-61861700D01*
X101443963Y-61830810D01*
X101631761Y-61769791D01*
X101807701Y-61680144D01*
X101897392Y-61614979D01*
X101967446Y-61564084D01*
X101967448Y-61564081D01*
X101967452Y-61564079D01*
X102107079Y-61424452D01*
X102107081Y-61424448D01*
X102107084Y-61424446D01*
X102157979Y-61354392D01*
X102223144Y-61264701D01*
X102312791Y-61088761D01*
X102373810Y-60900963D01*
X102388862Y-60805929D01*
X102404700Y-60705936D01*
X102404700Y-60508463D01*
X102373810Y-60313436D01*
X102353470Y-60250837D01*
X102312791Y-60125639D01*
X102223144Y-59949699D01*
X102215686Y-59939434D01*
X102107084Y-59789953D01*
X101967446Y-59650315D01*
X101807704Y-59534258D01*
X101807703Y-59534257D01*
X101807701Y-59534256D01*
X101631761Y-59444609D01*
X101599544Y-59434141D01*
X101443963Y-59383589D01*
X101248936Y-59352700D01*
X101248931Y-59352700D01*
X99543469Y-59352700D01*
X99543464Y-59352700D01*
X99348436Y-59383589D01*
X99160641Y-59444608D01*
X98984695Y-59534258D01*
X98824953Y-59650315D01*
X98685315Y-59789953D01*
X98569258Y-59949695D01*
X98479608Y-60125641D01*
X98418589Y-60313436D01*
X98387700Y-60508463D01*
X93058100Y-60508463D01*
X93058100Y-56754463D01*
X94441700Y-56754463D01*
X94441700Y-58459936D01*
X94472589Y-58654963D01*
X94517580Y-58793428D01*
X94533609Y-58842761D01*
X94593841Y-58960971D01*
X94623258Y-59018704D01*
X94739315Y-59178446D01*
X94878953Y-59318084D01*
X95028434Y-59426686D01*
X95038699Y-59434144D01*
X95214639Y-59523791D01*
X95339837Y-59564470D01*
X95402436Y-59584810D01*
X95597464Y-59615700D01*
X95597469Y-59615700D01*
X95794936Y-59615700D01*
X95989963Y-59584810D01*
X96177761Y-59523791D01*
X96353701Y-59434144D01*
X96465800Y-59352700D01*
X96513446Y-59318084D01*
X96513448Y-59318081D01*
X96513452Y-59318079D01*
X96653079Y-59178452D01*
X96653081Y-59178448D01*
X96653084Y-59178446D01*
X96703979Y-59108392D01*
X96769144Y-59018701D01*
X96858791Y-58842761D01*
X96874820Y-58793428D01*
X137655700Y-58793428D01*
X137655700Y-58960971D01*
X137688382Y-59125274D01*
X137688384Y-59125282D01*
X137746261Y-59265008D01*
X137755700Y-59312461D01*
X137755700Y-60475118D01*
X137755700Y-60475120D01*
X137755699Y-60475120D01*
X137784540Y-60620107D01*
X137784543Y-60620117D01*
X137841114Y-60756692D01*
X137874012Y-60805927D01*
X137874013Y-60805930D01*
X137923246Y-60879614D01*
X137923252Y-60879621D01*
X141300781Y-64257148D01*
X141334266Y-64318471D01*
X141337100Y-64344829D01*
X141337100Y-72971918D01*
X141337100Y-72971920D01*
X141337099Y-72971920D01*
X141365940Y-73116907D01*
X141365943Y-73116917D01*
X141422514Y-73253492D01*
X141455412Y-73302727D01*
X141455413Y-73302730D01*
X141504646Y-73376414D01*
X141504652Y-73376421D01*
X142747738Y-74619505D01*
X142774618Y-74659733D01*
X142832495Y-74799460D01*
X142925573Y-74938762D01*
X143044037Y-75057226D01*
X143136694Y-75119137D01*
X143183337Y-75150303D01*
X143338118Y-75214416D01*
X143502428Y-75247099D01*
X143502432Y-75247100D01*
X143502433Y-75247100D01*
X143669968Y-75247100D01*
X143669969Y-75247099D01*
X143834282Y-75214416D01*
X143989063Y-75150303D01*
X144128362Y-75057226D01*
X144246826Y-74938762D01*
X144339903Y-74799463D01*
X144404016Y-74644682D01*
X144436700Y-74480367D01*
X144436700Y-74312833D01*
X144404016Y-74148518D01*
X144339903Y-73993737D01*
X144308737Y-73947094D01*
X144246826Y-73854437D01*
X144128362Y-73735973D01*
X143989060Y-73642895D01*
X143849333Y-73585018D01*
X143809105Y-73558138D01*
X142874419Y-72623451D01*
X142840934Y-72562128D01*
X142838100Y-72535770D01*
X142838100Y-63908679D01*
X142809259Y-63763692D01*
X142809258Y-63763691D01*
X142809258Y-63763687D01*
X142809256Y-63763682D01*
X142752687Y-63627111D01*
X142752680Y-63627098D01*
X142670552Y-63504185D01*
X142670551Y-63504184D01*
X142566016Y-63399649D01*
X139293019Y-60126651D01*
X139259534Y-60065328D01*
X139256700Y-60038970D01*
X139256700Y-59312461D01*
X139266139Y-59265008D01*
X139324016Y-59125282D01*
X139356700Y-58960967D01*
X139356700Y-58793433D01*
X139324016Y-58629118D01*
X139259903Y-58474337D01*
X139228737Y-58427694D01*
X139166826Y-58335037D01*
X139048362Y-58216573D01*
X138909060Y-58123495D01*
X138754282Y-58059384D01*
X138754274Y-58059382D01*
X138589971Y-58026700D01*
X138589967Y-58026700D01*
X138422433Y-58026700D01*
X138422428Y-58026700D01*
X138258125Y-58059382D01*
X138258117Y-58059384D01*
X138103339Y-58123495D01*
X137964037Y-58216573D01*
X137845573Y-58335037D01*
X137752495Y-58474339D01*
X137688384Y-58629117D01*
X137688382Y-58629125D01*
X137655700Y-58793428D01*
X96874820Y-58793428D01*
X96919810Y-58654963D01*
X96928635Y-58599239D01*
X96950700Y-58459936D01*
X96950700Y-56754463D01*
X96919810Y-56559436D01*
X96888625Y-56463459D01*
X96878154Y-56431232D01*
X96878153Y-56431228D01*
X122695100Y-56431228D01*
X122695100Y-56598771D01*
X122727782Y-56763074D01*
X122727784Y-56763082D01*
X122791895Y-56917860D01*
X122884973Y-57057162D01*
X123003437Y-57175626D01*
X123069547Y-57219799D01*
X123142737Y-57268703D01*
X123142738Y-57268703D01*
X123142739Y-57268704D01*
X123177801Y-57283227D01*
X123297518Y-57332816D01*
X123461828Y-57365499D01*
X123461832Y-57365500D01*
X123461833Y-57365500D01*
X123629368Y-57365500D01*
X123629369Y-57365499D01*
X123793682Y-57332816D01*
X123948463Y-57268703D01*
X124087762Y-57175626D01*
X124206226Y-57057162D01*
X124299303Y-56917863D01*
X124363416Y-56763082D01*
X124396100Y-56598767D01*
X124396100Y-56431233D01*
X124363416Y-56266918D01*
X124305538Y-56127191D01*
X124296100Y-56079739D01*
X124296100Y-54402450D01*
X124315785Y-54335411D01*
X124332414Y-54314773D01*
X124409426Y-54237762D01*
X124502503Y-54098463D01*
X124566616Y-53943682D01*
X124571423Y-53919513D01*
X156358100Y-53919513D01*
X156358100Y-54132086D01*
X156390303Y-54335411D01*
X156391354Y-54342043D01*
X156425989Y-54448639D01*
X156457044Y-54544214D01*
X156553551Y-54733620D01*
X156678490Y-54905586D01*
X156792030Y-55019126D01*
X156825515Y-55080449D01*
X156820531Y-55150141D01*
X156778659Y-55206074D01*
X156747683Y-55222989D01*
X156616269Y-55272003D01*
X156616264Y-55272006D01*
X156501055Y-55358252D01*
X156501052Y-55358255D01*
X156414806Y-55473464D01*
X156414802Y-55473471D01*
X156364508Y-55608317D01*
X156358101Y-55667916D01*
X156358100Y-55667935D01*
X156358100Y-57463670D01*
X156358101Y-57463676D01*
X156364508Y-57523283D01*
X156414802Y-57658128D01*
X156414806Y-57658135D01*
X156501052Y-57773344D01*
X156501055Y-57773347D01*
X156616264Y-57859593D01*
X156616271Y-57859597D01*
X156751117Y-57909891D01*
X156751116Y-57909891D01*
X156758044Y-57910635D01*
X156810727Y-57916300D01*
X158606472Y-57916299D01*
X158666083Y-57909891D01*
X158800931Y-57859596D01*
X158916146Y-57773346D01*
X159002396Y-57658131D01*
X159051410Y-57526716D01*
X159093281Y-57470784D01*
X159158745Y-57446366D01*
X159227018Y-57461217D01*
X159255273Y-57482369D01*
X159368813Y-57595909D01*
X159540779Y-57720848D01*
X159540781Y-57720849D01*
X159540784Y-57720851D01*
X159730188Y-57817357D01*
X159932357Y-57883046D01*
X160142313Y-57916300D01*
X160142314Y-57916300D01*
X160354886Y-57916300D01*
X160354887Y-57916300D01*
X160564843Y-57883046D01*
X160767012Y-57817357D01*
X160956416Y-57720851D01*
X161042738Y-57658135D01*
X161128386Y-57595909D01*
X161128388Y-57595906D01*
X161128392Y-57595904D01*
X161278704Y-57445592D01*
X161278706Y-57445588D01*
X161278709Y-57445586D01*
X161403648Y-57273620D01*
X161403647Y-57273620D01*
X161403651Y-57273616D01*
X161408114Y-57264854D01*
X161456088Y-57214059D01*
X161523908Y-57197263D01*
X161590044Y-57219799D01*
X161629086Y-57264856D01*
X161633551Y-57273620D01*
X161758490Y-57445586D01*
X161908813Y-57595909D01*
X162080779Y-57720848D01*
X162080781Y-57720849D01*
X162080784Y-57720851D01*
X162270188Y-57817357D01*
X162472357Y-57883046D01*
X162682313Y-57916300D01*
X162682314Y-57916300D01*
X162894886Y-57916300D01*
X162894887Y-57916300D01*
X163104843Y-57883046D01*
X163307012Y-57817357D01*
X163496416Y-57720851D01*
X163582738Y-57658135D01*
X163668386Y-57595909D01*
X163668388Y-57595906D01*
X163668392Y-57595904D01*
X163818704Y-57445592D01*
X163818706Y-57445588D01*
X163818709Y-57445586D01*
X163943648Y-57273620D01*
X163943647Y-57273620D01*
X163943651Y-57273616D01*
X163948114Y-57264854D01*
X163996088Y-57214059D01*
X164063908Y-57197263D01*
X164130044Y-57219799D01*
X164169086Y-57264856D01*
X164173551Y-57273620D01*
X164298490Y-57445586D01*
X164448813Y-57595909D01*
X164620779Y-57720848D01*
X164620781Y-57720849D01*
X164620784Y-57720851D01*
X164810188Y-57817357D01*
X165012357Y-57883046D01*
X165222313Y-57916300D01*
X165222314Y-57916300D01*
X165434886Y-57916300D01*
X165434887Y-57916300D01*
X165644843Y-57883046D01*
X165847012Y-57817357D01*
X166036416Y-57720851D01*
X166122738Y-57658135D01*
X166208386Y-57595909D01*
X166208388Y-57595906D01*
X166208392Y-57595904D01*
X166358704Y-57445592D01*
X166358706Y-57445588D01*
X166358709Y-57445586D01*
X166483648Y-57273620D01*
X166483647Y-57273620D01*
X166483651Y-57273616D01*
X166580157Y-57084212D01*
X166645846Y-56882043D01*
X166679100Y-56672087D01*
X166679100Y-56459513D01*
X166645846Y-56249557D01*
X166580157Y-56047388D01*
X166483651Y-55857984D01*
X166483649Y-55857981D01*
X166483648Y-55857979D01*
X166358709Y-55686013D01*
X166208386Y-55535690D01*
X166036420Y-55410751D01*
X166035715Y-55410391D01*
X166027654Y-55406285D01*
X165976859Y-55358312D01*
X165960063Y-55290492D01*
X165982599Y-55224356D01*
X166027654Y-55185315D01*
X166036416Y-55180851D01*
X166137789Y-55107200D01*
X166208386Y-55055909D01*
X166208388Y-55055906D01*
X166208392Y-55055904D01*
X166358704Y-54905592D01*
X166358706Y-54905588D01*
X166358709Y-54905586D01*
X166483648Y-54733620D01*
X166483647Y-54733620D01*
X166483651Y-54733616D01*
X166580157Y-54544212D01*
X166645846Y-54342043D01*
X166679100Y-54132087D01*
X166679100Y-54026113D01*
X172715700Y-54026113D01*
X172715700Y-54238686D01*
X172741637Y-54402450D01*
X172748954Y-54448643D01*
X172780006Y-54544212D01*
X172814644Y-54650814D01*
X172911151Y-54840220D01*
X173036090Y-55012186D01*
X173149630Y-55125726D01*
X173183115Y-55187049D01*
X173178131Y-55256741D01*
X173136259Y-55312674D01*
X173105283Y-55329589D01*
X172973869Y-55378603D01*
X172973864Y-55378606D01*
X172858655Y-55464852D01*
X172858652Y-55464855D01*
X172772406Y-55580064D01*
X172772402Y-55580071D01*
X172722108Y-55714917D01*
X172715701Y-55774516D01*
X172715700Y-55774535D01*
X172715700Y-57570270D01*
X172715701Y-57570276D01*
X172722108Y-57629883D01*
X172772402Y-57764728D01*
X172772406Y-57764735D01*
X172858652Y-57879944D01*
X172858655Y-57879947D01*
X172973864Y-57966193D01*
X172973871Y-57966197D01*
X173108717Y-58016491D01*
X173108716Y-58016491D01*
X173115644Y-58017235D01*
X173168327Y-58022900D01*
X174964072Y-58022899D01*
X175023683Y-58016491D01*
X175158531Y-57966196D01*
X175273746Y-57879946D01*
X175359996Y-57764731D01*
X175409010Y-57633316D01*
X175450881Y-57577384D01*
X175516345Y-57552966D01*
X175584618Y-57567817D01*
X175612873Y-57588969D01*
X175726413Y-57702509D01*
X175898379Y-57827448D01*
X175898381Y-57827449D01*
X175898384Y-57827451D01*
X176087788Y-57923957D01*
X176289957Y-57989646D01*
X176499913Y-58022900D01*
X176499914Y-58022900D01*
X176712486Y-58022900D01*
X176712487Y-58022900D01*
X176922443Y-57989646D01*
X177124612Y-57923957D01*
X177314016Y-57827451D01*
X177335989Y-57811486D01*
X177485986Y-57702509D01*
X177485988Y-57702506D01*
X177485992Y-57702504D01*
X177636304Y-57552192D01*
X177636306Y-57552188D01*
X177636309Y-57552186D01*
X177761248Y-57380220D01*
X177761247Y-57380220D01*
X177761251Y-57380216D01*
X177765714Y-57371454D01*
X177813688Y-57320659D01*
X177881508Y-57303863D01*
X177947644Y-57326399D01*
X177986686Y-57371456D01*
X177991151Y-57380220D01*
X178116090Y-57552186D01*
X178266413Y-57702509D01*
X178438379Y-57827448D01*
X178438381Y-57827449D01*
X178438384Y-57827451D01*
X178627788Y-57923957D01*
X178829957Y-57989646D01*
X179039913Y-58022900D01*
X179039914Y-58022900D01*
X179252486Y-58022900D01*
X179252487Y-58022900D01*
X179462443Y-57989646D01*
X179664612Y-57923957D01*
X179854016Y-57827451D01*
X179875989Y-57811486D01*
X180025986Y-57702509D01*
X180025988Y-57702506D01*
X180025992Y-57702504D01*
X180176304Y-57552192D01*
X180176306Y-57552188D01*
X180176309Y-57552186D01*
X180301248Y-57380220D01*
X180301247Y-57380220D01*
X180301251Y-57380216D01*
X180305714Y-57371454D01*
X180353688Y-57320659D01*
X180421508Y-57303863D01*
X180487644Y-57326399D01*
X180526686Y-57371456D01*
X180531151Y-57380220D01*
X180656090Y-57552186D01*
X180806413Y-57702509D01*
X180978379Y-57827448D01*
X180978381Y-57827449D01*
X180978384Y-57827451D01*
X181167788Y-57923957D01*
X181369957Y-57989646D01*
X181579913Y-58022900D01*
X181579914Y-58022900D01*
X181792486Y-58022900D01*
X181792487Y-58022900D01*
X182002443Y-57989646D01*
X182204612Y-57923957D01*
X182394016Y-57827451D01*
X182415989Y-57811486D01*
X182565986Y-57702509D01*
X182565988Y-57702506D01*
X182565992Y-57702504D01*
X182716304Y-57552192D01*
X182716306Y-57552188D01*
X182716309Y-57552186D01*
X182841248Y-57380220D01*
X182841247Y-57380220D01*
X182841251Y-57380216D01*
X182937757Y-57190812D01*
X183003446Y-56988643D01*
X183036700Y-56778687D01*
X183036700Y-56566113D01*
X183003446Y-56356157D01*
X182937757Y-56153988D01*
X182841251Y-55964584D01*
X182841249Y-55964581D01*
X182841248Y-55964579D01*
X182716309Y-55792613D01*
X182565986Y-55642290D01*
X182394020Y-55517351D01*
X182393315Y-55516991D01*
X182385254Y-55512885D01*
X182334459Y-55464912D01*
X182317663Y-55397092D01*
X182340199Y-55330956D01*
X182385254Y-55291915D01*
X182394016Y-55287451D01*
X182436285Y-55256741D01*
X182565986Y-55162509D01*
X182565988Y-55162506D01*
X182565992Y-55162504D01*
X182716304Y-55012192D01*
X182716306Y-55012188D01*
X182716309Y-55012186D01*
X182841248Y-54840220D01*
X182841247Y-54840220D01*
X182841251Y-54840216D01*
X182937757Y-54650812D01*
X183003446Y-54448643D01*
X183036700Y-54238687D01*
X183036700Y-54026113D01*
X183003446Y-53816157D01*
X182937757Y-53613988D01*
X182841251Y-53424584D01*
X182841249Y-53424581D01*
X182841248Y-53424579D01*
X182716309Y-53252613D01*
X182565986Y-53102290D01*
X182394020Y-52977351D01*
X182204614Y-52880844D01*
X182204613Y-52880843D01*
X182204612Y-52880843D01*
X182002443Y-52815154D01*
X182002441Y-52815153D01*
X182002440Y-52815153D01*
X181841157Y-52789608D01*
X181792487Y-52781900D01*
X181579913Y-52781900D01*
X181531242Y-52789608D01*
X181369960Y-52815153D01*
X181167785Y-52880844D01*
X180978379Y-52977351D01*
X180806413Y-53102290D01*
X180656090Y-53252613D01*
X180531149Y-53424582D01*
X180526684Y-53433346D01*
X180478709Y-53484142D01*
X180410888Y-53500936D01*
X180344753Y-53478398D01*
X180305716Y-53433346D01*
X180301250Y-53424582D01*
X180176309Y-53252613D01*
X180025986Y-53102290D01*
X179854020Y-52977351D01*
X179664614Y-52880844D01*
X179664613Y-52880843D01*
X179664612Y-52880843D01*
X179462443Y-52815154D01*
X179462441Y-52815153D01*
X179462440Y-52815153D01*
X179301157Y-52789608D01*
X179252487Y-52781900D01*
X179039913Y-52781900D01*
X178991242Y-52789608D01*
X178829960Y-52815153D01*
X178627785Y-52880844D01*
X178438379Y-52977351D01*
X178266413Y-53102290D01*
X178116090Y-53252613D01*
X177991149Y-53424582D01*
X177986684Y-53433346D01*
X177938709Y-53484142D01*
X177870888Y-53500936D01*
X177804753Y-53478398D01*
X177765716Y-53433346D01*
X177761250Y-53424582D01*
X177636309Y-53252613D01*
X177485986Y-53102290D01*
X177314020Y-52977351D01*
X177124614Y-52880844D01*
X177124613Y-52880843D01*
X177124612Y-52880843D01*
X176922443Y-52815154D01*
X176922441Y-52815153D01*
X176922440Y-52815153D01*
X176761157Y-52789608D01*
X176712487Y-52781900D01*
X176499913Y-52781900D01*
X176451242Y-52789608D01*
X176289960Y-52815153D01*
X176087785Y-52880844D01*
X175898379Y-52977351D01*
X175726413Y-53102290D01*
X175576090Y-53252613D01*
X175451149Y-53424582D01*
X175446684Y-53433346D01*
X175398709Y-53484142D01*
X175330888Y-53500936D01*
X175264753Y-53478398D01*
X175225716Y-53433346D01*
X175221250Y-53424582D01*
X175096309Y-53252613D01*
X174945986Y-53102290D01*
X174774020Y-52977351D01*
X174584614Y-52880844D01*
X174584613Y-52880843D01*
X174584612Y-52880843D01*
X174382443Y-52815154D01*
X174382441Y-52815153D01*
X174382440Y-52815153D01*
X174221157Y-52789608D01*
X174172487Y-52781900D01*
X173959913Y-52781900D01*
X173911242Y-52789608D01*
X173749960Y-52815153D01*
X173547785Y-52880844D01*
X173358379Y-52977351D01*
X173186413Y-53102290D01*
X173036090Y-53252613D01*
X172911151Y-53424579D01*
X172814644Y-53613985D01*
X172814643Y-53613987D01*
X172814643Y-53613988D01*
X172796200Y-53670749D01*
X172748953Y-53816160D01*
X172715700Y-54026113D01*
X166679100Y-54026113D01*
X166679100Y-53919513D01*
X166645846Y-53709557D01*
X166580157Y-53507388D01*
X166483651Y-53317984D01*
X166483649Y-53317981D01*
X166483648Y-53317979D01*
X166358709Y-53146013D01*
X166208386Y-52995690D01*
X166036420Y-52870751D01*
X165847014Y-52774244D01*
X165847013Y-52774243D01*
X165847012Y-52774243D01*
X165644843Y-52708554D01*
X165644841Y-52708553D01*
X165644840Y-52708553D01*
X165483557Y-52683008D01*
X165434887Y-52675300D01*
X165222313Y-52675300D01*
X165173642Y-52683008D01*
X165012360Y-52708553D01*
X164810185Y-52774244D01*
X164620779Y-52870751D01*
X164448813Y-52995690D01*
X164298490Y-53146013D01*
X164173549Y-53317982D01*
X164169084Y-53326746D01*
X164121109Y-53377542D01*
X164053288Y-53394336D01*
X163987153Y-53371798D01*
X163948116Y-53326746D01*
X163943650Y-53317982D01*
X163818709Y-53146013D01*
X163668386Y-52995690D01*
X163496420Y-52870751D01*
X163307014Y-52774244D01*
X163307013Y-52774243D01*
X163307012Y-52774243D01*
X163104843Y-52708554D01*
X163104841Y-52708553D01*
X163104840Y-52708553D01*
X162943557Y-52683008D01*
X162894887Y-52675300D01*
X162682313Y-52675300D01*
X162633642Y-52683008D01*
X162472360Y-52708553D01*
X162270185Y-52774244D01*
X162080779Y-52870751D01*
X161908813Y-52995690D01*
X161758490Y-53146013D01*
X161633549Y-53317982D01*
X161629084Y-53326746D01*
X161581109Y-53377542D01*
X161513288Y-53394336D01*
X161447153Y-53371798D01*
X161408116Y-53326746D01*
X161403650Y-53317982D01*
X161278709Y-53146013D01*
X161128386Y-52995690D01*
X160956420Y-52870751D01*
X160767014Y-52774244D01*
X160767013Y-52774243D01*
X160767012Y-52774243D01*
X160564843Y-52708554D01*
X160564841Y-52708553D01*
X160564840Y-52708553D01*
X160403557Y-52683008D01*
X160354887Y-52675300D01*
X160142313Y-52675300D01*
X160093642Y-52683008D01*
X159932360Y-52708553D01*
X159730185Y-52774244D01*
X159540779Y-52870751D01*
X159368813Y-52995690D01*
X159218490Y-53146013D01*
X159093549Y-53317982D01*
X159089084Y-53326746D01*
X159041109Y-53377542D01*
X158973288Y-53394336D01*
X158907153Y-53371798D01*
X158868116Y-53326746D01*
X158863650Y-53317982D01*
X158738709Y-53146013D01*
X158588386Y-52995690D01*
X158416420Y-52870751D01*
X158227014Y-52774244D01*
X158227013Y-52774243D01*
X158227012Y-52774243D01*
X158024843Y-52708554D01*
X158024841Y-52708553D01*
X158024840Y-52708553D01*
X157863557Y-52683008D01*
X157814887Y-52675300D01*
X157602313Y-52675300D01*
X157553642Y-52683008D01*
X157392360Y-52708553D01*
X157190185Y-52774244D01*
X157000779Y-52870751D01*
X156828813Y-52995690D01*
X156678490Y-53146013D01*
X156553551Y-53317979D01*
X156457044Y-53507385D01*
X156391353Y-53709560D01*
X156358100Y-53919513D01*
X124571423Y-53919513D01*
X124571919Y-53917019D01*
X124577205Y-53890450D01*
X124599299Y-53779371D01*
X124599300Y-53779368D01*
X124599300Y-53611832D01*
X124599299Y-53611828D01*
X124589815Y-53564149D01*
X124566616Y-53447518D01*
X124502503Y-53292737D01*
X124471337Y-53246094D01*
X124409426Y-53153437D01*
X124290962Y-53034973D01*
X124151660Y-52941895D01*
X123996882Y-52877784D01*
X123996874Y-52877782D01*
X123832571Y-52845100D01*
X123832567Y-52845100D01*
X123665033Y-52845100D01*
X123665028Y-52845100D01*
X123500725Y-52877782D01*
X123500717Y-52877784D01*
X123345939Y-52941895D01*
X123206637Y-53034973D01*
X123088173Y-53153437D01*
X122995095Y-53292739D01*
X122930984Y-53447516D01*
X122930982Y-53447521D01*
X122930056Y-53452179D01*
X122911544Y-53496866D01*
X122880521Y-53543296D01*
X122880514Y-53543308D01*
X122823942Y-53679886D01*
X122823940Y-53679892D01*
X122795100Y-53824879D01*
X122795100Y-56079739D01*
X122785661Y-56127192D01*
X122727784Y-56266917D01*
X122727782Y-56266925D01*
X122695100Y-56431228D01*
X96878153Y-56431228D01*
X96858791Y-56371639D01*
X96769144Y-56195699D01*
X96761686Y-56185434D01*
X96653084Y-56035953D01*
X96513446Y-55896315D01*
X96353704Y-55780258D01*
X96353703Y-55780257D01*
X96353701Y-55780256D01*
X96177761Y-55690609D01*
X96153466Y-55682715D01*
X95989963Y-55629589D01*
X95794936Y-55598700D01*
X95794931Y-55598700D01*
X95597469Y-55598700D01*
X95597464Y-55598700D01*
X95402436Y-55629589D01*
X95214641Y-55690608D01*
X95038695Y-55780258D01*
X94878953Y-55896315D01*
X94739315Y-56035953D01*
X94623258Y-56195695D01*
X94533608Y-56371641D01*
X94472589Y-56559436D01*
X94441700Y-56754463D01*
X93058100Y-56754463D01*
X93058100Y-54357200D01*
X98412164Y-54357200D01*
X99663188Y-54357200D01*
X99630275Y-54414207D01*
X99596200Y-54541374D01*
X99596200Y-54673026D01*
X99630275Y-54800193D01*
X99663188Y-54857200D01*
X98412164Y-54857200D01*
X98419076Y-54900842D01*
X98419076Y-54900843D01*
X98480073Y-55088571D01*
X98569685Y-55264442D01*
X98685696Y-55424119D01*
X98685700Y-55424124D01*
X98825275Y-55563699D01*
X98825280Y-55563703D01*
X98984957Y-55679714D01*
X99160826Y-55769326D01*
X99348553Y-55830323D01*
X99543503Y-55861200D01*
X100146200Y-55861200D01*
X100146200Y-55107200D01*
X100646200Y-55107200D01*
X100646200Y-55861200D01*
X101248897Y-55861200D01*
X101443846Y-55830323D01*
X101631573Y-55769326D01*
X101807442Y-55679714D01*
X101967119Y-55563703D01*
X101967124Y-55563699D01*
X102106699Y-55424124D01*
X102106703Y-55424119D01*
X102222714Y-55264442D01*
X102312326Y-55088571D01*
X102373323Y-54900843D01*
X102373323Y-54900842D01*
X102380236Y-54857200D01*
X101129212Y-54857200D01*
X101162125Y-54800193D01*
X101196200Y-54673026D01*
X101196200Y-54541374D01*
X101162125Y-54414207D01*
X101129212Y-54357200D01*
X102380236Y-54357200D01*
X102373323Y-54313557D01*
X102373323Y-54313556D01*
X102312326Y-54125828D01*
X102222714Y-53949957D01*
X102106703Y-53790280D01*
X102106699Y-53790275D01*
X101967124Y-53650700D01*
X101967119Y-53650696D01*
X101807442Y-53534685D01*
X101631573Y-53445073D01*
X101443846Y-53384076D01*
X101248897Y-53353200D01*
X100646200Y-53353200D01*
X100646200Y-54107200D01*
X100146200Y-54107200D01*
X100146200Y-53353200D01*
X99543503Y-53353200D01*
X99348553Y-53384076D01*
X99160826Y-53445073D01*
X98984957Y-53534685D01*
X98825280Y-53650696D01*
X98825275Y-53650700D01*
X98685700Y-53790275D01*
X98685696Y-53790280D01*
X98569685Y-53949957D01*
X98480073Y-54125828D01*
X98419076Y-54313556D01*
X98419076Y-54313557D01*
X98412164Y-54357200D01*
X93058100Y-54357200D01*
X93058100Y-46395300D01*
X93077785Y-46328261D01*
X93130589Y-46282506D01*
X93182100Y-46271300D01*
X191933100Y-46271300D01*
X192000139Y-46290985D01*
G37*
%TD.AperFunction*%
%TD*%
M02*
