%TF.GenerationSoftware,KiCad,Pcbnew,9.0.4*%
%TF.CreationDate,2026-03-03T09:08:47-07:00*%
%TF.ProjectId,Patel_EGR314,50617465-6c5f-4454-9752-3331342e6b69,rev?*%
%TF.SameCoordinates,Original*%
%TF.FileFunction,Soldermask,Top*%
%TF.FilePolarity,Negative*%
%FSLAX46Y46*%
G04 Gerber Fmt 4.6, Leading zero omitted, Abs format (unit mm)*
G04 Created by KiCad (PCBNEW 9.0.4) date 2026-03-03 09:08:47*
%MOMM*%
%LPD*%
G01*
G04 APERTURE LIST*
G04 Aperture macros list*
%AMRoundRect*
0 Rectangle with rounded corners*
0 $1 Rounding radius*
0 $2 $3 $4 $5 $6 $7 $8 $9 X,Y pos of 4 corners*
0 Add a 4 corners polygon primitive as box body*
4,1,4,$2,$3,$4,$5,$6,$7,$8,$9,$2,$3,0*
0 Add four circle primitives for the rounded corners*
1,1,$1+$1,$2,$3*
1,1,$1+$1,$4,$5*
1,1,$1+$1,$6,$7*
1,1,$1+$1,$8,$9*
0 Add four rect primitives between the rounded corners*
20,1,$1+$1,$2,$3,$4,$5,0*
20,1,$1+$1,$4,$5,$6,$7,0*
20,1,$1+$1,$6,$7,$8,$9,0*
20,1,$1+$1,$8,$9,$2,$3,0*%
G04 Aperture macros list end*
%ADD10RoundRect,0.102000X0.750000X0.450000X-0.750000X0.450000X-0.750000X-0.450000X0.750000X-0.450000X0*%
%ADD11RoundRect,0.102000X0.450000X0.750000X-0.450000X0.750000X-0.450000X-0.750000X0.450000X-0.750000X0*%
%ADD12RoundRect,0.102000X0.450000X0.450000X-0.450000X0.450000X-0.450000X-0.450000X0.450000X-0.450000X0*%
%ADD13RoundRect,0.102000X-0.660000X-2.385000X0.660000X-2.385000X0.660000X2.385000X-0.660000X2.385000X0*%
%ADD14RoundRect,0.102000X2.385000X-0.660000X2.385000X0.660000X-2.385000X0.660000X-2.385000X-0.660000X0*%
%ADD15RoundRect,0.102000X-0.650000X-1.400000X0.650000X-1.400000X0.650000X1.400000X-0.650000X1.400000X0*%
%ADD16RoundRect,0.102000X0.650000X1.400000X-0.650000X1.400000X-0.650000X-1.400000X0.650000X-1.400000X0*%
%ADD17RoundRect,0.102000X0.660000X2.385000X-0.660000X2.385000X-0.660000X-2.385000X0.660000X-2.385000X0*%
%ADD18RoundRect,0.102000X-1.400000X0.650000X-1.400000X-0.650000X1.400000X-0.650000X1.400000X0.650000X0*%
%ADD19R,1.244600X0.863600*%
%ADD20R,1.400048X1.549908*%
%ADD21R,1.700000X1.700000*%
%ADD22C,1.700000*%
%ADD23RoundRect,0.102000X-1.400000X0.550000X-1.400000X-0.550000X1.400000X-0.550000X1.400000X0.550000X0*%
%ADD24C,1.162000*%
%ADD25O,1.112000X2.020000*%
%ADD26R,1.803400X1.651000*%
%ADD27RoundRect,0.094250X-0.627750X-0.282750X0.627750X-0.282750X0.627750X0.282750X-0.627750X0.282750X0*%
%ADD28O,3.220000X1.712000*%
%ADD29O,1.712000X3.220000*%
%ADD30RoundRect,0.102000X0.550000X1.400000X-0.550000X1.400000X-0.550000X-1.400000X0.550000X-1.400000X0*%
%ADD31R,3.150000X1.000000*%
%ADD32RoundRect,0.102000X1.400000X-0.550000X1.400000X0.550000X-1.400000X0.550000X-1.400000X-0.550000X0*%
%ADD33RoundRect,0.102000X1.125000X1.560000X-1.125000X1.560000X-1.125000X-1.560000X1.125000X-1.560000X0*%
%ADD34R,4.241800X3.810000*%
%ADD35R,1.549908X1.400048*%
%ADD36R,0.863600X1.244600*%
%ADD37RoundRect,0.102000X-1.125000X-1.560000X1.125000X-1.560000X1.125000X1.560000X-1.125000X1.560000X0*%
G04 APERTURE END LIST*
D10*
%TO.C,U2*%
X157047600Y-115087400D03*
X157047600Y-113817400D03*
X157047600Y-112547400D03*
X157047600Y-111277400D03*
X157047600Y-110007400D03*
X157047600Y-108737400D03*
X157047600Y-107467400D03*
X157047600Y-106197400D03*
X157047600Y-104927400D03*
X157047600Y-103657400D03*
X157047600Y-102387400D03*
X157047600Y-101117400D03*
X157047600Y-99847400D03*
X157047600Y-98577400D03*
D11*
X155282600Y-97327400D03*
X154012600Y-97327400D03*
X152742600Y-97327400D03*
X151472600Y-97327400D03*
X150202600Y-97327400D03*
X148932600Y-97327400D03*
X147662600Y-97327400D03*
X146392600Y-97327400D03*
X145122600Y-97327400D03*
X143852600Y-97327400D03*
X142582600Y-97327400D03*
X141312600Y-97327400D03*
D10*
X139547600Y-98577400D03*
X139547600Y-99847400D03*
X139547600Y-101117400D03*
X139547600Y-102387400D03*
X139547600Y-103657400D03*
X139547600Y-104927400D03*
X139547600Y-106197400D03*
X139547600Y-107467400D03*
X139547600Y-108737400D03*
X139547600Y-110007400D03*
X139547600Y-111277400D03*
X139547600Y-112547400D03*
X139547600Y-113817400D03*
X139547600Y-115087400D03*
D12*
X149797600Y-107367400D03*
X151197600Y-107367400D03*
X148397600Y-107367400D03*
X151197600Y-105967400D03*
X149797600Y-105967400D03*
X148397600Y-105967400D03*
X151197600Y-108767400D03*
X149797600Y-108767400D03*
X148397600Y-108767400D03*
%TD*%
D13*
%TO.C,R11*%
X177106000Y-90860400D03*
X179756000Y-90860400D03*
%TD*%
%TO.C,R12*%
X169765400Y-90809600D03*
X172415400Y-90809600D03*
%TD*%
D14*
%TO.C,R7*%
X140385800Y-56163600D03*
X140385800Y-53513600D03*
%TD*%
D15*
%TO.C,C4*%
X118477800Y-50825400D03*
X123177800Y-50825400D03*
%TD*%
D16*
%TO.C,C3*%
X135894600Y-72674000D03*
X131194600Y-72674000D03*
%TD*%
D13*
%TO.C,R5*%
X135420000Y-78516000D03*
X138070000Y-78516000D03*
%TD*%
%TO.C,R6*%
X129959000Y-78516000D03*
X132609000Y-78516000D03*
%TD*%
D17*
%TO.C,R8*%
X123693600Y-83062600D03*
X121043600Y-83062600D03*
%TD*%
%TO.C,R9*%
X123642800Y-89133200D03*
X120992800Y-89133200D03*
%TD*%
%TO.C,R3*%
X123820600Y-95254600D03*
X121170600Y-95254600D03*
%TD*%
%TO.C,R2*%
X123922200Y-101376000D03*
X121272200Y-101376000D03*
%TD*%
D13*
%TO.C,R13*%
X112807600Y-112344200D03*
X115457600Y-112344200D03*
%TD*%
%TO.C,R10*%
X112985400Y-129209800D03*
X115635400Y-129209800D03*
%TD*%
D18*
%TO.C,C1*%
X166827200Y-130212600D03*
X166827200Y-134912600D03*
%TD*%
%TO.C,C8*%
X171119800Y-123811800D03*
X171119800Y-128511800D03*
%TD*%
D14*
%TO.C,R4*%
X154101800Y-137392800D03*
X154101800Y-134742800D03*
%TD*%
%TO.C,R1*%
X154101800Y-132008000D03*
X154101800Y-129358000D03*
%TD*%
D19*
%TO.C,D7*%
X117771200Y-87202800D03*
X117771200Y-89158600D03*
%TD*%
D20*
%TO.C,SW1*%
X162828801Y-129349602D03*
X158328799Y-129349602D03*
X162828801Y-137299598D03*
X158328799Y-137299598D03*
%TD*%
D21*
%TO.C,J4*%
X105852200Y-105283000D03*
D22*
X105852200Y-102743000D03*
%TD*%
D23*
%TO.C,C7*%
X162551400Y-113934200D03*
X162551400Y-118434200D03*
%TD*%
D24*
%TO.C,J1*%
X159590000Y-89492800D03*
X160240000Y-90492800D03*
X160890000Y-89492800D03*
X161540000Y-90492800D03*
X162190000Y-89492800D03*
D25*
X157315000Y-89712800D03*
X164465000Y-89712800D03*
%TD*%
D26*
%TO.C,L1*%
X126136400Y-60502800D03*
X126136400Y-56946800D03*
%TD*%
D27*
%TO.C,U1*%
X119490400Y-56758800D03*
X119490400Y-57708800D03*
X119490400Y-58658800D03*
X121860400Y-58658800D03*
X121860400Y-57708800D03*
X121860400Y-56758800D03*
%TD*%
D21*
%TO.C,J8*%
X157708600Y-56565800D03*
D22*
X157708600Y-54025800D03*
X160248600Y-56565800D03*
X160248600Y-54025800D03*
X162788600Y-56565800D03*
X162788600Y-54025800D03*
X165328600Y-56565800D03*
X165328600Y-54025800D03*
%TD*%
D28*
%TO.C,J2*%
X100396200Y-60607200D03*
X100396200Y-54607200D03*
D29*
X95696200Y-57607200D03*
%TD*%
D30*
%TO.C,C2*%
X101995800Y-68122800D03*
X97495800Y-68122800D03*
%TD*%
D21*
%TO.C,J7*%
X104135000Y-112217200D03*
D22*
X106675000Y-112217200D03*
X104135000Y-114757200D03*
X106675000Y-114757200D03*
X104135000Y-117297200D03*
X106675000Y-117297200D03*
X104135000Y-119837200D03*
X106675000Y-119837200D03*
%TD*%
D21*
%TO.C,J6*%
X177190400Y-117551200D03*
D22*
X174650400Y-117551200D03*
X177190400Y-115011200D03*
X174650400Y-115011200D03*
X177190400Y-112471200D03*
X174650400Y-112471200D03*
X177190400Y-109931200D03*
X174650400Y-109931200D03*
X177190400Y-107391200D03*
X174650400Y-107391200D03*
X177190400Y-104851200D03*
X174650400Y-104851200D03*
X177190400Y-102311200D03*
X174650400Y-102311200D03*
X177190400Y-99771200D03*
X174650400Y-99771200D03*
X177190400Y-97231200D03*
X174650400Y-97231200D03*
%TD*%
D31*
%TO.C,J3*%
X108981000Y-67767200D03*
X114031000Y-67767200D03*
%TD*%
D19*
%TO.C,D3*%
X117695000Y-97299300D03*
X117695000Y-95343500D03*
%TD*%
D32*
%TO.C,C5*%
X128930400Y-53380200D03*
X128930400Y-48880200D03*
%TD*%
D33*
%TO.C,D4*%
X107829300Y-54711600D03*
X114739300Y-54711600D03*
%TD*%
D21*
%TO.C,J9*%
X174066200Y-56672400D03*
D22*
X174066200Y-54132400D03*
X176606200Y-56672400D03*
X176606200Y-54132400D03*
X179146200Y-56672400D03*
X179146200Y-54132400D03*
X181686200Y-56672400D03*
X181686200Y-54132400D03*
%TD*%
D23*
%TO.C,C9*%
X177215800Y-123835600D03*
X177215800Y-128335600D03*
%TD*%
D32*
%TO.C,C6*%
X133680400Y-53380200D03*
X133680400Y-48880200D03*
%TD*%
D21*
%TO.C,J5*%
X104063800Y-128244600D03*
D22*
X106603800Y-128244600D03*
X104063800Y-130784600D03*
X106603800Y-130784600D03*
X104063800Y-133324600D03*
X106603800Y-133324600D03*
X104063800Y-135864600D03*
X106603800Y-135864600D03*
%TD*%
D19*
%TO.C,D2*%
X117695000Y-99458300D03*
X117695000Y-101414100D03*
%TD*%
D33*
%TO.C,D1*%
X157308500Y-82651600D03*
X164218500Y-82651600D03*
%TD*%
D34*
%TO.C,F1*%
X110077250Y-62687200D03*
X116452650Y-62687200D03*
%TD*%
D35*
%TO.C,SW2*%
X137735498Y-87533301D03*
X137735498Y-83033299D03*
X129785502Y-87533301D03*
X129785502Y-83033299D03*
%TD*%
D36*
%TO.C,D5*%
X138277600Y-50622200D03*
X140233400Y-50622200D03*
%TD*%
D37*
%TO.C,D8*%
X108908900Y-96266000D03*
X101998900Y-96266000D03*
%TD*%
D19*
%TO.C,D6*%
X117771200Y-84827900D03*
X117771200Y-82872100D03*
%TD*%
M02*
