%TF.GenerationSoftware,KiCad,Pcbnew,9.0.4*%
%TF.CreationDate,2026-03-03T09:08:47-07:00*%
%TF.ProjectId,Patel_EGR314,50617465-6c5f-4454-9752-3331342e6b69,rev?*%
%TF.SameCoordinates,Original*%
%TF.FileFunction,Soldermask,Bot*%
%TF.FilePolarity,Negative*%
%FSLAX46Y46*%
G04 Gerber Fmt 4.6, Leading zero omitted, Abs format (unit mm)*
G04 Created by KiCad (PCBNEW 9.0.4) date 2026-03-03 09:08:47*
%MOMM*%
%LPD*%
G01*
G04 APERTURE LIST*
%ADD10R,1.700000X1.700000*%
%ADD11C,1.700000*%
%ADD12C,1.162000*%
%ADD13O,1.112000X2.020000*%
%ADD14O,3.220000X1.712000*%
%ADD15O,1.712000X3.220000*%
G04 APERTURE END LIST*
D10*
%TO.C,J4*%
X105852200Y-105283000D03*
D11*
X105852200Y-102743000D03*
%TD*%
D12*
%TO.C,J1*%
X159590000Y-89492800D03*
X160240000Y-90492800D03*
X160890000Y-89492800D03*
X161540000Y-90492800D03*
X162190000Y-89492800D03*
D13*
X157315000Y-89712800D03*
X164465000Y-89712800D03*
%TD*%
D10*
%TO.C,J8*%
X157708600Y-56565800D03*
D11*
X157708600Y-54025800D03*
X160248600Y-56565800D03*
X160248600Y-54025800D03*
X162788600Y-56565800D03*
X162788600Y-54025800D03*
X165328600Y-56565800D03*
X165328600Y-54025800D03*
%TD*%
D14*
%TO.C,J2*%
X100396200Y-60607200D03*
X100396200Y-54607200D03*
D15*
X95696200Y-57607200D03*
%TD*%
D10*
%TO.C,J7*%
X104135000Y-112217200D03*
D11*
X106675000Y-112217200D03*
X104135000Y-114757200D03*
X106675000Y-114757200D03*
X104135000Y-117297200D03*
X106675000Y-117297200D03*
X104135000Y-119837200D03*
X106675000Y-119837200D03*
%TD*%
D10*
%TO.C,J6*%
X177190400Y-117551200D03*
D11*
X174650400Y-117551200D03*
X177190400Y-115011200D03*
X174650400Y-115011200D03*
X177190400Y-112471200D03*
X174650400Y-112471200D03*
X177190400Y-109931200D03*
X174650400Y-109931200D03*
X177190400Y-107391200D03*
X174650400Y-107391200D03*
X177190400Y-104851200D03*
X174650400Y-104851200D03*
X177190400Y-102311200D03*
X174650400Y-102311200D03*
X177190400Y-99771200D03*
X174650400Y-99771200D03*
X177190400Y-97231200D03*
X174650400Y-97231200D03*
%TD*%
D10*
%TO.C,J9*%
X174066200Y-56672400D03*
D11*
X174066200Y-54132400D03*
X176606200Y-56672400D03*
X176606200Y-54132400D03*
X179146200Y-56672400D03*
X179146200Y-54132400D03*
X181686200Y-56672400D03*
X181686200Y-54132400D03*
%TD*%
D10*
%TO.C,J5*%
X104063800Y-128244600D03*
D11*
X106603800Y-128244600D03*
X104063800Y-130784600D03*
X106603800Y-130784600D03*
X104063800Y-133324600D03*
X106603800Y-133324600D03*
X104063800Y-135864600D03*
X106603800Y-135864600D03*
%TD*%
M02*
